<?xml version="1.0" encoding="utf-8"?><!-- Uploaded to: SVG Repo, www.svgrepo.com, Generator: SVG Repo Mixer Tools -->
<svg width="800px" height="800px" viewBox="-0.5 0 25 25" fill="none" xmlns="http://www.w3.org/2000/svg">
<path d="M3.02 5.5H20.98C21.27 5.5 21.5 5.73 21.5 6.02V18.98C21.5 19.27 21.27 19.5 20.98 19.5H3.02C2.73 19.5 2.5 19.27 2.5 18.98V6.02C2.5 5.73 2.73 5.5 3.02 5.5Z" stroke="#0F0F0F" stroke-miterlimit="10" stroke-linecap="round" stroke-linejoin="round"/>
<path d="M12 8.25V10.25" stroke="#0F0F0F" stroke-miterlimit="10" stroke-linecap="round" stroke-linejoin="round"/>
<path d="M12 15.25V16.75" stroke="#0F0F0F" stroke-miterlimit="10" stroke-linecap="round" stroke-linejoin="round"/>
<path d="M17 8.25V8.95999" stroke="#0F0F0F" stroke-miterlimit="10" stroke-linecap="round" stroke-linejoin="round"/>
<path d="M7 11.25V16.75" stroke="#0F0F0F" stroke-miterlimit="10" stroke-linecap="round" stroke-linejoin="round"/>
<path d="M7 9.75C7.55228 9.75 8 9.30228 8 8.75C8 8.19772 7.55228 7.75 7 7.75C6.44772 7.75 6 8.19772 6 8.75C6 9.30228 6.44772 9.75 7 9.75Z" fill="#0F0F0F"/>
<path d="M12 13.75C12.5523 13.75 13 13.3023 13 12.75C13 12.1977 12.5523 11.75 12 11.75C11.4477 11.75 11 12.1977 11 12.75C11 13.3023 11.4477 13.75 12 13.75Z" fill="#0F0F0F"/>
<path d="M17 11.96C17.5523 11.96 18 11.5122 18 10.96C18 10.4077 17.5523 9.95996 17 9.95996C16.4477 9.95996 16 10.4077 16 10.96C16 11.5122 16.4477 11.96 17 11.96Z" fill="#0F0F0F"/>
<path d="M17 12.96V16.75" stroke="#0F0F0F" stroke-miterlimit="10" stroke-linecap="round" stroke-linejoin="round"/>
</svg>