<svg xmlns="http://www.w3.org/2000/svg" width="968" height="587" viewBox="0 0 968 587"><defs><style type="text/css"/></defs><g transform="translate(313 274) scale(1)"><g class="relationship"><g transform="translate(-4.124339402320109e-32 37.00000000000003) rotate(-90)" stroke-width="5" stroke="#000000"><path d="M 59 0 L 173.13784938225172 0"/><polygon points="-24.8621506177483,0 -27.62461179749811,9.20820393249937 0,0 -27.62461179749811,-9.20820393249937" fill="#000000" transform="translate(198 0) rotate(0)" stroke="none"/></g><g transform="translate(7.107171855173123e-15 -79.06892469112583) rotate(90) translate(0 -13)"><g transform="translate(0 0)"><g transform="translate(-43.86666488647461 0)" fill="#ffffff" stroke="#000000" stroke-width="0"><rect x="0" y="0" width="87.73332977294922" height="26" rx="5" ry="5" stroke="none"/><text xml:space="preserve" x="5" y="17.5" stroke="none" text-anchor="left" font-family="sans-serif" font-size="16" font-weight="normal" fill="#000000">related to</text></g></g></g></g><g class="relationship"><g transform="translate(259 259) rotate(-90)" stroke-width="5" stroke="#000000"><path d="M 59 0 L 155.63784938225172 0"/><polygon points="-24.8621506177483,0 -27.62461179749811,9.20820393249937 0,0 -27.62461179749811,-9.20820393249937" fill="#000000" transform="translate(180.5 0) rotate(0)" stroke="none"/></g><g transform="translate(259 151.68107530887414) rotate(90) translate(0 -13)"><g transform="translate(0 0)"><g transform="translate(-45.33333206176758 0)" fill="#ffffff" stroke="#000000" stroke-width="0"><rect x="0" y="0" width="90.66666412353516" height="26" rx="5" ry="5" stroke="none"/><text xml:space="preserve" x="5" y="17.5" stroke="none" text-anchor="left" font-family="sans-serif" font-size="16" font-weight="normal" fill="#000000">owned_by</text></g></g></g></g><g class="relationship"><g transform="translate(-4.124339402320109e-32 37.00000000000003) rotate(40.601294645004465)" stroke-width="5" stroke="#000000"><path d="M 59 0 L 257.26099430208853 0"/><polygon points="-24.8621506177483,0 -27.62461179749811,9.20820393249937 0,0 -27.62461179749811,-9.20820393249937" fill="#000000" transform="translate(282.1231449198368 0) rotate(0)" stroke="none"/></g><g transform="translate(120.06162399723709 139.9099634262032) rotate(40.601294645004465) translate(0 -13)"><g transform="translate(0 0)"><g transform="translate(-20.283333778381348 0)" fill="#ffffff" stroke="#000000" stroke-width="0"><rect x="0" y="0" width="40.566667556762695" height="26" rx="5" ry="5" stroke="none"/><text xml:space="preserve" x="5" y="17.5" stroke="none" text-anchor="left" font-family="sans-serif" font-size="16" font-weight="normal" fill="#000000">is_a</text></g></g></g></g><g class="relationship"><g transform="translate(259 -220) rotate(90)" stroke-width="5" stroke="#000000"><path d="M 59 0 L 155.63784938225172 0"/><polygon points="-24.8621506177483,0 -27.62461179749811,9.20820393249937 0,0 -27.62461179749811,-9.20820393249937" fill="#000000" transform="translate(180.5 0) rotate(0)" stroke="none"/></g><g transform="translate(259 -112.68107530887414) rotate(270) translate(0 -13)"><g transform="translate(0 0)"><g transform="translate(-29.700000762939453 0)" fill="#ffffff" stroke="#000000" stroke-width="0"><rect x="0" y="0" width="59.400001525878906" height="26" rx="5" ry="5" stroke="none"/><text xml:space="preserve" x="5" y="17.5" stroke="none" text-anchor="left" font-family="sans-serif" font-size="16" font-weight="normal" fill="#000000">issues</text></g></g></g></g><g class="relationship"><g transform="translate(-4.124339402320109e-32 -220) rotate(180)" stroke-width="5" stroke="#000000"><path d="M 59 0 L 175.13784938225172 0"/><polygon points="-24.8621506177483,0 -27.62461179749811,9.20820393249937 0,0 -27.62461179749811,-9.20820393249937" fill="#000000" transform="translate(200 0) rotate(0)" stroke="none"/></g><g transform="translate(-117.06892469112586 -219.99999999999997) rotate(360) translate(0 -13)"><g transform="translate(0 0)"><g transform="translate(-45.31666564941406 0)" fill="#ffffff" stroke="#000000" stroke-width="0"><rect x="0" y="0" width="90.63333129882812" height="26" rx="5" ry="5" stroke="none"/><text xml:space="preserve" x="5" y="17.5" stroke="none" text-anchor="left" font-family="sans-serif" font-size="16" font-weight="normal" fill="#000000">related_to</text></g></g></g></g><g class="relationship"><g transform="translate(259 -220) rotate(180)" stroke-width="5" stroke="#000000"><path d="M 59 0 L 175.13784938225172 0"/><polygon points="-24.8621506177483,0 -27.62461179749811,9.20820393249937 0,0 -27.62461179749811,-9.20820393249937" fill="#000000" transform="translate(200 0) rotate(0)" stroke="none"/></g><g transform="translate(141.93107530887414 -219.99999999999997) rotate(360) translate(0 -13)"><g transform="translate(0 0)"><g transform="translate(-45.33333206176758 0)" fill="#ffffff" stroke="#000000" stroke-width="0"><rect x="0" y="0" width="90.66666412353516" height="26" rx="5" ry="5" stroke="none"/><text xml:space="preserve" x="5" y="17.5" stroke="none" text-anchor="left" font-family="sans-serif" font-size="16" font-weight="normal" fill="#000000">owned_by</text></g></g></g></g><g class="relationship"><g transform="translate(-4.124339402320109e-32 37.00000000000003) rotate(135)" stroke-width="5" stroke="#000000"><path d="M 59 0 L 230.09326022907877 0"/><polygon points="-24.8621506177483,0 -27.62461179749811,9.20820393249937 0,0 -27.62461179749811,-9.20820393249937" fill="#000000" transform="translate(254.95541084682708 0) rotate(0)" stroke="none"/></g><g transform="translate(-102.2099023516544 139.20990235165445) rotate(315) translate(0 -13)"><g transform="translate(0 0)"><g transform="translate(-40.29999923706055 0)" fill="#ffffff" stroke="#000000" stroke-width="0"><rect x="0" y="0" width="80.5999984741211" height="26" rx="5" ry="5" stroke="none"/><text xml:space="preserve" x="5" y="17.5" stroke="none" text-anchor="left" font-family="sans-serif" font-size="16" font-weight="normal" fill="#000000">operates</text></g></g></g></g><g class="relationship"><g transform="translate(-222 259) rotate(0)" stroke-width="5" stroke="#000000"><path d="M 59 0 L 397.1378493822517 0"/><polygon points="-24.8621506177483,0 -27.62461179749811,9.20820393249937 0,0 -27.62461179749811,-9.20820393249937" fill="#000000" transform="translate(422 0) rotate(0)" stroke="none"/></g><g transform="translate(6.068924691125858 259) rotate(0) translate(0 -13)"><g transform="translate(0 0)"><g transform="translate(-20.283333778381348 0)" fill="#ffffff" stroke="#000000" stroke-width="0"><rect x="0" y="0" width="40.566667556762695" height="26" rx="5" ry="5" stroke="none"/><text xml:space="preserve" x="5" y="17.5" stroke="none" text-anchor="left" font-family="sans-serif" font-size="16" font-weight="normal" fill="#000000">is_a</text></g></g></g></g><g class="relationship"><g transform="translate(259 259) rotate(0)" stroke-width="5" stroke="#000000"><path d="M 58.695178092152055 -5.989663490593891 L 95.96898050729243 -9.793341079425122 A 40 40 0 0 1 100.02976931447472 -10 L 170.5615724599184 -10 L 241.09337560536213 -10 A 40 40 0 0 1 245.15416441254442 -9.79334107942512 L 257.6942658401823 -8.51366206436971 L 257.6942658401823 -8.51366206436971"/><polygon points="-24.8621506177483,0 -27.62461179749811,9.20820393249937 0,0 -27.62461179749811,-9.20820393249937" fill="#000000" transform="translate(341.1231449198368 0) rotate(5.826689442008371) translate(-59 0)" stroke="none"/></g><g transform="translate(429.5615724599184 249) rotate(0) translate(0 -13)"><g transform="translate(0 0)"><g transform="translate(-28.399999618530273 0)" fill="#ffffff" stroke="#000000" stroke-width="0"><rect x="0" y="0" width="56.79999923706055" height="26" rx="5" ry="5" stroke="none"/><text xml:space="preserve" x="5" y="17.5" stroke="none" text-anchor="left" font-family="sans-serif" font-size="16" font-weight="normal" fill="#000000">sends</text></g></g></g></g><g class="relationship"><g transform="translate(600.1231449198368 259) rotate(180)" stroke-width="5" stroke="#000000"><path d="M 58.695178092152055 -5.989663490593891 L 95.96898050729243 -9.793341079425122 A 40 40 0 0 1 100.02976931447472 -10 L 170.5615724599184 -10 L 241.09337560536213 -10 A 40 40 0 0 1 245.15416441254442 -9.79334107942512 L 257.6942658401823 -8.51366206436971 L 257.6942658401823 -8.51366206436971"/><polygon points="-24.8621506177483,0 -27.62461179749811,9.20820393249937 0,0 -27.62461179749811,-9.20820393249937" fill="#000000" transform="translate(341.1231449198368 0) rotate(5.826689442008371) translate(-59 0)" stroke="none"/></g><g transform="translate(429.5615724599184 269) rotate(360) translate(0 -13)"><g transform="translate(0 0)"><g transform="translate(-38.38333511352539 0)" fill="#ffffff" stroke="#000000" stroke-width="0"><rect x="0" y="0" width="76.76667022705078" height="26" rx="5" ry="5" stroke="none"/><text xml:space="preserve" x="5" y="17.5" stroke="none" text-anchor="left" font-family="sans-serif" font-size="16" font-weight="normal" fill="#000000">receives</text></g></g></g></g><g class="node"><g fill="#ffffff" stroke="#000000" stroke-width="4"><circle cx="-4.124339402320109e-32" cy="-220" r="52"/></g><g transform="translate(-4.124339402320109e-32 -220)"><g transform="scale(0.27539134960937495) translate(0 0)"><g transform="translate(0 0)"><g font-family="sans-serif" font-size="50" font-weight="normal" fill="#000000" text-anchor="middle"><text xml:space="preserve" x="0" y="14.5" stroke="none">Organization</text></g></g></g></g></g><g class="node"><g fill="#ffffff" stroke="#000000" stroke-width="4"><circle cx="-4.124339402320109e-32" cy="37.00000000000003" r="52"/></g><g transform="translate(-4.124339402320109e-32 37.00000000000003)"><g transform="scale(0.5039067460937499) translate(0 0)"><g transform="translate(0 0)"><g font-family="sans-serif" font-size="50" font-weight="normal" fill="#000000" text-anchor="middle"><text xml:space="preserve" x="0" y="14.5" stroke="none">Person</text></g></g></g></g></g><g class="node"><g fill="#ffffff" stroke="#000000" stroke-width="4"><circle cx="259" cy="19.5" r="52"/></g><g transform="translate(259 19.5)"><g transform="scale(0.42578182421875) translate(0 0)"><g transform="translate(0 0)"><g font-family="sans-serif" font-size="50" font-weight="normal" fill="#000000" text-anchor="middle"><text xml:space="preserve" x="0" y="14.5" stroke="none">Account</text></g></g></g></g></g><g class="node"><g fill="#ffffff" stroke="#000000" stroke-width="4"><circle cx="259" cy="259" r="52"/></g><g transform="translate(259 259)"><g transform="scale(0.6953128046874999) translate(0 0)"><g transform="translate(0 0)"><g font-family="sans-serif" font-size="50" font-weight="normal" fill="#000000" text-anchor="middle"><text xml:space="preserve" x="0" y="14.5" stroke="none">User</text></g></g></g></g></g><g class="node"><g fill="#ffffff" stroke="#000000" stroke-width="4"><circle cx="259" cy="-220" r="52"/></g><g transform="translate(259 -220)"><g transform="scale(0.38671936328125) translate(0 0)"><g transform="translate(0 0)"><g font-family="sans-serif" font-size="50" font-weight="normal" fill="#000000" text-anchor="middle"><text xml:space="preserve" x="0" y="14.5" stroke="none">Operator</text></g></g></g></g></g><g class="node"><g fill="#ffffff" stroke="#000000" stroke-width="4"><circle cx="-259" cy="-220" r="52"/></g><g transform="translate(-259 -220)"><g transform="scale(0.4414068085937499) translate(0 0)"><g transform="translate(0 0)"><g font-family="sans-serif" font-size="50" font-weight="normal" fill="#000000" text-anchor="middle"><text xml:space="preserve" x="0" y="14.5" stroke="none">Domain</text></g></g></g></g></g><g class="node"><g fill="#ffffff" stroke="#000000" stroke-width="4"><circle cx="-222" cy="259" r="52"/></g><g transform="translate(-222 259)"><g transform="scale(0.5625004375) translate(0 0)"><g transform="translate(0 0)"><g font-family="sans-serif" font-size="50" font-weight="normal" fill="#000000" text-anchor="middle"><text xml:space="preserve" x="0" y="14.5" stroke="none">Agent</text></g></g></g></g></g><g class="node"><g fill="#ffffff" stroke="#000000" stroke-width="4"><circle cx="600.1231449198368" cy="259" r="52"/></g><g transform="translate(600.1231449198368 259)"><g transform="scale(0.35546939453125004) translate(0 0)"><g transform="translate(0 0)"><g font-family="sans-serif" font-size="50" font-weight="normal" fill="#000000" text-anchor="middle"><text xml:space="preserve" x="0" y="14.5" stroke="none">Messages</text></g></g></g></g></g></g></svg>