<svg xmlns="http://www.w3.org/2000/svg" width="1018" height="1012" viewBox="0 0 1018 1012"><defs><style type="text/css"/></defs><g transform="translate(505.76315596759974 404.42341612140046) scale(1)"><g class="relationship"><g transform="translate(6.577539917183187e-32 101.33973984619928) rotate(0)" stroke-width="5" stroke="#000000"><path d="M 59 0 L 374.2803587840074 0"/><polygon points="-24.8621506177483,0 -27.62461179749811,9.20820393249937 0,0 -27.62461179749811,-9.20820393249937" fill="#000000" transform="translate(399.14250940175566 0) rotate(0)" stroke="none"/></g><g transform="translate(216.6401793920037 101.33973984619928) rotate(0) translate(0 -13)"><g transform="translate(0 0)"><g transform="translate(-56.983333587646484 0)" fill="#ffffff" stroke="#000000" stroke-width="0"><rect x="0" y="0" width="113.96666717529297" height="26" rx="5" ry="5" stroke="none"/><text xml:space="preserve" x="5" y="17.5" stroke="none" text-anchor="left" font-family="sans-serif" font-size="16" font-weight="normal" fill="#000000">CHRONICLES</text></g></g></g></g><g class="relationship"><g transform="translate(391.2383695617729 327.2213178299992) rotate(-150.00000000000003)" stroke-width="5" stroke="#000000"><path d="M 59 0 L 367.9010053498515 0"/><polygon points="-24.8621506177483,0 -27.62461179749811,9.20820393249937 0,0 -27.62461179749811,-9.20820393249937" fill="#000000" transform="translate(392.7631559675998 0) rotate(0)" stroke="none"/></g><g transform="translate(206.38481179472893 220.49606649253633) rotate(29.999999999999993) translate(0 -13)"><g transform="translate(0 0)"><g transform="translate(-53.733333587646484 0)" fill="#ffffff" stroke="#000000" stroke-width="0"><rect x="0" y="0" width="107.46666717529297" height="26" rx="5" ry="5" stroke="none"/><text xml:space="preserve" x="5" y="17.5" stroke="none" text-anchor="left" font-family="sans-serif" font-size="16" font-weight="normal" fill="#000000">RESOURCES</text></g></g></g></g><g class="relationship"><g transform="translate(238.38434743829853 492.57810940797214) rotate(-121.35425153132805)" stroke-width="5" stroke="#000000"><path d="M 59 0 L 374.2803587840074 0"/><polygon points="-24.8621506177483,0 -27.62461179749811,9.20820393249937 0,0 -27.62461179749811,-9.20820393249937" fill="#000000" transform="translate(399.14250940175566 0) rotate(0)" stroke="none"/></g><g transform="translate(125.66040950746738 307.5746468880353) rotate(58.645748468671954) translate(0 -13)"><g transform="translate(0 0)"><g transform="translate(-53.733333587646484 0)" fill="#ffffff" stroke="#000000" stroke-width="0"><rect x="0" y="0" width="107.46666717529297" height="26" rx="5" ry="5" stroke="none"/><text xml:space="preserve" x="5" y="17.5" stroke="none" text-anchor="left" font-family="sans-serif" font-size="16" font-weight="normal" fill="#000000">RESOURCES</text></g></g></g></g><g class="relationship"><g transform="translate(6.577539917183187e-32 553.102895813799) rotate(-90)" stroke-width="5" stroke="#000000"><path d="M 59 0 L 367.90100534985146 0"/><polygon points="-24.8621506177483,0 -27.62461179749811,9.20820393249937 0,0 -27.62461179749811,-9.20820393249937" fill="#000000" transform="translate(392.76315596759974 0) rotate(0)" stroke="none"/></g><g transform="translate(1.3070073743862068e-14 339.6523931388733) rotate(90) translate(0 -13)"><g transform="translate(0 0)"><g transform="translate(-53.733333587646484 0)" fill="#ffffff" stroke="#000000" stroke-width="0"><rect x="0" y="0" width="107.46666717529297" height="26" rx="5" ry="5" stroke="none"/><text xml:space="preserve" x="5" y="17.5" stroke="none" text-anchor="left" font-family="sans-serif" font-size="16" font-weight="normal" fill="#000000">RESOURCES</text></g></g></g></g><g class="relationship"><g transform="translate(6.577539917183187e-32 101.33973984619928) rotate(180)" stroke-width="5" stroke="#000000"><path d="M 59 0 L 367.90100534985146 0"/><polygon points="-24.8621506177483,0 -27.62461179749811,9.20820393249937 0,0 -27.62461179749811,-9.20820393249937" fill="#000000" transform="translate(392.76315596759974 0) rotate(0)" stroke="none"/></g><g transform="translate(-213.45050267492573 101.33973984619931) rotate(360) translate(0 -13)"><g transform="translate(0 0)"><g transform="translate(-50.266666412353516 0)" fill="#ffffff" stroke="#000000" stroke-width="0"><rect x="0" y="0" width="100.53333282470703" height="26" rx="5" ry="5" stroke="none"/><text xml:space="preserve" x="5" y="17.5" stroke="none" text-anchor="left" font-family="sans-serif" font-size="16" font-weight="normal" fill="#000000">EVALUATES</text></g></g></g></g><g class="relationship"><g transform="translate(-238.38434743829853 492.57810940797214) rotate(-58.64574846867197)" stroke-width="5" stroke="#000000"><path d="M 59 0 L 374.2803587840074 0"/><polygon points="-24.8621506177483,0 -27.62461179749811,9.20820393249937 0,0 -27.62461179749811,-9.20820393249937" fill="#000000" transform="translate(399.14250940175566 0) rotate(0)" stroke="none"/></g><g transform="translate(-125.6604095074674 307.5746468880353) rotate(-58.64574846867197) translate(0 -13)"><g transform="translate(0 0)"><g transform="translate(-53.733333587646484 0)" fill="#ffffff" stroke="#000000" stroke-width="0"><rect x="0" y="0" width="107.46666717529297" height="26" rx="5" ry="5" stroke="none"/><text xml:space="preserve" x="5" y="17.5" stroke="none" text-anchor="left" font-family="sans-serif" font-size="16" font-weight="normal" fill="#000000">RESOURCES</text></g></g></g></g><g class="relationship"><g transform="translate(-406.8781677612288 311.9215897768216) rotate(-27.36405257208962)" stroke-width="5" stroke="#000000"><path d="M 59 0 L 374.2803587840074 0"/><polygon points="-24.8621506177483,0 -27.62461179749811,9.20820393249937 0,0 -27.62461179749811,-9.20820393249937" fill="#000000" transform="translate(399.14250940175566 0) rotate(0)" stroke="none"/></g><g transform="translate(-214.47917084303407 212.34451755699757) rotate(-27.36405257208962) translate(0 -13)"><g transform="translate(0 0)"><g transform="translate(-53.733333587646484 0)" fill="#ffffff" stroke="#000000" stroke-width="0"><rect x="0" y="0" width="107.46666717529297" height="26" rx="5" ry="5" stroke="none"/><text xml:space="preserve" x="5" y="17.5" stroke="none" text-anchor="left" font-family="sans-serif" font-size="16" font-weight="normal" fill="#000000">RESOURCES</text></g></g></g></g><g class="relationship"><g transform="translate(-0.000007629394586575031 -350.42341612140046) rotate(89.99999903238654)" stroke-width="5" stroke="#000000"><path d="M 59 0 L 367.9010053498515 0"/><polygon points="-24.8621506177483,0 -27.62461179749811,9.20820393249937 0,0 -27.62461179749811,-9.20820393249937" fill="#000000" transform="translate(392.7631559675998 0) rotate(0)" stroke="none"/></g><g transform="translate(-0.00000402463378758392 -136.97291344647473) rotate(89.99999903238654) translate(0 -13)"><g transform="translate(0 0)"><g transform="translate(-70.33333587646484 0)" fill="#ffffff" stroke="#000000" stroke-width="0"><rect x="0" y="0" width="140.6666717529297" height="26" rx="5" ry="5" stroke="none"/><text xml:space="preserve" x="5" y="17.5" stroke="none" text-anchor="left" font-family="sans-serif" font-size="16" font-weight="normal" fill="#000000">COMMUNICATES</text></g></g></g></g><g class="node"><g fill="#fcdc00" stroke="#000000" stroke-width="4"><circle cx="6.577539917183187e-32" cy="101.33973984619928" r="52"/></g><g transform="translate(6.577539917183187e-32 101.33973984619928)"><g transform="scale(0.65234409765625) translate(0 0)"><g transform="translate(0 0)"><g font-family="sans-serif" font-size="50" font-weight="normal" fill="#000000" text-anchor="middle"><text xml:space="preserve" x="0" y="14.5" stroke="none">nats </text></g></g></g></g></g><g class="node"><g fill="#fe9200" stroke="#000000" stroke-width="4"><circle cx="-238.38434743829853" cy="492.57810940797214" r="52"/></g><g transform="translate(-238.38434743829853 492.57810940797214)"><g transform="scale(0.828125171875) translate(0 0)"><g transform="translate(0 0)"><g font-family="sans-serif" font-size="50" font-weight="normal" fill="#000000" text-anchor="middle"><text xml:space="preserve" x="0" y="14.5" stroke="none">dns</text></g></g></g></g></g><g class="node"><g fill="#73d8ff" stroke="#000000" stroke-width="4"><circle cx="6.577539917183187e-32" cy="553.102895813799" r="52"/></g><g transform="translate(6.577539917183187e-32 553.102895813799)"><g transform="scale(0.36523500976562495) translate(0 0)"><g transform="translate(0 0)"><g font-family="sans-serif" font-size="50" font-weight="normal" fill="#000000" text-anchor="middle"><text xml:space="preserve" x="0" y="14.5" stroke="none">Database</text></g></g></g></g></g><g class="node"><g fill="#68ccca" stroke="#000000" stroke-width="4"><circle cx="-451.76315596759974" cy="101.33973984619928" r="52"/></g><g transform="translate(-451.76315596759974 101.33973984619928)"><g transform="scale(0.39062560937499996) translate(0 0)"><g transform="translate(0 0)"><g font-family="sans-serif" font-size="50" font-weight="normal" fill="#000000" text-anchor="middle"><text xml:space="preserve" x="0" y="-45.5" stroke="none">AI</text><text xml:space="preserve" x="0" y="14.5" stroke="none" text-anchor="middle">Gateway</text></g></g></g></g></g><g class="node"><g fill="#a4dd00" stroke="#000000" stroke-width="4"><circle cx="-0.000007629394586575031" cy="-350.42341612140046" r="52"/></g><g transform="translate(-0.000007629394586575031 -350.42341612140046)"><g transform="scale(0.31445381054687493) translate(0 0)"><g transform="translate(0 0)"><g font-family="sans-serif" font-size="50" font-weight="normal" fill="#000000" text-anchor="middle"><text xml:space="preserve" x="0" y="-45.5" stroke="none">Message</text><text xml:space="preserve" x="0" y="14.5" stroke="none" text-anchor="middle">Gateway</text><text xml:space="preserve" x="0" y="74.5" stroke="none" text-anchor="middle">(comms)</text></g></g></g></g></g><g class="node"><g fill="#000000" stroke="#000000" stroke-width="4"><circle cx="238.38434743829853" cy="492.57810940797214" r="52"/></g><g transform="translate(238.38434743829853 492.57810940797214)"><g transform="scale(0.5039067460937499) translate(0 0)"><g transform="translate(0 0)"><g font-family="sans-serif" font-size="50" font-weight="normal" fill="#ffffff" text-anchor="middle"><text xml:space="preserve" x="0" y="-15.5" stroke="none">KV</text><text xml:space="preserve" x="0" y="44.5" stroke="none" text-anchor="middle">Store</text></g></g></g></g></g><g class="node"><g fill="#000000" stroke="#000000" stroke-width="4"><circle cx="391.2383695617729" cy="327.2213178299992" r="52"/></g><g transform="translate(391.2383695617729 327.2213178299992)"><g transform="scale(0.4414068085937499) translate(0 0)"><g transform="translate(0 0)"><g font-family="sans-serif" font-size="50" font-weight="normal" fill="#ffffff" text-anchor="middle"><text xml:space="preserve" x="0" y="-15.5" stroke="none">Object</text><text xml:space="preserve" x="0" y="44.5" stroke="none" text-anchor="middle">Store</text></g></g></g></g></g><g class="node"><g fill="#000000" stroke="#000000" stroke-width="4"><circle cx="458.14250940175566" cy="101.33973984619928" r="52"/></g><g transform="translate(458.14250940175566 101.33973984619928)"><g transform="scale(0.48046926953125) translate(0 0)"><g transform="translate(0 0)"><g font-family="sans-serif" font-size="50" font-weight="normal" fill="#ffffff" text-anchor="middle"><text xml:space="preserve" x="0" y="-15.5" stroke="none">Event</text><text xml:space="preserve" x="0" y="44.5" stroke="none" text-anchor="middle">Store</text></g></g></g></g></g><g class="node"><g fill="#fe9200" stroke="#000000" stroke-width="4"><circle cx="-406.8781677612288" cy="311.9215897768216" r="52"/></g><g transform="translate(-406.8781677612288 311.9215897768216)"><g transform="scale(0.39062560937499996) translate(0 0)"><g transform="translate(0 0)"><g font-family="sans-serif" font-size="50" font-weight="normal" fill="#000000" text-anchor="middle"><text xml:space="preserve" x="0" y="-45.5" stroke="none">Web</text><text xml:space="preserve" x="0" y="14.5" stroke="none" text-anchor="middle">Gateway</text></g></g></g></g></g></g></svg>