<svg xmlns="http://www.w3.org/2000/svg" width="2106" height="1519" viewBox="0 0 2106 1519"><defs><style type="text/css"/></defs><g transform="translate(949.437752296644 54) scale(1)"><g class="relationship"><g transform="translate(289.5 0) rotate(180)" stroke-width="5" stroke="#000000"><path d="M 59 0 L 205.6378493822517 0"/><polygon points="-24.8621506177483,0 -27.62461179749811,9.20820393249937 0,0 -27.62461179749811,-9.20820393249937" fill="#000000" transform="translate(230.5 0) rotate(0)" stroke="none"/></g><g transform="translate(157.18107530887414 1.6204394758960695e-14) rotate(360) translate(0 -13)"><g transform="translate(0 0)"><g transform="translate(-30.28333282470703 0)" fill="#ffffff" stroke="#000000" stroke-width="0"><rect x="0" y="0" width="60.56666564941406" height="26" rx="5" ry="5" stroke="none"/><text xml:space="preserve" x="5" y="17.5" stroke="none" text-anchor="left" font-family="sans-serif" font-size="16" font-weight="normal" fill="#000000">OWNS</text></g></g></g></g><g class="relationship"><g transform="translate(579 0) rotate(180)" stroke-width="5" stroke="#000000"><path d="M 59 0 L 205.6378493822517 0"/><polygon points="-24.8621506177483,0 -27.62461179749811,9.20820393249937 0,0 -27.62461179749811,-9.20820393249937" fill="#000000" transform="translate(230.5 0) rotate(0)" stroke="none"/></g><g transform="translate(446.68107530887414 1.6204394758960695e-14) rotate(360) translate(0 -13)"><g transform="translate(0 0)"><g transform="translate(-55.58333206176758 0)" fill="#ffffff" stroke="#000000" stroke-width="0"><rect x="0" y="0" width="111.16666412353516" height="26" rx="5" ry="5" stroke="none"/><text xml:space="preserve" x="5" y="17.5" stroke="none" text-anchor="left" font-family="sans-serif" font-size="16" font-weight="normal" fill="#000000">WORKS_FOR</text></g></g></g></g><g class="relationship"><g transform="translate(-176.43168086770532 1048.560370072016) rotate(-65.21984556182275)" stroke-width="5" stroke="#000000"><path d="M 59 0 L 337.0775794849051 0"/><polygon points="-24.8621506177483,0 -27.62461179749811,9.20820393249937 0,0 -27.62461179749811,-9.20820393249937" fill="#000000" transform="translate(361.93973010265336 0) rotate(0)" stroke="none"/></g><g transform="translate(-93.42617187774566 868.756455431725) rotate(-65.21984556182275) translate(0 -13)"><g transform="translate(0 0)"><g transform="translate(-39.54999923706055 0)" fill="#ffffff" stroke="#000000" stroke-width="0"><rect x="0" y="0" width="79.0999984741211" height="26" rx="5" ry="5" stroke="none"/><text xml:space="preserve" x="5" y="17.5" stroke="none" text-anchor="left" font-family="sans-serif" font-size="16" font-weight="normal" fill="#000000">PART_OF</text></g></g></g></g><g class="relationship"><g transform="translate(0 1097.8844493108827) rotate(-90)" stroke-width="5" stroke="#000000"><path d="M 59 0 L 347.64266906350497 0"/><polygon points="-24.8621506177483,0 -27.62461179749811,9.20820393249937 0,0 -27.62461179749811,-9.20820393249937" fill="#000000" transform="translate(372.50481968125325 0) rotate(0)" stroke="none"/></g><g transform="translate(1.2449841076633945e-14 894.5631147791303) rotate(90) translate(0 -13)"><g transform="translate(0 0)"><g transform="translate(-39.54999923706055 0)" fill="#ffffff" stroke="#000000" stroke-width="0"><rect x="0" y="0" width="79.0999984741211" height="26" rx="5" ry="5" stroke="none"/><text xml:space="preserve" x="5" y="17.5" stroke="none" text-anchor="left" font-family="sans-serif" font-size="16" font-weight="normal" fill="#000000">PART_OF</text></g></g></g></g><g class="relationship"><g transform="translate(4.950595949249325e-33 666.3796296296294) rotate(-90)" stroke-width="5" stroke="#000000"><path d="M 59 0 L 582.5174790118812 0"/><polygon points="-24.8621506177483,0 -27.62461179749811,9.20820393249937 0,0 -27.62461179749811,-9.20820393249937" fill="#000000" transform="translate(607.3796296296294 0) rotate(0)" stroke="none"/></g><g transform="translate(1.964080818172449e-14 345.62089012368887) rotate(90) translate(0 -13)"><g transform="translate(0 0)"><g transform="translate(-48.650001525878906 0)" fill="#ffffff" stroke="#000000" stroke-width="0"><rect x="0" y="0" width="97.30000305175781" height="26" rx="5" ry="5" stroke="none"/><text xml:space="preserve" x="5" y="17.5" stroke="none" text-anchor="left" font-family="sans-serif" font-size="16" font-weight="normal" fill="#000000">RESOURCE</text></g></g></g></g><g class="relationship"><g transform="translate(176.4316808677052 1048.560370072016) rotate(-114.78015443817723)" stroke-width="5" stroke="#000000"><path d="M 59 0 L 337.077579484905 0"/><polygon points="-24.8621506177483,0 -27.62461179749811,9.20820393249937 0,0 -27.62461179749811,-9.20820393249937" fill="#000000" transform="translate(361.9397301026533 0) rotate(0)" stroke="none"/></g><g transform="translate(93.42617187774559 868.756455431725) rotate(65.21984556182275) translate(0 -13)"><g transform="translate(0 0)"><g transform="translate(-39.54999923706055 0)" fill="#ffffff" stroke="#000000" stroke-width="0"><rect x="0" y="0" width="79.0999984741211" height="26" rx="5" ry="5" stroke="none"/><text xml:space="preserve" x="5" y="17.5" stroke="none" text-anchor="left" font-family="sans-serif" font-size="16" font-weight="normal" fill="#000000">PART_OF</text></g></g></g></g><g class="relationship"><g transform="translate(326.5916930352644 931.950942875722) rotate(-140.88336908273243)" stroke-width="5" stroke="#000000"><path d="M 59 0 L 337.077579484905 0"/><polygon points="-24.8621506177483,0 -27.62461179749811,9.20820393249937 0,0 -27.62461179749811,-9.20820393249937" fill="#000000" transform="translate(361.9397301026533 0) rotate(0)" stroke="none"/></g><g transform="translate(172.9406617751134 807.0080645858915) rotate(39.116630917267585) translate(0 -13)"><g transform="translate(0 0)"><g transform="translate(-39.54999923706055 0)" fill="#ffffff" stroke="#000000" stroke-width="0"><rect x="0" y="0" width="79.0999984741211" height="26" rx="5" ry="5" stroke="none"/><text xml:space="preserve" x="5" y="17.5" stroke="none" text-anchor="left" font-family="sans-serif" font-size="16" font-weight="normal" fill="#000000">PART_OF</text></g></g></g></g><g class="relationship"><g transform="translate(0 0) rotate(132.5182359423195)" stroke-width="5" stroke="#000000"><path d="M 59 0 L 298.63784938225183 0"/><polygon points="-24.8621506177483,0 -27.62461179749811,9.20820393249937 0,0 -27.62461179749811,-9.20820393249937" fill="#000000" transform="translate(323.5000000000001 0) rotate(0)" stroke="none"/></g><g transform="translate(-120.85026973522737 131.8006833541213) rotate(312.5182359423195) translate(0 -13)"><g transform="translate(0 0)"><g transform="translate(-49.41666793823242 0)" fill="#ffffff" stroke="#000000" stroke-width="0"><rect x="0" y="0" width="98.83333587646484" height="26" rx="5" ry="5" stroke="none"/><text xml:space="preserve" x="5" y="17.5" stroke="none" text-anchor="left" font-family="sans-serif" font-size="16" font-weight="normal" fill="#000000">PRODUCES</text></g></g></g></g><g class="relationship"><g transform="translate(540.2143543955949 144.7500000000001) rotate(-149.99999999999997)" stroke-width="5" stroke="#000000"><path d="M 59 0 L 205.6378493822517 0"/><polygon points="-24.8621506177483,0 -27.62461179749811,9.20820393249937 0,0 -27.62461179749811,-9.20820393249937" fill="#000000" transform="translate(230.5 0) rotate(0)" stroke="none"/></g><g transform="translate(425.62280421163996 78.59053765443714) rotate(30.000000000000014) translate(0 -13)"><g transform="translate(0 0)"><g transform="translate(-53.099998474121094 0)" fill="#ffffff" stroke="#000000" stroke-width="0"><rect x="0" y="0" width="106.19999694824219" height="26" rx="5" ry="5" stroke="none"/><text xml:space="preserve" x="5" y="17.5" stroke="none" text-anchor="left" font-family="sans-serif" font-size="16" font-weight="normal" fill="#000000">FACILITATES</text></g></g></g></g><g class="relationship"><g transform="translate(-354.053226930641 144.7500000000001) rotate(-22.2365520602955)" stroke-width="5" stroke="#000000"><path d="M 59 0 L 298.6378493822517 0"/><polygon points="-24.8621506177483,0 -27.62461179749811,9.20820393249937 0,0 -27.62461179749811,-9.20820393249937" fill="#000000" transform="translate(323.50000000000006 0) rotate(0)" stroke="none"/></g><g transform="translate(-188.53318164133282 77.07930889139753) rotate(-22.2365520602955) translate(0 -13)"><g transform="translate(0 0)"><g transform="translate(-67.43333435058594 0)" fill="#ffffff" stroke="#000000" stroke-width="0"><rect x="0" y="0" width="134.86666870117188" height="26" rx="5" ry="5" stroke="none"/><text xml:space="preserve" x="5" y="17.5" stroke="none" text-anchor="left" font-family="sans-serif" font-size="16" font-weight="normal" fill="#000000">CHANGE_STATE</text></g></g></g></g><g class="relationship"><g transform="translate(-382.50000000000006 0) rotate(0)" stroke-width="5" stroke="#000000"><path d="M 59 0 L 298.6378493822517 0"/><polygon points="-24.8621506177483,0 -27.62461179749811,9.20820393249937 0,0 -27.62461179749811,-9.20820393249937" fill="#000000" transform="translate(323.50000000000006 0) rotate(0)" stroke="none"/></g><g transform="translate(-203.6810753088742 0) rotate(0) translate(0 -13)"><g transform="translate(0 0)"><g transform="translate(-71.61666870117188 0)" fill="#ffffff" stroke="#000000" stroke-width="0"><rect x="0" y="0" width="143.23333740234375" height="26" rx="5" ry="5" stroke="none"/><text xml:space="preserve" x="5" y="17.5" stroke="none" text-anchor="left" font-family="sans-serif" font-size="16" font-weight="normal" fill="#000000">CURRENT_STATE</text></g></g></g></g><g class="relationship"><g transform="translate(-326.5916930352644 931.950942875722) rotate(-39.116630917267585)" stroke-width="5" stroke="#000000"><path d="M 59 0 L 337.077579484905 0"/><polygon points="-24.8621506177483,0 -27.62461179749811,9.20820393249937 0,0 -27.62461179749811,-9.20820393249937" fill="#000000" transform="translate(361.9397301026533 0) rotate(0)" stroke="none"/></g><g transform="translate(-172.9406617751134 807.0080645858915) rotate(-39.116630917267585) translate(0 -13)"><g transform="translate(0 0)"><g transform="translate(-39.54999923706055 0)" fill="#ffffff" stroke="#000000" stroke-width="0"><rect x="0" y="0" width="79.0999984741211" height="26" rx="5" ry="5" stroke="none"/><text xml:space="preserve" x="5" y="17.5" stroke="none" text-anchor="left" font-family="sans-serif" font-size="16" font-weight="normal" fill="#000000">PART_OF</text></g></g></g></g><g class="relationship"><g transform="translate(419.5304590616274 258.6548466899904) rotate(-116.68950171799032)" stroke-width="5" stroke="#000000"><path d="M 59 0 L 205.6378493822517 0"/><polygon points="-24.8621506177483,0 -27.62461179749811,9.20820393249937 0,0 -27.62461179749811,-9.20820393249937" fill="#000000" transform="translate(230.5 0) rotate(0)" stroke="none"/></g><g transform="translate(360.098712878111 140.43401359787453) rotate(63.310498282009675) translate(0 -13)"><g transform="translate(0 0)"><g transform="translate(-42.516666412353516 0)" fill="#ffffff" stroke="#000000" stroke-width="0"><rect x="0" y="0" width="85.03333282470703" height="26" rx="5" ry="5" stroke="none"/><text xml:space="preserve" x="5" y="17.5" stroke="none" text-anchor="left" font-family="sans-serif" font-size="16" font-weight="normal" fill="#000000">SUPPLIES</text></g></g></g></g><g class="relationship"><g transform="translate(197.16404210340536 1340.4075481378381) rotate(-129.11008139683233)" stroke-width="5" stroke="#000000"><path d="M 59 0 L 228.69362514584654 0"/><polygon points="-24.8621506177483,0 -27.62461179749811,9.20820393249937 0,0 -27.62461179749811,-9.20820393249937" fill="#000000" transform="translate(253.55577576359485 0) rotate(0)" stroke="none"/></g><g transform="translate(106.42369682813523 1228.7917104322755) rotate(50.889918603167665) translate(0 -13)"><g transform="translate(0 0)"><g transform="translate(-48.650001525878906 0)" fill="#ffffff" stroke="#000000" stroke-width="0"><rect x="0" y="0" width="97.30000305175781" height="26" rx="5" ry="5" stroke="none"/><text xml:space="preserve" x="5" y="17.5" stroke="none" text-anchor="left" font-family="sans-serif" font-size="16" font-weight="normal" fill="#000000">RESOURCE</text></g></g></g></g><g class="relationship"><g transform="translate(0 1410.4402250744774) rotate(-90)" stroke-width="5" stroke="#000000"><path d="M 59 0 L 228.69362514584643 0"/><polygon points="-24.8621506177483,0 -27.62461179749811,9.20820393249937 0,0 -27.62461179749811,-9.20820393249937" fill="#000000" transform="translate(253.55577576359474 0) rotate(0)" stroke="none"/></g><g transform="translate(8.808076929248984e-15 1266.5934125015542) rotate(90) translate(0 -13)"><g transform="translate(0 0)"><g transform="translate(-48.650001525878906 0)" fill="#ffffff" stroke="#000000" stroke-width="0"><rect x="0" y="0" width="97.30000305175781" height="26" rx="5" ry="5" stroke="none"/><text xml:space="preserve" x="5" y="17.5" stroke="none" text-anchor="left" font-family="sans-serif" font-size="16" font-weight="normal" fill="#000000">RESOURCE</text></g></g></g></g><g class="relationship"><g transform="translate(-176.43168086770532 1355.882462771023) rotate(-55.63376697628008)" stroke-width="5" stroke="#000000"><path d="M 59 0 L 228.69362514584654 0"/><polygon points="-24.8621506177483,0 -27.62461179749811,9.20820393249937 0,0 -27.62461179749811,-9.20820393249937" fill="#000000" transform="translate(253.55577576359485 0) rotate(0)" stroke="none"/></g><g transform="translate(-95.23294164204333 1237.1446413510869) rotate(-55.63376697628008) translate(0 -13)"><g transform="translate(0 0)"><g transform="translate(-48.650001525878906 0)" fill="#ffffff" stroke="#000000" stroke-width="0"><rect x="0" y="0" width="97.30000305175781" height="26" rx="5" ry="5" stroke="none"/><text xml:space="preserve" x="5" y="17.5" stroke="none" text-anchor="left" font-family="sans-serif" font-size="16" font-weight="normal" fill="#000000">RESOURCE</text></g></g></g></g><g class="relationship"><g transform="translate(-611.0147226659542 1048.560370072016) rotate(0)" stroke-width="5" stroke="#000000"><path d="M 59 0 L 350.7208911805006 0"/><polygon points="-24.8621506177483,0 -27.62461179749811,9.20820393249937 0,0 -27.62461179749811,-9.20820393249937" fill="#000000" transform="translate(375.58304179824887 0) rotate(0)" stroke="none"/></g><g transform="translate(-406.15427707570393 1048.560370072016) rotate(0) translate(0 -13)"><g transform="translate(0 0)"><g transform="translate(-48.650001525878906 0)" fill="#ffffff" stroke="#000000" stroke-width="0"><rect x="0" y="0" width="97.30000305175781" height="26" rx="5" ry="5" stroke="none"/><text xml:space="preserve" x="5" y="17.5" stroke="none" text-anchor="left" font-family="sans-serif" font-size="16" font-weight="normal" fill="#000000">RESOURCE</text></g></g></g></g><g class="relationship"><g transform="translate(-611.0147226659542 931.950942875722) rotate(0)" stroke-width="5" stroke="#000000"><path d="M 59 0 L 200.56087901294146 0"/><polygon points="-24.8621506177483,0 -27.62461179749811,9.20820393249937 0,0 -27.62461179749811,-9.20820393249937" fill="#000000" transform="translate(225.42302963068977 0) rotate(0)" stroke="none"/></g><g transform="translate(-481.2342831594835 931.950942875722) rotate(0) translate(0 -13)"><g transform="translate(0 0)"><g transform="translate(-48.650001525878906 0)" fill="#ffffff" stroke="#000000" stroke-width="0"><rect x="0" y="0" width="97.30000305175781" height="26" rx="5" ry="5" stroke="none"/><text xml:space="preserve" x="5" y="17.5" stroke="none" text-anchor="left" font-family="sans-serif" font-size="16" font-weight="normal" fill="#000000">RESOURCE</text></g></g></g></g><g class="relationship"><g transform="translate(326.5916930352644 931.950942875722) rotate(16.082528823825776)" stroke-width="5" stroke="#000000"><path d="M 59 0 L 337.077579484905 0"/><polygon points="-24.8621506177483,0 -27.62461179749811,9.20820393249937 0,0 -27.62461179749811,-9.20820393249937" fill="#000000" transform="translate(361.9397301026533 0) rotate(0)" stroke="none"/></g><g transform="translate(516.8799715318885 986.8119792261825) rotate(16.082528823825776) translate(0 -13)"><g transform="translate(0 0)"><g transform="translate(-45.66666793823242 0)" fill="#ffffff" stroke="#000000" stroke-width="0"><rect x="0" y="0" width="91.33333587646484" height="26" rx="5" ry="5" stroke="none"/><text xml:space="preserve" x="5" y="17.5" stroke="none" text-anchor="left" font-family="sans-serif" font-size="16" font-weight="normal" fill="#000000">PROVIDES</text></g></g></g></g><g class="relationship"><g transform="translate(176.4316808677052 1048.560370072016) rotate(0)" stroke-width="5" stroke="#000000"><path d="M 59 0 L 470.76355585261194 0"/><polygon points="-24.8621506177483,0 -27.62461179749811,9.20820393249937 0,0 -27.62461179749811,-9.20820393249937" fill="#000000" transform="translate(495.6257064703602 0) rotate(0)" stroke="none"/></g><g transform="translate(441.3134587940112 1048.560370072016) rotate(0) translate(0 -13)"><g transform="translate(0 0)"><g transform="translate(-45.66666793823242 0)" fill="#ffffff" stroke="#000000" stroke-width="0"><rect x="0" y="0" width="91.33333587646484" height="26" rx="5" ry="5" stroke="none"/><text xml:space="preserve" x="5" y="17.5" stroke="none" text-anchor="left" font-family="sans-serif" font-size="16" font-weight="normal" fill="#000000">PROVIDES</text></g></g></g></g><g class="relationship"><g transform="translate(-895.437752296644 931.950942875722) rotate(0)" stroke-width="5" stroke="#000000"><path d="M 59 0 L 200.5608790129415 0"/><polygon points="-24.8621506177483,0 -27.62461179749811,9.20820393249937 0,0 -27.62461179749811,-9.20820393249937" fill="#000000" transform="translate(225.42302963068983 0) rotate(0)" stroke="none"/></g><g transform="translate(-765.6573127901733 931.950942875722) rotate(0) translate(0 -13)"><g transform="translate(0 0)"><g transform="translate(-46.03333282470703 0)" fill="#ffffff" stroke="#000000" stroke-width="0"><rect x="0" y="0" width="92.06666564941406" height="26" rx="5" ry="5" stroke="none"/><text xml:space="preserve" x="5" y="17.5" stroke="none" text-anchor="left" font-family="sans-serif" font-size="16" font-weight="normal" fill="#000000">CONTAINS</text></g></g></g></g><g class="relationship"><g transform="translate(-895.437752296644 1048.560370072016) rotate(0)" stroke-width="5" stroke="#000000"><path d="M 59 0 L 200.5608790129415 0"/><polygon points="-24.8621506177483,0 -27.62461179749811,9.20820393249937 0,0 -27.62461179749811,-9.20820393249937" fill="#000000" transform="translate(225.42302963068983 0) rotate(0)" stroke="none"/></g><g transform="translate(-765.6573127901733 1048.560370072016) rotate(0) translate(0 -13)"><g transform="translate(0 0)"><g transform="translate(-46.03333282470703 0)" fill="#ffffff" stroke="#000000" stroke-width="0"><rect x="0" y="0" width="92.06666564941406" height="26" rx="5" ry="5" stroke="none"/><text xml:space="preserve" x="5" y="17.5" stroke="none" text-anchor="left" font-family="sans-serif" font-size="16" font-weight="normal" fill="#000000">CONTAINS</text></g></g></g></g><g class="relationship"><g transform="translate(0 0) rotate(69.86761342999317)" stroke-width="5" stroke="#000000"><path d="M 59 0 L 379.940242310462 0"/><polygon points="-24.8621506177483,0 -27.62461179749811,9.20820393249937 0,0 -27.62461179749811,-9.20820393249937" fill="#000000" transform="translate(404.8023929282103 0) rotate(0)" stroke="none"/></g><g transform="translate(75.53952301521134 206.06046331726552) rotate(69.86761342999317) translate(0 -13)"><g transform="translate(0 0)"><g transform="translate(-56.983333587646484 0)" fill="#ffffff" stroke="#000000" stroke-width="0"><rect x="0" y="0" width="113.96666717529297" height="26" rx="5" ry="5" stroke="none"/><text xml:space="preserve" x="5" y="17.5" stroke="none" text-anchor="left" font-family="sans-serif" font-size="16" font-weight="normal" fill="#000000">CHRONICLES</text></g></g></g></g><g class="relationship"><g transform="translate(159.63636120804858 435.4639960618873) rotate(124.65684121491927)" stroke-width="5" stroke="#000000"><path d="M 59 0 L 196.86155277357258 0"/><polygon points="-24.8621506177483,0 -27.62461179749811,9.20820393249937 0,0 -27.62461179749811,-9.20820393249937" fill="#000000" transform="translate(221.7237033913209 0) rotate(0)" stroke="none"/></g><g transform="translate(86.88723677647589 540.6963505987192) rotate(304.65684121491927) translate(0 -13)"><g transform="translate(0 0)"><g transform="translate(-41.79999923706055 0)" fill="#ffffff" stroke="#000000" stroke-width="0"><rect x="0" y="0" width="83.5999984741211" height="26" rx="5" ry="5" stroke="none"/><text xml:space="preserve" x="5" y="17.5" stroke="none" text-anchor="left" font-family="sans-serif" font-size="16" font-weight="normal" fill="#000000">INFORMS</text></g></g></g></g><g class="relationship"><g transform="translate(459.5547073751676 435.4639960618873) rotate(180)" stroke-width="5" stroke="#000000"><path d="M 59 0 L 216.0561955493707 0"/><polygon points="-24.8621506177483,0 -27.62461179749811,9.20820393249937 0,0 -27.62461179749811,-9.20820393249937" fill="#000000" transform="translate(240.918346167119 0) rotate(0)" stroke="none"/></g><g transform="translate(322.02660960048223 435.4639960618873) rotate(360) translate(0 -13)"><g transform="translate(0 0)"><g transform="translate(-37.04999923706055 0)" fill="#ffffff" stroke="#000000" stroke-width="0"><rect x="0" y="0" width="74.0999984741211" height="26" rx="5" ry="5" stroke="none"/><text xml:space="preserve" x="5" y="17.5" stroke="none" text-anchor="left" font-family="sans-serif" font-size="16" font-weight="normal" fill="#000000">APPLIES</text></g></g></g></g><g class="relationship"><g transform="translate(459.5547073751676 696.6283216311176) rotate(-138.951148381423)" stroke-width="5" stroke="#000000"><path d="M 59 0 L 313.82845691234 0"/><polygon points="-24.8621506177483,0 -27.62461179749811,9.20820393249937 0,0 -27.62461179749811,-9.20820393249937" fill="#000000" transform="translate(338.69060753008836 0) rotate(0)" stroke="none"/></g><g transform="translate(318.9704289386595 574.2096742468424) rotate(41.048851618577004) translate(0 -13)"><g transform="translate(0 0)"><g transform="translate(-54.03333282470703 0)" fill="#ffffff" stroke="#000000" stroke-width="0"><rect x="0" y="0" width="108.06666564941406" height="26" rx="5" ry="5" stroke="none"/><text xml:space="preserve" x="5" y="17.5" stroke="none" text-anchor="left" font-family="sans-serif" font-size="16" font-weight="normal" fill="#000000">SEQUENCES</text></g></g></g></g><g class="relationship"><g transform="translate(759.4730535422866 435.4639960618873) rotate(180)" stroke-width="5" stroke="#000000"><path d="M 59 0 L 216.0561955493707 0"/><polygon points="-24.8621506177483,0 -27.62461179749811,9.20820393249937 0,0 -27.62461179749811,-9.20820393249937" fill="#000000" transform="translate(240.918346167119 0) rotate(0)" stroke="none"/></g><g transform="translate(621.9449557676012 435.4639960618873) rotate(360) translate(0 -13)"><g transform="translate(0 0)"><g transform="translate(-37.04999923706055 0)" fill="#ffffff" stroke="#000000" stroke-width="0"><rect x="0" y="0" width="74.0999984741211" height="26" rx="5" ry="5" stroke="none"/><text xml:space="preserve" x="5" y="17.5" stroke="none" text-anchor="left" font-family="sans-serif" font-size="16" font-weight="normal" fill="#000000">APPLIES</text></g></g></g></g><g class="relationship"><g transform="translate(1101.6720615072143 0) rotate(90)" stroke-width="5" stroke="#000000"><path d="M 59 0 L 351.60184544413903 0"/><polygon points="-24.8621506177483,0 -27.62461179749811,9.20820393249937 0,0 -27.62461179749811,-9.20820393249937" fill="#000000" transform="translate(376.4639960618873 0) rotate(0)" stroke="none"/></g><g transform="translate(1101.6720615072143 205.30092272206952) rotate(270) translate(0 -13)"><g transform="translate(0 0)"><g transform="translate(-45.016666412353516 0)" fill="#ffffff" stroke="#000000" stroke-width="0"><rect x="0" y="0" width="90.03333282470703" height="26" rx="5" ry="5" stroke="none"/><text xml:space="preserve" x="5" y="17.5" stroke="none" text-anchor="left" font-family="sans-serif" font-size="16" font-weight="normal" fill="#000000">MANAGES</text></g></g></g></g><g class="relationship"><g transform="translate(1101.6720615072143 1048.560370072016) rotate(-90)" stroke-width="5" stroke="#000000"><path d="M 59 0 L 529.2342233923804 0"/><polygon points="-24.8621506177483,0 -27.62461179749811,9.20820393249937 0,0 -27.62461179749811,-9.20820393249937" fill="#000000" transform="translate(554.0963740101287 0) rotate(0)" stroke="none"/></g><g transform="translate(1101.6720615072143 754.4432583758257) rotate(90) translate(0 -13)"><g transform="translate(0 0)"><g transform="translate(-46.266666412353516 0)" fill="#ffffff" stroke="#000000" stroke-width="0"><rect x="0" y="0" width="92.53333282470703" height="26" rx="5" ry="5" stroke="none"/><text xml:space="preserve" x="5" y="17.5" stroke="none" text-anchor="left" font-family="sans-serif" font-size="16" font-weight="normal" fill="#000000">OPERATES</text></g></g></g></g><g class="relationship"><g transform="translate(1101.6720615072143 1048.560370072016) rotate(-119.16801831904436)" stroke-width="5" stroke="#000000"><path d="M 59 0 L 618.2684105149717 0"/><polygon points="-24.8621506177483,0 -27.62461179749811,9.20820393249937 0,0 -27.62461179749811,-9.20820393249937" fill="#000000" transform="translate(643.13056113272 0) rotate(0)" stroke="none"/></g><g transform="translate(936.6311196699039 752.8669266414546) rotate(60.83198168095564) translate(0 -13)"><g transform="translate(0 0)"><g transform="translate(-57.06666564941406 0)" fill="#ffffff" stroke="#000000" stroke-width="0"><rect x="0" y="0" width="114.13333129882812" height="26" rx="5" ry="5" stroke="none"/><text xml:space="preserve" x="5" y="17.5" stroke="none" text-anchor="left" font-family="sans-serif" font-size="16" font-weight="normal" fill="#000000">AUTHORIZES</text></g></g></g></g><g class="relationship"><g transform="translate(759.4730535422866 435.4639960618873) rotate(0)" stroke-width="5" stroke="#000000"><path d="M 59 0 L 258.3368573471794 0"/><polygon points="-24.8621506177483,0 -27.62461179749811,9.20820393249937 0,0 -27.62461179749811,-9.20820393249937" fill="#000000" transform="translate(283.19900796492766 0) rotate(0)" stroke="none"/></g><g transform="translate(918.1414822158763 435.4639960618873) rotate(0) translate(0 -13)"><g transform="translate(0 0)"><g transform="translate(-50.349998474121094 0)" fill="#ffffff" stroke="#000000" stroke-width="0"><rect x="0" y="0" width="100.69999694824219" height="26" rx="5" ry="5" stroke="none"/><text xml:space="preserve" x="5" y="17.5" stroke="none" text-anchor="left" font-family="sans-serif" font-size="16" font-weight="normal" fill="#000000">OWNED_BY</text></g></g></g></g><g class="relationship"><g transform="translate(579 0) rotate(0)" stroke-width="5" stroke="#000000"><path d="M 59 0 L 438.809910889466 0"/><polygon points="-24.8621506177483,0 -27.62461179749811,9.20820393249937 0,0 -27.62461179749811,-9.20820393249937" fill="#000000" transform="translate(463.67206150721427 0) rotate(0)" stroke="none"/></g><g transform="translate(827.904955444733 0) rotate(0) translate(0 -13)"><g transform="translate(0 0)"><g transform="translate(-27.899999618530273 0)" fill="#ffffff" stroke="#000000" stroke-width="0"><rect x="0" y="0" width="55.79999923706055" height="26" rx="5" ry="5" stroke="none"/><text xml:space="preserve" x="5" y="17.5" stroke="none" text-anchor="left" font-family="sans-serif" font-size="16" font-weight="normal" fill="#000000">IS_AN</text></g></g></g></g><g class="relationship"><g transform="translate(-326.5916930352643 666.3796296296294) rotate(-63.89059271270927)" stroke-width="5" stroke="#000000"><path d="M 59 0 L 658.2456210333526 0"/><polygon points="-24.8621506177483,0 -27.62461179749811,9.20820393249937 0,0 -27.62461179749811,-9.20820393249937" fill="#000000" transform="translate(683.1077716511008 0) rotate(0)" stroke="none"/></g><g transform="translate(-168.7665963015097 344.3523651567887) rotate(-63.89059271270927) translate(0 -13)"><g transform="translate(0 0)"><g transform="translate(-48.650001525878906 0)" fill="#ffffff" stroke="#000000" stroke-width="0"><rect x="0" y="0" width="97.30000305175781" height="26" rx="5" ry="5" stroke="none"/><text xml:space="preserve" x="5" y="17.5" stroke="none" text-anchor="left" font-family="sans-serif" font-size="16" font-weight="normal" fill="#000000">RESOURCE</text></g></g></g></g><g class="relationship"><g transform="translate(-611.0147226659542 666.3796296296294) rotate(0)" stroke-width="5" stroke="#000000"><path d="M 59 0 L 200.56087901294157 0"/><polygon points="-24.8621506177483,0 -27.62461179749811,9.20820393249937 0,0 -27.62461179749811,-9.20820393249937" fill="#000000" transform="translate(225.42302963068988 0) rotate(0)" stroke="none"/></g><g transform="translate(-481.2342831594834 666.3796296296294) rotate(0) translate(0 -13)"><g transform="translate(0 0)"><g transform="translate(-48.650001525878906 0)" fill="#ffffff" stroke="#000000" stroke-width="0"><rect x="0" y="0" width="97.30000305175781" height="26" rx="5" ry="5" stroke="none"/><text xml:space="preserve" x="5" y="17.5" stroke="none" text-anchor="left" font-family="sans-serif" font-size="16" font-weight="normal" fill="#000000">RESOURCE</text></g></g></g></g><g class="relationship"><g transform="translate(-258.50299823449535 281.92631999119305) rotate(132.5182359423195)" stroke-width="5" stroke="#000000"><path d="M 59 0 L 437.74005715517546 0"/><polygon points="-24.8621506177483,0 -27.62461179749811,9.20820393249937 0,0 -27.62461179749811,-9.20820393249937" fill="#000000" transform="translate(462.60220777292375 0) rotate(0)" stroke="none"/></g><g transform="translate(-426.35763106820446 464.9904981689361) rotate(312.51823594231956) translate(0 -13)"><g transform="translate(0 0)"><g transform="translate(-54.75 0)" fill="#ffffff" stroke="#000000" stroke-width="0"><rect x="0" y="0" width="109.5" height="26" rx="5" ry="5" stroke="none"/><text xml:space="preserve" x="5" y="17.5" stroke="none" text-anchor="left" font-family="sans-serif" font-size="16" font-weight="normal" fill="#000000">PROJECT_TO</text></g></g></g></g><g class="relationship"><g transform="translate(459.5547073751676 435.4639960618873) rotate(90)" stroke-width="5" stroke="#000000"><path d="M 59 0 L 177.30217495148202 0"/><polygon points="-24.8621506177483,0 -27.62461179749811,9.20820393249937 0,0 -27.62461179749811,-9.20820393249937" fill="#000000" transform="translate(202.1643255692303 0) rotate(0)" stroke="none"/></g><g transform="translate(459.5547073751676 553.6150835376284) rotate(270) translate(0 -13)"><g transform="translate(0 0)"><g transform="translate(-37.04999923706055 0)" fill="#ffffff" stroke="#000000" stroke-width="0"><rect x="0" y="0" width="74.0999984741211" height="26" rx="5" ry="5" stroke="none"/><text xml:space="preserve" x="5" y="17.5" stroke="none" text-anchor="left" font-family="sans-serif" font-size="16" font-weight="normal" fill="#000000">APPLIES</text></g></g></g></g><g class="node"><g fill="#a4dd00" stroke="#000000" stroke-width="4"><circle cx="0" cy="0" r="52"/></g><g transform="translate(0 0)"><g transform="scale(0.4414068085937499) translate(0 0)"><g transform="translate(0 0)"><g font-family="sans-serif" font-size="50" font-weight="normal" fill="#000000" text-anchor="middle"><text xml:space="preserve" x="0" y="14.5" stroke="none">Domain</text></g></g></g></g></g><g class="node"><g fill="#73d8ff" stroke="#000000" stroke-width="4"><circle cx="289.5" cy="0" r="52"/></g><g transform="translate(289.5 0)"><g transform="scale(0.27539134960937495) translate(0 0)"><g transform="translate(0 0)"><g font-family="sans-serif" font-size="50" font-weight="normal" fill="#000000" text-anchor="middle"><text xml:space="preserve" x="0" y="14.5" stroke="none">Organization</text></g></g></g></g></g><g class="node"><g fill="#009ce0" stroke="#000000" stroke-width="4"><circle cx="579" cy="0" r="52"/></g><g transform="translate(579 0)"><g transform="scale(0.5039067460937499) translate(0 0)"><g transform="translate(0 0)"><g font-family="sans-serif" font-size="50" font-weight="normal" fill="#000000" text-anchor="middle"><text xml:space="preserve" x="0" y="14.5" stroke="none">Person</text></g></g></g></g></g><g class="node"><g fill="#aea1ff" stroke="#000000" stroke-width="4"><circle cx="4.950595949249325e-33" cy="666.3796296296294" r="52"/></g><g transform="translate(4.950595949249325e-33 666.3796296296294)"><g transform="scale(0.36523500976562495) translate(0 0)"><g transform="translate(0 0)"><g font-family="sans-serif" font-size="50" font-weight="normal" fill="#000000" text-anchor="middle"><text xml:space="preserve" x="0" y="14.5" stroke="none">Inventory</text></g></g></g></g></g><g class="node"><g fill="#fcc400" stroke="#000000" stroke-width="4"><circle cx="-176.43168086770532" cy="1048.560370072016" r="52"/></g><g transform="translate(-176.43168086770532 1048.560370072016)"><g transform="scale(0.35351627148437503) translate(0 0)"><g transform="translate(0 0)"><g font-family="sans-serif" font-size="50" font-weight="normal" fill="#000000" text-anchor="middle"><text xml:space="preserve" x="0" y="14.5" stroke="none">COMPUTE</text></g></g></g></g></g><g class="node"><g fill="#68bc00" stroke="#000000" stroke-width="4"><circle cx="0" cy="1097.8844493108827" r="52"/></g><g transform="translate(0 1097.8844493108827)"><g transform="scale(0.6328128671875) translate(0 0)"><g transform="translate(0 0)"><g font-family="sans-serif" font-size="50" font-weight="normal" fill="#000000" text-anchor="middle"><text xml:space="preserve" x="0" y="14.5" stroke="none">DATA</text></g></g></g></g></g><g class="node"><g fill="#fda1ff" stroke="#000000" stroke-width="4"><circle cx="176.4316808677052" cy="1048.560370072016" r="52"/></g><g transform="translate(176.4316808677052 1048.560370072016)"><g transform="scale(0.44921930078124994) translate(0 0)"><g transform="translate(0 0)"><g font-family="sans-serif" font-size="50" font-weight="normal" fill="#000000" text-anchor="middle"><text xml:space="preserve" x="0" y="14.5" stroke="none">Product</text></g></g></g></g></g><g class="node"><g fill="#fda1ff" stroke="#000000" stroke-width="4"><circle cx="326.5916930352644" cy="931.950942875722" r="52"/></g><g transform="translate(326.5916930352644 931.950942875722)"><g transform="scale(0.46093803906249997) translate(0 0)"><g transform="translate(0 0)"><g font-family="sans-serif" font-size="50" font-weight="normal" fill="#000000" text-anchor="middle"><text xml:space="preserve" x="0" y="14.5" stroke="none">Service</text></g></g></g></g></g><g class="node"><g fill="#d33115" stroke="#000000" stroke-width="4"><circle cx="-258.50299823449535" cy="281.92631999119305" r="52"/></g><g transform="translate(-258.50299823449535 281.92631999119305)"><g transform="scale(0.5000005) translate(0 0)"><g transform="translate(0 0)"><g font-family="sans-serif" font-size="50" font-weight="normal" fill="#000000" text-anchor="middle"><text xml:space="preserve" x="0" y="14.5" stroke="none">Events</text></g></g></g></g></g><g class="node"><g fill="#009ce0" stroke="#000000" stroke-width="4"><circle cx="540.2143543955949" cy="144.7500000000001" r="52"/></g><g transform="translate(540.2143543955949 144.7500000000001)"><g transform="scale(0.5625004375) translate(0 0)"><g transform="translate(0 0)"><g font-family="sans-serif" font-size="50" font-weight="normal" fill="#000000" text-anchor="middle"><text xml:space="preserve" x="0" y="14.5" stroke="none">Agent</text></g></g></g></g></g><g class="node"><g fill="#d33115" stroke="#000000" stroke-width="4"><circle cx="-354.053226930641" cy="144.7500000000001" r="52"/></g><g transform="translate(-354.053226930641 144.7500000000001)"><g transform="scale(0.31054756445312504) translate(0 0)"><g transform="translate(0 0)"><g font-family="sans-serif" font-size="50" font-weight="normal" fill="#000000" text-anchor="middle"><text xml:space="preserve" x="0" y="14.5" stroke="none">Commands</text></g></g></g></g></g><g class="node"><g fill="#d33115" stroke="#000000" stroke-width="4"><circle cx="-382.50000000000006" cy="0" r="52"/></g><g transform="translate(-382.50000000000006 0)"><g transform="scale(0.546875453125) translate(0 0)"><g transform="translate(0 0)"><g font-family="sans-serif" font-size="50" font-weight="normal" fill="#000000" text-anchor="middle"><text xml:space="preserve" x="0" y="14.5" stroke="none">Query</text></g></g></g></g></g><g class="node"><g fill="#68bc00" stroke="#000000" stroke-width="4"><circle cx="-326.5916930352644" cy="931.950942875722" r="52"/></g><g transform="translate(-326.5916930352644 931.950942875722)"><g transform="scale(0.32226630273437495) translate(0 0)"><g transform="translate(0 0)"><g font-family="sans-serif" font-size="50" font-weight="normal" fill="#000000" text-anchor="middle"><text xml:space="preserve" x="0" y="14.5" stroke="none">Equipment</text></g></g></g></g></g><g class="node"><g fill="#009ce0" stroke="#000000" stroke-width="4"><circle cx="419.5304590616274" cy="258.6548466899904" r="52"/></g><g transform="translate(419.5304590616274 258.6548466899904)"><g transform="scale(0.27539134960937495) translate(0 0)"><g transform="translate(0 0)"><g font-family="sans-serif" font-size="50" font-weight="normal" fill="#000000" text-anchor="middle"><text xml:space="preserve" x="0" y="14.5" stroke="none">Organization</text></g></g></g></g></g><g class="node"><g fill="#68bc00" stroke="#000000" stroke-width="4"><circle cx="197.16404210340536" cy="1340.4075481378381" r="52"/></g><g transform="translate(197.16404210340536 1340.4075481378381)"><g transform="scale(0.36523500976562495) translate(0 0)"><g transform="translate(0 0)"><g font-family="sans-serif" font-size="50" font-weight="normal" fill="#000000" text-anchor="middle"><text xml:space="preserve" x="0" y="14.5" stroke="none">Database</text></g></g></g></g></g><g class="node"><g fill="#68bc00" stroke="#000000" stroke-width="4"><circle cx="0" cy="1410.4402250744774" r="52"/></g><g transform="translate(0 1410.4402250744774)"><g transform="scale(0.337891287109375) translate(0 0)"><g transform="translate(0 0)"><g font-family="sans-serif" font-size="50" font-weight="normal" fill="#000000" text-anchor="middle"><text xml:space="preserve" x="0" y="14.5" stroke="none">Document</text></g></g></g></g></g><g class="node"><g fill="#68bc00" stroke="#000000" stroke-width="4"><circle cx="-176.43168086770532" cy="1355.882462771023" r="52"/></g><g transform="translate(-176.43168086770532 1355.882462771023)"><g transform="scale(0.8671876328125001) translate(0 0)"><g transform="translate(0 0)"><g font-family="sans-serif" font-size="50" font-weight="normal" fill="#000000" text-anchor="middle"><text xml:space="preserve" x="0" y="14.5" stroke="none">File</text></g></g></g></g></g><g class="node"><g fill="#68bc00" stroke="#000000" stroke-width="4"><circle cx="-611.0147226659542" cy="1048.560370072016" r="52"/></g><g transform="translate(-611.0147226659542 1048.560370072016)"><g transform="scale(0.259766365234375) translate(0 0)"><g transform="translate(0 0)"><g font-family="sans-serif" font-size="50" font-weight="normal" fill="#000000" text-anchor="middle"><text xml:space="preserve" x="0" y="14.5" stroke="none">Configuration</text></g></g></g></g></g><g class="node"><g fill="#68bc00" stroke="#000000" stroke-width="4"><circle cx="-611.0147226659542" cy="931.950942875722" r="52"/></g><g transform="translate(-611.0147226659542 931.950942875722)"><g transform="scale(0.259766365234375) translate(0 0)"><g transform="translate(0 0)"><g font-family="sans-serif" font-size="50" font-weight="normal" fill="#000000" text-anchor="middle"><text xml:space="preserve" x="0" y="14.5" stroke="none">Configuration</text></g></g></g></g></g><g class="node"><g fill="#000000" stroke="#000000" stroke-width="4"><circle cx="731.0573873380654" cy="1048.560370072016" r="52"/></g><g transform="translate(731.0573873380654 1048.560370072016)"><g transform="scale(0.146485228515625) translate(0 0)"><g transform="translate(0 0)"><g font-family="sans-serif" font-size="100" font-weight="bold" fill="#ffffff" text-anchor="middle"><text xml:space="preserve" x="0" y="29" stroke="none">Customers</text></g></g></g></g></g><g class="node"><g fill="#0062b1" stroke="#000000" stroke-width="4"><circle cx="-895.437752296644" cy="931.950942875722" r="52"/></g><g transform="translate(-895.437752296644 931.950942875722)"><g transform="scale(0.921875078125) translate(0 0)"><g transform="translate(0 0)"><g font-family="sans-serif" font-size="50" font-weight="bold" fill="#ffffff" text-anchor="middle"><text xml:space="preserve" x="0" y="14.5" stroke="none">git</text></g></g></g></g></g><g class="node"><g fill="#0062b1" stroke="#000000" stroke-width="4"><circle cx="-895.437752296644" cy="1048.560370072016" r="52"/></g><g transform="translate(-895.437752296644 1048.560370072016)"><g transform="scale(0.921875078125) translate(0 0)"><g transform="translate(0 0)"><g font-family="sans-serif" font-size="50" font-weight="bold" fill="#ffffff" text-anchor="middle"><text xml:space="preserve" x="0" y="14.5" stroke="none">git</text></g></g></g></g></g><g class="node"><g fill="#fe9200" stroke="#000000" stroke-width="4"><circle cx="159.63636120804858" cy="435.4639960618873" r="52"/></g><g transform="translate(159.63636120804858 435.4639960618873)"><g transform="scale(0.330078794921875) translate(0 0)"><g transform="translate(0 0)"><g font-family="sans-serif" font-size="50" font-weight="normal" fill="#000000" text-anchor="middle"><text xml:space="preserve" x="0" y="14.5" stroke="none">Messaging</text></g></g></g></g></g><g class="node"><g fill="#a4dd00" stroke="#000000" stroke-width="4"><circle cx="459.5547073751676" cy="435.4639960618873" r="52"/></g><g transform="translate(459.5547073751676 435.4639960618873)"><g transform="scale(0.57421917578125) translate(0 0)"><g transform="translate(0 0)"><g font-family="sans-serif" font-size="50" font-weight="normal" fill="#000000" text-anchor="middle"><text xml:space="preserve" x="0" y="14.5" stroke="none">Policy</text></g></g></g></g></g><g class="node"><g fill="#a4dd00" stroke="#000000" stroke-width="4"><circle cx="459.5547073751676" cy="696.6283216311176" r="52"/></g><g transform="translate(459.5547073751676 696.6283216311176)"><g transform="scale(0.34765690234375) translate(0 0)"><g transform="translate(0 0)"><g font-family="sans-serif" font-size="50" font-weight="normal" fill="#000000" text-anchor="middle"><text xml:space="preserve" x="0" y="14.5" stroke="none">Procedure</text></g></g></g></g></g><g class="node"><g fill="#ffffff" stroke="#000000" stroke-width="4"><circle cx="1101.6720615072143" cy="435.4639960618873" r="52"/></g><g transform="translate(1101.6720615072143 435.4639960618873)"><g transform="scale(0.42578182421875) translate(0 0)"><g transform="translate(0 0)"><g font-family="sans-serif" font-size="50" font-weight="normal" fill="#000000" text-anchor="middle"><text xml:space="preserve" x="0" y="14.5" stroke="none">Account</text></g></g></g></g></g><g class="node"><g fill="#ffffff" stroke="#000000" stroke-width="4"><circle cx="1101.6720615072143" cy="0" r="52"/></g><g transform="translate(1101.6720615072143 0)"><g transform="scale(0.5156254843749999) translate(0 0)"><g transform="translate(0 0)"><g font-family="sans-serif" font-size="50" font-weight="normal" fill="#000000" text-anchor="middle"><text xml:space="preserve" x="0" y="14.5" stroke="none">Owner</text></g></g></g></g></g><g class="node"><g fill="#ffffff" stroke="#000000" stroke-width="4"><circle cx="1101.6720615072143" cy="1048.560370072016" r="52"/></g><g transform="translate(1101.6720615072143 1048.560370072016)"><g transform="scale(0.6953128046874999) translate(0 0)"><g transform="translate(0 0)"><g font-family="sans-serif" font-size="50" font-weight="normal" fill="#000000" text-anchor="middle"><text xml:space="preserve" x="0" y="14.5" stroke="none">User</text></g></g></g></g></g><g class="node"><g fill="#ffffff" stroke="#000000" stroke-width="4"><circle cx="759.4730535422866" cy="435.4639960618873" r="52"/></g><g transform="translate(759.4730535422866 435.4639960618873)"><g transform="scale(0.4765630234375) translate(0 0)"><g transform="translate(0 0)"><g font-family="sans-serif" font-size="50" font-weight="normal" fill="#000000" text-anchor="middle"><text xml:space="preserve" x="0" y="-15.5" stroke="none">User</text><text xml:space="preserve" x="0" y="44.5" stroke="none" text-anchor="middle">Policy</text></g></g></g></g></g><g class="node"><g fill="#aea1ff" stroke="#000000" stroke-width="4"><circle cx="-326.5916930352643" cy="666.3796296296294" r="52"/></g><g transform="translate(-326.5916930352643 666.3796296296294)"><g transform="scale(0.31445381054687493) translate(0 0)"><g transform="translate(0 0)"><g font-family="sans-serif" font-size="50" font-weight="normal" fill="#000000" text-anchor="middle"><text xml:space="preserve" x="0" y="14.5" stroke="none">Accounting</text></g></g></g></g></g><g class="node"><g fill="#fe9200" stroke="#000000" stroke-width="4"><circle cx="-611.0147226659542" cy="666.3796296296294" r="52"/></g><g transform="translate(-611.0147226659542 666.3796296296294)"><g transform="scale(0.3945318554687499) translate(0 0)"><g transform="translate(0 0)"><g font-family="sans-serif" font-size="50" font-weight="normal" fill="#000000" text-anchor="middle"><text xml:space="preserve" x="0" y="14.5" stroke="none">Financial</text><text xml:space="preserve" x="0" y="74.5" stroke="none" text-anchor="middle">Apps</text></g></g></g></g></g></g></svg>