<svg xmlns="http://www.w3.org/2000/svg" width="1070" height="1795" viewBox="0 0 1070 1795"><defs><style type="text/css"/></defs><g transform="translate(436.50000000000006 436.50000000000006) scale(1)"><g class="relationship"><g transform="translate(289.5 0) rotate(180)" stroke-width="5" stroke="#000000"><path d="M 59 0 L 205.6378493822517 0"/><polygon points="-24.8621506177483,0 -27.62461179749811,9.20820393249937 0,0 -27.62461179749811,-9.20820393249937" fill="#000000" transform="translate(230.5 0) rotate(0)" stroke="none"/></g><g transform="translate(157.18107530887414 1.6204394758960695e-14) rotate(360) translate(0 -13)"><g transform="translate(0 0)"><g transform="translate(-30.28333282470703 0)" fill="#ffffff" stroke="#000000" stroke-width="0"><rect x="0" y="0" width="60.56666564941406" height="26" rx="5" ry="5" stroke="none"/><text xml:space="preserve" x="5" y="17.5" stroke="none" text-anchor="left" font-family="sans-serif" font-size="16" font-weight="normal" fill="#000000">OWNS</text></g></g></g></g><g class="relationship"><g transform="translate(579 0) rotate(180)" stroke-width="5" stroke="#000000"><path d="M 59 0 L 205.6378493822517 0"/><polygon points="-24.8621506177483,0 -27.62461179749811,9.20820393249937 0,0 -27.62461179749811,-9.20820393249937" fill="#000000" transform="translate(230.5 0) rotate(0)" stroke="none"/></g><g transform="translate(446.68107530887414 1.6204394758960695e-14) rotate(360) translate(0 -13)"><g transform="translate(0 0)"><g transform="translate(-55.58333206176758 0)" fill="#ffffff" stroke="#000000" stroke-width="0"><rect x="0" y="0" width="111.16666412353516" height="26" rx="5" ry="5" stroke="none"/><text xml:space="preserve" x="5" y="17.5" stroke="none" text-anchor="left" font-family="sans-serif" font-size="16" font-weight="normal" fill="#000000">WORKS_FOR</text></g></g></g></g><g class="relationship"><g transform="translate(0 0) rotate(90)" stroke-width="5" stroke="#000000"><path d="M 58.695178092152055 -5.989663490593891 L 95.96898050729243 -9.793341079425122 A 40 40 0 0 1 100.02976931447472 -10 L 333.1898148148147 -10 L 566.3498603151546 -10 A 40 40 0 0 1 570.410649122337 -9.793341079425124 L 582.9507505499749 -8.51366206436971 L 582.9507505499749 -8.51366206436971"/><polygon points="-24.8621506177483,0 -27.62461179749811,9.20820393249937 0,0 -27.62461179749811,-9.20820393249937" fill="#000000" transform="translate(666.3796296296294 0) rotate(5.826689442008371) translate(-59 0)" stroke="none"/></g><g transform="translate(10.00000000000002 333.1898148148147) rotate(270) translate(0 -13)"><g transform="translate(0 0)"><g transform="translate(-56.983333587646484 0)" fill="#ffffff" stroke="#000000" stroke-width="0"><rect x="0" y="0" width="113.96666717529297" height="26" rx="5" ry="5" stroke="none"/><text xml:space="preserve" x="5" y="17.5" stroke="none" text-anchor="left" font-family="sans-serif" font-size="16" font-weight="normal" fill="#000000">CHRONICLES</text></g></g></g></g><g class="relationship"><g transform="translate(4.950595949249325e-33 666.3796296296294) rotate(-90)" stroke-width="5" stroke="#000000"><path d="M 58.695178092152055 -5.989663490593891 L 95.96898050729243 -9.793341079425122 A 40 40 0 0 1 100.02976931447472 -10 L 333.1898148148147 -10 L 566.3498603151546 -10 A 40 40 0 0 1 570.410649122337 -9.793341079425124 L 582.9507505499749 -8.51366206436971 L 582.9507505499749 -8.51366206436971"/><polygon points="-24.8621506177483,0 -27.62461179749811,9.20820393249937 0,0 -27.62461179749811,-9.20820393249937" fill="#000000" transform="translate(666.3796296296294 0) rotate(5.826689442008371) translate(-59 0)" stroke="none"/></g><g transform="translate(-9.99999999999998 333.1898148148147) rotate(90) translate(0 -13)"><g transform="translate(0 0)"><g transform="translate(-48.650001525878906 0)" fill="#ffffff" stroke="#000000" stroke-width="0"><rect x="0" y="0" width="97.30000305175781" height="26" rx="5" ry="5" stroke="none"/><text xml:space="preserve" x="5" y="17.5" stroke="none" text-anchor="left" font-family="sans-serif" font-size="16" font-weight="normal" fill="#000000">RESOURCE</text></g></g></g></g><g class="relationship"><g transform="translate(3.217478878464117e-14 1048.8796296296277) rotate(-90.00000000000001)" stroke-width="5" stroke="#000000"><path d="M 59 0 L 298.63784938225 0"/><polygon points="-24.8621506177483,0 -27.62461179749811,9.20820393249937 0,0 -27.62461179749811,-9.20820393249937" fill="#000000" transform="translate(323.4999999999983 0) rotate(0)" stroke="none"/></g><g transform="translate(3.418512485979284e-15 870.0607049385028) rotate(89.99999999999999) translate(0 -13)"><g transform="translate(0 0)"><g transform="translate(-39.54999923706055 0)" fill="#ffffff" stroke="#000000" stroke-width="0"><rect x="0" y="0" width="79.0999984741211" height="26" rx="5" ry="5" stroke="none"/><text xml:space="preserve" x="5" y="17.5" stroke="none" text-anchor="left" font-family="sans-serif" font-size="16" font-weight="normal" fill="#000000">PART_OF</text></g></g></g></g><g class="relationship"><g transform="translate(161.72129609927438 1013.0097962163977) rotate(-115.01153877309382)" stroke-width="5" stroke="#000000"><path d="M 59 0 L 298.6378493822515 0"/><polygon points="-24.8621506177483,0 -27.62461179749811,9.20820393249937 0,0 -27.62461179749811,-9.20820393249937" fill="#000000" transform="translate(323.49999999999983 0) rotate(0)" stroke="none"/></g><g transform="translate(86.11651631332042 850.9600350280273) rotate(64.98846122690618) translate(0 -13)"><g transform="translate(0 0)"><g transform="translate(-39.54999923706055 0)" fill="#ffffff" stroke="#000000" stroke-width="0"><rect x="0" y="0" width="79.0999984741211" height="26" rx="5" ry="5" stroke="none"/><text xml:space="preserve" x="5" y="17.5" stroke="none" text-anchor="left" font-family="sans-serif" font-size="16" font-weight="normal" fill="#000000">PART_OF</text></g></g></g></g><g class="relationship"><g transform="translate(293.11100552951416 912.1278512660781) rotate(-140.0230775461876)" stroke-width="5" stroke="#000000"><path d="M 59 0 L 298.6378493822516 0"/><polygon points="-24.8621506177483,0 -27.62461179749811,9.20820393249937 0,0 -27.62461179749811,-9.20820393249937" fill="#000000" transform="translate(323.49999999999994 0) rotate(0)" stroke="none"/></g><g transform="translate(156.08147657808317 797.2404454156566) rotate(39.97692245381238) translate(0 -13)"><g transform="translate(0 0)"><g transform="translate(-39.54999923706055 0)" fill="#ffffff" stroke="#000000" stroke-width="0"><rect x="0" y="0" width="79.0999984741211" height="26" rx="5" ry="5" stroke="none"/><text xml:space="preserve" x="5" y="17.5" stroke="none" text-anchor="left" font-family="sans-serif" font-size="16" font-weight="normal" fill="#000000">PART_OF</text></g></g></g></g><g class="relationship"><g transform="translate(369.52637279019325 765.1546761369489) rotate(-165.03461631928144)" stroke-width="5" stroke="#000000"><path d="M 59 0 L 298.6378493822517 0"/><polygon points="-24.8621506177483,0 -27.62461179749811,9.20820393249937 0,0 -27.62461179749811,-9.20820393249937" fill="#000000" transform="translate(323.5 0) rotate(0)" stroke="none"/></g><g transform="translate(196.77262474482208 718.9772967833416) rotate(14.965383680718569) translate(0 -13)"><g transform="translate(0 0)"><g transform="translate(-39.54999923706055 0)" fill="#ffffff" stroke="#000000" stroke-width="0"><rect x="0" y="0" width="79.0999984741211" height="26" rx="5" ry="5" stroke="none"/><text xml:space="preserve" x="5" y="17.5" stroke="none" text-anchor="left" font-family="sans-serif" font-size="16" font-weight="normal" fill="#000000">PART_OF</text></g></g></g></g><g class="relationship"><g transform="translate(0 0) rotate(157.7634479397045)" stroke-width="5" stroke="#000000"><path d="M 59 0 L 298.6378493822517 0"/><polygon points="-24.8621506177483,0 -27.62461179749811,9.20820393249937 0,0 -27.62461179749811,-9.20820393249937" fill="#000000" transform="translate(323.50000000000006 0) rotate(0)" stroke="none"/></g><g transform="translate(-165.52004528930817 67.67069110860261) rotate(337.76344793970446) translate(0 -13)"><g transform="translate(0 0)"><g transform="translate(-49.41666793823242 0)" fill="#ffffff" stroke="#000000" stroke-width="0"><rect x="0" y="0" width="98.83333587646484" height="26" rx="5" ry="5" stroke="none"/><text xml:space="preserve" x="5" y="17.5" stroke="none" text-anchor="left" font-family="sans-serif" font-size="16" font-weight="normal" fill="#000000">PRODUCES</text></g></g></g></g><g class="relationship"><g transform="translate(540.2143543955949 144.7500000000001) rotate(-149.99999999999997)" stroke-width="5" stroke="#000000"><path d="M 59 0 L 205.6378493822517 0"/><polygon points="-24.8621506177483,0 -27.62461179749811,9.20820393249937 0,0 -27.62461179749811,-9.20820393249937" fill="#000000" transform="translate(230.5 0) rotate(0)" stroke="none"/></g><g transform="translate(425.62280421163996 78.59053765443714) rotate(30.000000000000014) translate(0 -13)"><g transform="translate(0 0)"><g transform="translate(-53.099998474121094 0)" fill="#ffffff" stroke="#000000" stroke-width="0"><rect x="0" y="0" width="106.19999694824219" height="26" rx="5" ry="5" stroke="none"/><text xml:space="preserve" x="5" y="17.5" stroke="none" text-anchor="left" font-family="sans-serif" font-size="16" font-weight="normal" fill="#000000">FACILITATES</text></g></g></g></g><g class="relationship"><g transform="translate(-270.4683438038544 270.46834380385445) rotate(-45.00000000000001)" stroke-width="5" stroke="#000000"><path d="M 59 0 L 298.6378493822517 0"/><polygon points="-24.8621506177483,0 -27.62461179749811,9.20820393249937 0,0 -27.62461179749811,-9.20820393249937" fill="#000000" transform="translate(323.5 0) rotate(0)" stroke="none"/></g><g transform="translate(-144.02426955027275 144.02426955027278) rotate(-45.00000000000001) translate(0 -13)"><g transform="translate(0 0)"><g transform="translate(-67.43333435058594 0)" fill="#ffffff" stroke="#000000" stroke-width="0"><rect x="0" y="0" width="134.86666870117188" height="26" rx="5" ry="5" stroke="none"/><text xml:space="preserve" x="5" y="17.5" stroke="none" text-anchor="left" font-family="sans-serif" font-size="16" font-weight="normal" fill="#000000">CHANGE_STATE</text></g></g></g></g><g class="relationship"><g transform="translate(-382.50000000000006 0) rotate(0)" stroke-width="5" stroke="#000000"><path d="M 59 0 L 298.6378493822517 0"/><polygon points="-24.8621506177483,0 -27.62461179749811,9.20820393249937 0,0 -27.62461179749811,-9.20820393249937" fill="#000000" transform="translate(323.50000000000006 0) rotate(0)" stroke="none"/></g><g transform="translate(-203.6810753088742 0) rotate(0) translate(0 -13)"><g transform="translate(0 0)"><g transform="translate(-71.61666870117188 0)" fill="#ffffff" stroke="#000000" stroke-width="0"><rect x="0" y="0" width="143.23333740234375" height="26" rx="5" ry="5" stroke="none"/><text xml:space="preserve" x="5" y="17.5" stroke="none" text-anchor="left" font-family="sans-serif" font-size="16" font-weight="normal" fill="#000000">CURRENT_STATE</text></g></g></g></g><g class="relationship"><g transform="translate(376.6353377827419 599.6557783223202) rotate(169.95384490762476)" stroke-width="5" stroke="#000000"><path d="M 59 0 L 298.6378493822517 0"/><polygon points="-24.8621506177483,0 -27.62461179749811,9.20820393249937 0,0 -27.62461179749811,-9.20820393249937" fill="#000000" transform="translate(323.5 0) rotate(0)" stroke="none"/></g><g transform="translate(200.5581453566272 630.8492092818591) rotate(349.9538449076247) translate(0 -13)"><g transform="translate(0 0)"><g transform="translate(-39.54999923706055 0)" fill="#ffffff" stroke="#000000" stroke-width="0"><rect x="0" y="0" width="79.0999984741211" height="26" rx="5" ry="5" stroke="none"/><text xml:space="preserve" x="5" y="17.5" stroke="none" text-anchor="left" font-family="sans-serif" font-size="16" font-weight="normal" fill="#000000">PART_OF</text></g></g></g></g><g class="relationship"><g transform="translate(-161.72129609927435 1013.0097962163977) rotate(-64.98846122690618)" stroke-width="5" stroke="#000000"><path d="M 59 0 L 298.6378493822515 0"/><polygon points="-24.8621506177483,0 -27.62461179749811,9.20820393249937 0,0 -27.62461179749811,-9.20820393249937" fill="#000000" transform="translate(323.49999999999983 0) rotate(0)" stroke="none"/></g><g transform="translate(-86.11651631332036 850.9600350280273) rotate(-64.98846122690618) translate(0 -13)"><g transform="translate(0 0)"><g transform="translate(-39.54999923706055 0)" fill="#ffffff" stroke="#000000" stroke-width="0"><rect x="0" y="0" width="79.0999984741211" height="26" rx="5" ry="5" stroke="none"/><text xml:space="preserve" x="5" y="17.5" stroke="none" text-anchor="left" font-family="sans-serif" font-size="16" font-weight="normal" fill="#000000">PART_OF</text></g></g></g></g><g class="relationship"><g transform="translate(419.5304590616274 258.6548466899904) rotate(-116.68950171799032)" stroke-width="5" stroke="#000000"><path d="M 59 0 L 205.6378493822517 0"/><polygon points="-24.8621506177483,0 -27.62461179749811,9.20820393249937 0,0 -27.62461179749811,-9.20820393249937" fill="#000000" transform="translate(230.5 0) rotate(0)" stroke="none"/></g><g transform="translate(360.098712878111 140.43401359787453) rotate(63.310498282009675) translate(0 -13)"><g transform="translate(0 0)"><g transform="translate(-42.516666412353516 0)" fill="#ffffff" stroke="#000000" stroke-width="0"><rect x="0" y="0" width="85.03333282470703" height="26" rx="5" ry="5" stroke="none"/><text xml:space="preserve" x="5" y="17.5" stroke="none" text-anchor="left" font-family="sans-serif" font-size="16" font-weight="normal" fill="#000000">SUPPLIES</text></g></g></g></g><g class="relationship"><g transform="translate(445.6085428317576 1078.296537583022) rotate(-167.04863966519108)" stroke-width="5" stroke="#000000"><path d="M 59 0 L 207.4355106423831 0"/><polygon points="-24.8621506177483,0 -27.62461179749811,9.20820393249937 0,0 -27.62461179749811,-9.20820393249937" fill="#000000" transform="translate(232.2976612601314 0) rotate(0)" stroke="none"/></g><g transform="translate(315.77975666707175 1048.4392668467146) rotate(12.951360334808918) translate(0 -13)"><g transform="translate(0 0)"><g transform="translate(-48.650001525878906 0)" fill="#ffffff" stroke="#000000" stroke-width="0"><rect x="0" y="0" width="97.30000305175781" height="26" rx="5" ry="5" stroke="none"/><text xml:space="preserve" x="5" y="17.5" stroke="none" text-anchor="left" font-family="sans-serif" font-size="16" font-weight="normal" fill="#000000">RESOURCE</text></g></g></g></g><g class="relationship"><g transform="translate(343.1551027399189 1240.9047309198868) rotate(-128.52431983259552)" stroke-width="5" stroke="#000000"><path d="M 59 0 L 207.4355106423832 0"/><polygon points="-24.8621506177483,0 -27.62461179749811,9.20820393249937 0,0 -27.62461179749811,-9.20820393249937" fill="#000000" transform="translate(232.29766126013152 0) rotate(0)" stroke="none"/></g><g transform="translate(260.1808544899079 1136.6826389232165) rotate(51.47568016740447) translate(0 -13)"><g transform="translate(0 0)"><g transform="translate(-48.650001525878906 0)" fill="#ffffff" stroke="#000000" stroke-width="0"><rect x="0" y="0" width="97.30000305175781" height="26" rx="5" ry="5" stroke="none"/><text xml:space="preserve" x="5" y="17.5" stroke="none" text-anchor="left" font-family="sans-serif" font-size="16" font-weight="normal" fill="#000000">RESOURCE</text></g></g></g></g><g class="relationship"><g transform="translate(161.72129609927438 1304.3074574765292) rotate(-90)" stroke-width="5" stroke="#000000"><path d="M 59 0 L 207.43551064238315 0"/><polygon points="-24.8621506177483,0 -27.62461179749811,9.20820393249937 0,0 -27.62461179749811,-9.20820393249937" fill="#000000" transform="translate(232.29766126013146 0) rotate(0)" stroke="none"/></g><g transform="translate(161.72129609927438 1171.0897021553376) rotate(90) translate(0 -13)"><g transform="translate(0 0)"><g transform="translate(-48.650001525878906 0)" fill="#ffffff" stroke="#000000" stroke-width="0"><rect x="0" y="0" width="97.30000305175781" height="26" rx="5" ry="5" stroke="none"/><text xml:space="preserve" x="5" y="17.5" stroke="none" text-anchor="left" font-family="sans-serif" font-size="16" font-weight="normal" fill="#000000">RESOURCE</text></g></g></g></g><g class="relationship"><g transform="translate(-147.4713251659298 1304.3074574765292) rotate(-60.00000000000002)" stroke-width="5" stroke="#000000"><path d="M 59 0 L 211.08049971411154 0"/><polygon points="-24.8621506177483,0 -27.62461179749811,9.20820393249937 0,0 -27.62461179749811,-9.20820393249937" fill="#000000" transform="translate(235.94265033185985 0) rotate(0)" stroke="none"/></g><g transform="translate(-79.95120023740198 1187.359170566921) rotate(-60.00000000000002) translate(0 -13)"><g transform="translate(0 0)"><g transform="translate(-48.650001525878906 0)" fill="#ffffff" stroke="#000000" stroke-width="0"><rect x="0" y="0" width="97.30000305175781" height="26" rx="5" ry="5" stroke="none"/><text xml:space="preserve" x="5" y="17.5" stroke="none" text-anchor="left" font-family="sans-serif" font-size="16" font-weight="normal" fill="#000000">RESOURCE</text></g></g></g></g><g class="relationship"><g transform="translate(-354.053226930641 1205.3417270477644) rotate(-45)" stroke-width="5" stroke="#000000"><path d="M 59 0 L 188.1362744413745 0"/><polygon points="-24.8621506177483,0 -27.62461179749811,9.20820393249937 0,0 -27.62461179749811,-9.20820393249937" fill="#000000" transform="translate(212.99842505912278 0) rotate(0)" stroke="none"/></g><g transform="translate(-266.6773591633032 1117.9658592804267) rotate(-45) translate(0 -13)"><g transform="translate(0 0)"><g transform="translate(-48.650001525878906 0)" fill="#ffffff" stroke="#000000" stroke-width="0"><rect x="0" y="0" width="97.30000305175781" height="26" rx="5" ry="5" stroke="none"/><text xml:space="preserve" x="5" y="17.5" stroke="none" text-anchor="left" font-family="sans-serif" font-size="16" font-weight="normal" fill="#000000">RESOURCE</text></g></g></g></g><g class="relationship"><g transform="translate(0 0) rotate(-90)" stroke-width="5" stroke="#000000"><path d="M 59 0 L 298.6378493822517 0"/><polygon points="-24.8621506177483,0 -27.62461179749811,9.20820393249937 0,0 -27.62461179749811,-9.20820393249937" fill="#000000" transform="translate(323.50000000000006 0) rotate(0)" stroke="none"/></g><g transform="translate(1.0949501187497945e-14 -178.81892469112586) rotate(90) translate(0 -13)"><g transform="translate(0 0)"><g transform="translate(-42.516666412353516 0)" fill="#ffffff" stroke="#000000" stroke-width="0"><rect x="0" y="0" width="85.03333282470703" height="26" rx="5" ry="5" stroke="none"/><text xml:space="preserve" x="5" y="17.5" stroke="none" text-anchor="left" font-family="sans-serif" font-size="16" font-weight="normal" fill="#000000">SUPPLIES</text></g></g></g></g><g class="relationship"><g transform="translate(0 -382.50000000000006) rotate(0)" stroke-width="5" stroke="#000000"><path d="M 59 0 L 235.0656528255001 0"/><polygon points="-24.8621506177483,0 -27.62461179749811,9.20820393249937 0,0 -27.62461179749811,-9.20820393249937" fill="#000000" transform="translate(259.9278034432484 0) rotate(0)" stroke="none"/></g></g><g class="relationship"><g transform="translate(0 0) rotate(-50.17871425671375)" stroke-width="5" stroke="#000000"><path d="M 59 0 L 414.15511194363654 0"/><polygon points="-24.8621506177483,0 -27.62461179749811,9.20820393249937 0,0 -27.62461179749811,-9.20820393249937" fill="#000000" transform="translate(439.0172625613848 0) rotate(0)" stroke="none"/></g><g transform="translate(151.5031022860662 -181.702366487882) rotate(-50.17871425671375) translate(0 -13)"><g transform="translate(0 0)"><g transform="translate(-41.06666564941406 0)" fill="#ffffff" stroke="#000000" stroke-width="0"><rect x="0" y="0" width="82.13333129882812" height="26" rx="5" ry="5" stroke="none"/><text xml:space="preserve" x="5" y="17.5" stroke="none" text-anchor="left" font-family="sans-serif" font-size="16" font-weight="normal" fill="#000000">CREATES</text></g></g></g></g><g class="node"><g fill="#a4dd00" stroke="#000000" stroke-width="4"><circle cx="0" cy="0" r="52"/></g><g transform="translate(0 0)"><g transform="scale(0.4414068085937499) translate(0 0)"><g transform="translate(0 0)"><g font-family="sans-serif" font-size="50" font-weight="normal" fill="#000000" text-anchor="middle"><text xml:space="preserve" x="0" y="14.5" stroke="none">Domain</text></g></g></g></g></g><g class="node"><g fill="#73d8ff" stroke="#000000" stroke-width="4"><circle cx="289.5" cy="0" r="52"/></g><g transform="translate(289.5 0)"><g transform="scale(0.27539134960937495) translate(0 0)"><g transform="translate(0 0)"><g font-family="sans-serif" font-size="50" font-weight="normal" fill="#000000" text-anchor="middle"><text xml:space="preserve" x="0" y="14.5" stroke="none">Organization</text></g></g></g></g></g><g class="node"><g fill="#009ce0" stroke="#000000" stroke-width="4"><circle cx="579" cy="0" r="52"/></g><g transform="translate(579 0)"><g transform="scale(0.5039067460937499) translate(0 0)"><g transform="translate(0 0)"><g font-family="sans-serif" font-size="50" font-weight="normal" fill="#000000" text-anchor="middle"><text xml:space="preserve" x="0" y="14.5" stroke="none">Person</text></g></g></g></g></g><g class="node"><g fill="#aea1ff" stroke="#000000" stroke-width="4"><circle cx="4.950595949249325e-33" cy="666.3796296296294" r="52"/></g><g transform="translate(4.950595949249325e-33 666.3796296296294)"><g transform="scale(0.36523500976562495) translate(0 0)"><g transform="translate(0 0)"><g font-family="sans-serif" font-size="50" font-weight="normal" fill="#000000" text-anchor="middle"><text xml:space="preserve" x="0" y="14.5" stroke="none">Inventory</text></g></g></g></g></g><g class="node"><g fill="#fcc400" stroke="#000000" stroke-width="4"><circle cx="3.217478878464117e-14" cy="1048.8796296296277" r="52"/></g><g transform="translate(3.217478878464117e-14 1048.8796296296277)"><g transform="scale(0.35351627148437503) translate(0 0)"><g transform="translate(0 0)"><g font-family="sans-serif" font-size="50" font-weight="normal" fill="#000000" text-anchor="middle"><text xml:space="preserve" x="0" y="14.5" stroke="none">COMPUTE</text></g></g></g></g></g><g class="node"><g fill="#68bc00" stroke="#000000" stroke-width="4"><circle cx="161.72129609927438" cy="1013.0097962163977" r="52"/></g><g transform="translate(161.72129609927438 1013.0097962163977)"><g transform="scale(0.6328128671875) translate(0 0)"><g transform="translate(0 0)"><g font-family="sans-serif" font-size="50" font-weight="normal" fill="#000000" text-anchor="middle"><text xml:space="preserve" x="0" y="14.5" stroke="none">DATA</text></g></g></g></g></g><g class="node"><g fill="#fda1ff" stroke="#000000" stroke-width="4"><circle cx="293.11100552951416" cy="912.1278512660781" r="52"/></g><g transform="translate(293.11100552951416 912.1278512660781)"><g transform="scale(0.3984381015624999) translate(0 0)"><g transform="translate(0 0)"><g font-family="sans-serif" font-size="50" font-weight="normal" fill="#000000" text-anchor="middle"><text xml:space="preserve" x="0" y="14.5" stroke="none">Products</text></g></g></g></g></g><g class="node"><g fill="#fda1ff" stroke="#000000" stroke-width="4"><circle cx="369.52637279019325" cy="765.1546761369489" r="52"/></g><g transform="translate(369.52637279019325 765.1546761369489)"><g transform="scale(0.41015683984374995) translate(0 0)"><g transform="translate(0 0)"><g font-family="sans-serif" font-size="50" font-weight="normal" fill="#000000" text-anchor="middle"><text xml:space="preserve" x="0" y="14.5" stroke="none">Services</text></g></g></g></g></g><g class="node"><g fill="#d33115" stroke="#000000" stroke-width="4"><circle cx="-354.053226930641" cy="144.7500000000001" r="52"/></g><g transform="translate(-354.053226930641 144.7500000000001)"><g transform="scale(0.5000005) translate(0 0)"><g transform="translate(0 0)"><g font-family="sans-serif" font-size="50" font-weight="normal" fill="#000000" text-anchor="middle"><text xml:space="preserve" x="0" y="14.5" stroke="none">Events</text></g></g></g></g></g><g class="node"><g fill="#009ce0" stroke="#000000" stroke-width="4"><circle cx="540.2143543955949" cy="144.7500000000001" r="52"/></g><g transform="translate(540.2143543955949 144.7500000000001)"><g transform="scale(0.5625004375) translate(0 0)"><g transform="translate(0 0)"><g font-family="sans-serif" font-size="50" font-weight="normal" fill="#000000" text-anchor="middle"><text xml:space="preserve" x="0" y="14.5" stroke="none">Agent</text></g></g></g></g></g><g class="node"><g fill="#d33115" stroke="#000000" stroke-width="4"><circle cx="-270.4683438038544" cy="270.46834380385445" r="52"/></g><g transform="translate(-270.4683438038544 270.46834380385445)"><g transform="scale(0.31054756445312504) translate(0 0)"><g transform="translate(0 0)"><g font-family="sans-serif" font-size="50" font-weight="normal" fill="#000000" text-anchor="middle"><text xml:space="preserve" x="0" y="14.5" stroke="none">Commands</text></g></g></g></g></g><g class="node"><g fill="#d33115" stroke="#000000" stroke-width="4"><circle cx="-382.50000000000006" cy="0" r="52"/></g><g transform="translate(-382.50000000000006 0)"><g transform="scale(0.546875453125) translate(0 0)"><g transform="translate(0 0)"><g font-family="sans-serif" font-size="50" font-weight="normal" fill="#000000" text-anchor="middle"><text xml:space="preserve" x="0" y="14.5" stroke="none">Query</text></g></g></g></g></g><g class="node"><g fill="#fda1ff" stroke="#000000" stroke-width="4"><circle cx="376.6353377827419" cy="599.6557783223202" r="52"/></g><g transform="translate(376.6353377827419 599.6557783223202)"><g transform="scale(0.45312554687499995) translate(0 0)"><g transform="translate(0 0)"><g font-family="sans-serif" font-size="50" font-weight="normal" fill="#000000" text-anchor="middle"><text xml:space="preserve" x="0" y="-15.5" stroke="none">Real</text><text xml:space="preserve" x="0" y="44.5" stroke="none" text-anchor="middle">Estate</text></g></g></g></g></g><g class="node"><g fill="#68bc00" stroke="#000000" stroke-width="4"><circle cx="-161.72129609927435" cy="1013.0097962163977" r="52"/></g><g transform="translate(-161.72129609927435 1013.0097962163977)"><g transform="scale(0.32226630273437495) translate(0 0)"><g transform="translate(0 0)"><g font-family="sans-serif" font-size="50" font-weight="normal" fill="#000000" text-anchor="middle"><text xml:space="preserve" x="0" y="14.5" stroke="none">Equipment</text></g></g></g></g></g><g class="node"><g fill="#009ce0" stroke="#000000" stroke-width="4"><circle cx="419.5304590616274" cy="258.6548466899904" r="52"/></g><g transform="translate(419.5304590616274 258.6548466899904)"><g transform="scale(0.27539134960937495) translate(0 0)"><g transform="translate(0 0)"><g font-family="sans-serif" font-size="50" font-weight="normal" fill="#000000" text-anchor="middle"><text xml:space="preserve" x="0" y="14.5" stroke="none">Organization</text></g></g></g></g></g><g class="node"><g fill="#68bc00" stroke="#000000" stroke-width="4"><circle cx="445.6085428317576" cy="1078.296537583022" r="52"/></g><g transform="translate(445.6085428317576 1078.296537583022)"><g transform="scale(0.330078794921875) translate(0 0)"><g transform="translate(0 0)"><g font-family="sans-serif" font-size="50" font-weight="normal" fill="#000000" text-anchor="middle"><text xml:space="preserve" x="0" y="14.5" stroke="none">Databases</text></g></g></g></g></g><g class="node"><g fill="#68bc00" stroke="#000000" stroke-width="4"><circle cx="343.1551027399189" cy="1240.9047309198868" r="52"/></g><g transform="translate(343.1551027399189 1240.9047309198868)"><g transform="scale(0.30859444140625003) translate(0 0)"><g transform="translate(0 0)"><g font-family="sans-serif" font-size="50" font-weight="normal" fill="#000000" text-anchor="middle"><text xml:space="preserve" x="0" y="14.5" stroke="none">Documents</text></g></g></g></g></g><g class="node"><g fill="#68bc00" stroke="#000000" stroke-width="4"><circle cx="161.72129609927438" cy="1304.3074574765292" r="52"/></g><g transform="translate(161.72129609927438 1304.3074574765292)"><g transform="scale(0.71875028125) translate(0 0)"><g transform="translate(0 0)"><g font-family="sans-serif" font-size="50" font-weight="normal" fill="#000000" text-anchor="middle"><text xml:space="preserve" x="0" y="14.5" stroke="none">Files</text></g></g></g></g></g><g class="node"><g fill="#68bc00" stroke="#000000" stroke-width="4"><circle cx="-147.4713251659298" cy="1304.3074574765292" r="52"/></g><g transform="translate(-147.4713251659298 1304.3074574765292)"><g transform="scale(0.259766365234375) translate(0 0)"><g transform="translate(0 0)"><g font-family="sans-serif" font-size="50" font-weight="normal" fill="#000000" text-anchor="middle"><text xml:space="preserve" x="0" y="14.5" stroke="none">Configuration</text></g></g></g></g></g><g class="node"><g fill="#68bc00" stroke="#000000" stroke-width="4"><circle cx="-354.053226930641" cy="1205.3417270477644" r="52"/></g><g transform="translate(-354.053226930641 1205.3417270477644)"><g transform="scale(0.259766365234375) translate(0 0)"><g transform="translate(0 0)"><g font-family="sans-serif" font-size="50" font-weight="normal" fill="#000000" text-anchor="middle"><text xml:space="preserve" x="0" y="14.5" stroke="none">Configuration</text></g></g></g></g></g><g class="node"><g fill="#fe9200" stroke="#000000" stroke-width="4"><circle cx="0" cy="-382.50000000000006" r="52"/></g><g transform="translate(0 -382.50000000000006)"><g transform="scale(0.32617254882812496) translate(0 0)"><g transform="translate(0 0)"><g font-family="sans-serif" font-size="50" font-weight="normal" fill="#000000" text-anchor="middle"><text xml:space="preserve" x="0" y="14.5" stroke="none">Customers</text></g></g></g></g></g><g class="node"><g fill="#dbdf00" stroke="#000000" stroke-width="4"><circle cx="318.9278034432484" cy="-382.50000000000006" r="52"/></g><g transform="translate(318.9278034432484 -382.50000000000006)"><g transform="scale(0.31640693359374994) translate(0 0)"><g transform="translate(0 0)"><g font-family="sans-serif" font-size="50" font-weight="normal" fill="#000000" text-anchor="middle"><text xml:space="preserve" x="0" y="-45.5" stroke="none">Value</text><text xml:space="preserve" x="0" y="14.5" stroke="none" text-anchor="middle">Proposition</text></g></g></g></g></g></g></svg>