<svg xmlns="http://www.w3.org/2000/svg" width="987" height="1284" viewBox="0 0 987 1284"><defs><style type="text/css"/></defs><g transform="translate(681.5967130214916 54) scale(1)"><g class="relationship"><g transform="translate(-188.2983565107458 0) rotate(0)" stroke-width="5" stroke="#000000"><path d="M 59 0 L 355.4362058929975 0"/><polygon points="-24.8621506177483,0 -27.62461179749811,9.20820393249937 0,0 -27.62461179749811,-9.20820393249937" fill="#000000" transform="translate(380.2983565107458 0) rotate(0)" stroke="none"/></g><g transform="translate(18.919746435752955 0) rotate(0) translate(0 -13)"><g transform="translate(0 0)"><g transform="translate(-21.200000762939453 0)" fill="#ffffff" stroke="#000000" stroke-width="0"><rect x="0" y="0" width="42.400001525878906" height="26" rx="5" ry="5" stroke="none"/><text xml:space="preserve" x="5" y="17.5" stroke="none" text-anchor="left" font-family="sans-serif" font-size="16" font-weight="normal" fill="#000000">1Ge</text></g></g></g></g><g class="relationship"><g transform="translate(251 0) rotate(90)" stroke-width="5" stroke="#000000"><path d="M 59 0 L 84.1378493822517 0"/><polygon points="-24.8621506177483,0 -27.62461179749811,9.20820393249937 0,0 -27.62461179749811,-9.20820393249937" fill="#000000" transform="translate(109 0) rotate(0)" stroke="none"/></g></g><g class="relationship"><g transform="translate(251 168) rotate(90)" stroke-width="5" stroke="#000000"><path d="M 59 0 L 84.1378493822517 0"/><polygon points="-24.8621506177483,0 -27.62461179749811,9.20820393249937 0,0 -27.62461179749811,-9.20820393249937" fill="#000000" transform="translate(109 0) rotate(0)" stroke="none"/></g></g><g class="relationship"><g transform="translate(251.00000000000003 336) rotate(90)" stroke-width="5" stroke="#000000"><path d="M 59 0 L 84.1378493822517 0"/><polygon points="-24.8621506177483,0 -27.62461179749811,9.20820393249937 0,0 -27.62461179749811,-9.20820393249937" fill="#000000" transform="translate(109 0) rotate(0)" stroke="none"/></g></g><g class="relationship"><g transform="translate(251 672) rotate(90)" stroke-width="5" stroke="#000000"><path d="M 59 0 L 84.13784938225193 0"/><polygon points="-24.8621506177483,0 -27.62461179749811,9.20820393249937 0,0 -27.62461179749811,-9.20820393249937" fill="#000000" transform="translate(109.00000000000023 0) rotate(0)" stroke="none"/></g></g><g class="relationship"><g transform="translate(251 840.0000000000002) rotate(90)" stroke-width="5" stroke="#000000"><path d="M 59 0 L 84.1378493822517 0"/><polygon points="-24.8621506177483,0 -27.62461179749811,9.20820393249937 0,0 -27.62461179749811,-9.20820393249937" fill="#000000" transform="translate(109 0) rotate(0)" stroke="none"/></g></g><g class="relationship"><g transform="translate(251 1008.0000000000002) rotate(90)" stroke-width="5" stroke="#000000"><path d="M 59 0 L 84.13784938225079 0"/><polygon points="-24.8621506177483,0 -27.62461179749811,9.20820393249937 0,0 -27.62461179749811,-9.20820393249937" fill="#000000" transform="translate(108.99999999999909 0) rotate(0)" stroke="none"/></g></g><g class="relationship"><g transform="translate(251.00000000000003 504) rotate(90.00000000000001)" stroke-width="5" stroke="#000000"><path d="M 59 0 L 84.1378493822517 0"/><polygon points="-24.8621506177483,0 -27.62461179749811,9.20820393249937 0,0 -27.62461179749811,-9.20820393249937" fill="#000000" transform="translate(109 0) rotate(0)" stroke="none"/></g></g><g class="relationship"><g transform="translate(-188.2983565107458 0) rotate(20.92825460482061)" stroke-width="5" stroke="#000000"><path d="M 59 0 L 386.4643806698693 0"/><polygon points="-24.8621506177483,0 -27.62461179749811,9.20820393249937 0,0 -27.62461179749811,-9.20820393249937" fill="#000000" transform="translate(411.32653128761757 0) rotate(0)" stroke="none"/></g><g transform="translate(19.739843861029442 79.55963673541153) rotate(20.92825460482061) translate(0 -13)"><g transform="translate(0 0)"><g transform="translate(-21.200000762939453 0)" fill="#ffffff" stroke="#000000" stroke-width="0"><rect x="0" y="0" width="42.400001525878906" height="26" rx="5" ry="5" stroke="none"/><text xml:space="preserve" x="5" y="17.5" stroke="none" text-anchor="left" font-family="sans-serif" font-size="16" font-weight="normal" fill="#000000">1Ge</text></g></g></g></g><g class="relationship"><g transform="translate(-188.2983565107458 0) rotate(37.41078491047918)" stroke-width="5" stroke="#000000"><path d="M 59 0 L 469.20117851648604 0"/><polygon points="-24.8621506177483,0 -27.62461179749811,9.20820393249937 0,0 -27.62461179749811,-9.20820393249937" fill="#000000" transform="translate(494.0633291342343 0) rotate(0)" stroke="none"/></g><g transform="translate(21.47681516133349 160.44780645587167) rotate(37.41078491047918) translate(0 -13)"><g transform="translate(0 0)"><g transform="translate(-26.28333282470703 0)" fill="#ffffff" stroke="#000000" stroke-width="0"><rect x="0" y="0" width="52.56666564941406" height="26" rx="5" ry="5" stroke="none"/><text xml:space="preserve" x="5" y="17.5" stroke="none" text-anchor="left" font-family="sans-serif" font-size="16" font-weight="normal" fill="#000000">10Ge</text></g></g></g></g><g class="relationship"><g transform="translate(-188.2983565107458 0) rotate(48.92382089527854)" stroke-width="5" stroke="#000000"><path d="M 59 0 L 584.7177219726867 0"/><polygon points="-24.8621506177483,0 -27.62461179749811,9.20820393249937 0,0 -27.62461179749811,-9.20820393249937" fill="#000000" transform="translate(609.579872590435 0) rotate(0)" stroke="none"/></g><g transform="translate(23.18283587378255 242.6290000454282) rotate(48.92382089527854) translate(0 -13)"><g transform="translate(0 0)"><g transform="translate(-26.28333282470703 0)" fill="#ffffff" stroke="#000000" stroke-width="0"><rect x="0" y="0" width="52.56666564941406" height="26" rx="5" ry="5" stroke="none"/><text xml:space="preserve" x="5" y="17.5" stroke="none" text-anchor="left" font-family="sans-serif" font-size="16" font-weight="normal" fill="#000000">10Ge</text></g></g></g></g><g class="relationship"><g transform="translate(-188.2983565107458 1175.9999999999993) rotate(0)" stroke-width="5" stroke="#000000"><path d="M 59 0 L 355.4362058929975 0"/><polygon points="-24.8621506177483,0 -27.62461179749811,9.20820393249937 0,0 -27.62461179749811,-9.20820393249937" fill="#000000" transform="translate(380.2983565107458 0) rotate(0)" stroke="none"/></g></g><g class="relationship"><g transform="translate(-188.2983565107458 1175.9999999999993) rotate(180)" stroke-width="5" stroke="#000000"><path d="M 59 0 L 355.4362058929975 0"/><polygon points="-24.8621506177483,0 -27.62461179749811,9.20820393249937 0,0 -27.62461179749811,-9.20820393249937" fill="#000000" transform="translate(380.2983565107458 0) rotate(0)" stroke="none"/></g></g><g class="relationship"><g transform="translate(-188.2983565107458 1008.0000000000002) rotate(0)" stroke-width="5" stroke="#000000"><path d="M 59 0 L 355.4362058929975 0"/><polygon points="-24.8621506177483,0 -27.62461179749811,9.20820393249937 0,0 -27.62461179749811,-9.20820393249937" fill="#000000" transform="translate(380.2983565107458 0) rotate(0)" stroke="none"/></g></g><g class="relationship"><g transform="translate(-188.2983565107458 840.0000000000011) rotate(-1.186214497021993e-13)" stroke-width="5" stroke="#000000"><path d="M 59 0 L 355.4362058929975 0"/><polygon points="-24.8621506177483,0 -27.62461179749811,9.20820393249937 0,0 -27.62461179749811,-9.20820393249937" fill="#000000" transform="translate(380.2983565107458 0) rotate(0)" stroke="none"/></g></g><g class="node"><g fill="#a4dd00" stroke="#000000" stroke-width="4"><circle cx="-188.2983565107458" cy="0" r="52"/></g><g transform="translate(-188.2983565107458 0)"><g transform="scale(0.35156314843750003) translate(0 0)"><g transform="translate(0 0)"><g font-family="sans-serif" font-size="50" font-weight="normal" fill="#000000" text-anchor="middle"><text xml:space="preserve" x="0" y="14.5" stroke="none">vhost-dev</text></g></g></g></g></g><g class="node"><g fill="#aea1ff" stroke="#000000" stroke-width="4"><circle cx="251" cy="0" r="52"/></g><g transform="translate(251 0)"><g transform="scale(0.56640668359375) translate(0 0)"><g transform="translate(0 0)"><g font-family="sans-serif" font-size="50" font-weight="normal" fill="#000000" text-anchor="middle"><text xml:space="preserve" x="0" y="-15.5" stroke="none">port</text><text xml:space="preserve" x="0" y="44.5" stroke="none" text-anchor="middle">1</text></g></g></g></g></g><g class="node"><g fill="#aea1ff" stroke="#000000" stroke-width="4"><circle cx="251" cy="168" r="52"/></g><g transform="translate(251 168)"><g transform="scale(0.56640668359375) translate(0 0)"><g transform="translate(0 0)"><g font-family="sans-serif" font-size="50" font-weight="normal" fill="#000000" text-anchor="middle"><text xml:space="preserve" x="0" y="-15.5" stroke="none">port</text><text xml:space="preserve" x="0" y="44.5" stroke="none" text-anchor="middle">2</text></g></g></g></g></g><g class="node"><g fill="#aea1ff" stroke="#000000" stroke-width="4"><circle cx="251.00000000000003" cy="336" r="52"/></g><g transform="translate(251.00000000000003 336)"><g transform="scale(0.56640668359375) translate(0 0)"><g transform="translate(0 0)"><g font-family="sans-serif" font-size="50" font-weight="normal" fill="#000000" text-anchor="middle"><text xml:space="preserve" x="0" y="-15.5" stroke="none">port</text><text xml:space="preserve" x="0" y="44.5" stroke="none" text-anchor="middle">3</text></g></g></g></g></g><g class="node"><g fill="#aea1ff" stroke="#000000" stroke-width="4"><circle cx="251.00000000000003" cy="504" r="52"/></g><g transform="translate(251.00000000000003 504)"><g transform="scale(0.56640668359375) translate(0 0)"><g transform="translate(0 0)"><g font-family="sans-serif" font-size="50" font-weight="normal" fill="#000000" text-anchor="middle"><text xml:space="preserve" x="0" y="-15.5" stroke="none">port</text><text xml:space="preserve" x="0" y="44.5" stroke="none" text-anchor="middle">4</text></g></g></g></g></g><g class="node"><g fill="#aea1ff" stroke="#000000" stroke-width="4"><circle cx="251" cy="672" r="52"/></g><g transform="translate(251 672)"><g transform="scale(0.56640668359375) translate(0 0)"><g transform="translate(0 0)"><g font-family="sans-serif" font-size="50" font-weight="normal" fill="#000000" text-anchor="middle"><text xml:space="preserve" x="0" y="-15.5" stroke="none">port</text><text xml:space="preserve" x="0" y="44.5" stroke="none" text-anchor="middle">5</text></g></g></g></g></g><g class="node"><g fill="#aea1ff" stroke="#000000" stroke-width="4"><circle cx="251" cy="840.0000000000002" r="52"/></g><g transform="translate(251 840.0000000000002)"><g transform="scale(0.56640668359375) translate(0 0)"><g transform="translate(0 0)"><g font-family="sans-serif" font-size="50" font-weight="normal" fill="#000000" text-anchor="middle"><text xml:space="preserve" x="0" y="-15.5" stroke="none">port</text><text xml:space="preserve" x="0" y="44.5" stroke="none" text-anchor="middle">6</text></g></g></g></g></g><g class="node"><g fill="#aea1ff" stroke="#000000" stroke-width="4"><circle cx="251" cy="1008.0000000000002" r="52"/></g><g transform="translate(251 1008.0000000000002)"><g transform="scale(0.56640668359375) translate(0 0)"><g transform="translate(0 0)"><g font-family="sans-serif" font-size="50" font-weight="normal" fill="#000000" text-anchor="middle"><text xml:space="preserve" x="0" y="-15.5" stroke="none">port</text><text xml:space="preserve" x="0" y="44.5" stroke="none" text-anchor="middle">7</text></g></g></g></g></g><g class="node"><g fill="#aea1ff" stroke="#000000" stroke-width="4"><circle cx="251" cy="1175.9999999999993" r="52"/></g><g transform="translate(251 1175.9999999999993)"><g transform="scale(0.56640668359375) translate(0 0)"><g transform="translate(0 0)"><g font-family="sans-serif" font-size="50" font-weight="normal" fill="#000000" text-anchor="middle"><text xml:space="preserve" x="0" y="-15.5" stroke="none">port</text><text xml:space="preserve" x="0" y="44.5" stroke="none" text-anchor="middle">8</text></g></g></g></g></g><g class="node"><g fill="#f44e3b" stroke="#000000" stroke-width="4"><circle cx="-188.2983565107458" cy="1175.9999999999993" r="52"/></g><g transform="translate(-188.2983565107458 1175.9999999999993)"><g transform="scale(0.546875453125) translate(0 0)"><g transform="translate(0 0)"><g font-family="sans-serif" font-size="50" font-weight="normal" fill="#000000" text-anchor="middle"><text xml:space="preserve" x="0" y="14.5" stroke="none">router</text></g></g></g></g></g><g class="node"><g fill="#73d8ff" stroke="#000000" stroke-width="4"><circle cx="-627.5967130214916" cy="1175.9999999999993" r="52"/></g><g transform="translate(-627.5967130214916 1175.9999999999993)"><g transform="scale(0.46093803906249997) translate(0 0)"><g transform="translate(0 0)"><g font-family="sans-serif" font-size="50" font-weight="normal" fill="#000000" text-anchor="middle"><text xml:space="preserve" x="0" y="14.5" stroke="none">starlink</text></g></g></g></g></g><g class="node"><g fill="#a4dd00" stroke="#000000" stroke-width="4"><circle cx="-188.2983565107458" cy="1008.0000000000002" r="52"/></g><g transform="translate(-188.2983565107458 1008.0000000000002)"><g transform="scale(0.3828131171875) translate(0 0)"><g transform="translate(0 0)"><g font-family="sans-serif" font-size="50" font-weight="normal" fill="#000000" text-anchor="middle"><text xml:space="preserve" x="0" y="14.5" stroke="none">cloudKey</text></g></g></g></g></g><g class="node"><g fill="#f44e3b" stroke="#000000" stroke-width="4"><circle cx="-188.2983565107458" cy="840.0000000000011" r="52"/></g><g transform="translate(-188.2983565107458 840.0000000000011)"><g transform="scale(0.45312554687499995) translate(0 0)"><g transform="translate(0 0)"><g font-family="sans-serif" font-size="50" font-weight="normal" fill="#000000" text-anchor="middle"><text xml:space="preserve" x="0" y="-15.5" stroke="none">dev</text><text xml:space="preserve" x="0" y="44.5" stroke="none" text-anchor="middle">laptop</text></g></g></g></g></g></g></svg>