<svg xmlns="http://www.w3.org/2000/svg" xmlns:xlink="http://www.w3.org/1999/xlink" xmlns:lucid="lucid" width="2481" height="1665.77"><g transform="translate(580.5 101.66666666666669)" lucid:page-tab-id="gHjjwlkrc_Jt"><path d="M434.83 657.9a8 8 0 0 1 8-8h144a8 8 0 0 1 8 8v104a8 8 0 0 1-8 8h-144a8 8 0 0 1-8-8z" stroke="#333" fill="#ff80df"/><use xlink:href="#a" transform="matrix(1,0,0,1,439.8318766822024,654.9092069036496) translate(43.395061728395056 58.55555555555555)"/><path d="M595.83 709.9h102.12" stroke="#333" fill="none"/><path d="M595.85 710.38h-.52v-.95h.5z" stroke="#333" stroke-width=".05" fill="#333"/><path d="M712.7 709.9l-14.25 4.64v-9.27z" stroke="#333" fill="#333"/><path d="M714.83 657.9a8 8 0 0 1 8-8h144a8 8 0 0 1 8 8v104a8 8 0 0 1-8 8h-144a8 8 0 0 1-8-8z" stroke="#333" fill="#6db1ff"/><use xlink:href="#b" transform="matrix(1,0,0,1,719.8318766822024,654.9092069036496) translate(12.358024691358025 58.55555555555555)"/><use xlink:href="#c" transform="matrix(1,0,0,1,719.8318766822024,654.9092069036496) translate(94.18518518518519 58.55555555555555)"/><path d="M515.3 633.02h-.94v-32.6h.95zm0-53.93h-.94v-48.5h.95z" stroke="#333" stroke-width=".05" fill="#333"/><path d="M514.83 647.8l-4.63-14.27h9.27z" fill="#333"/><path d="M514.83 649.33l-5.3-16.28h10.6zM510.85 634l3.98 12.25L518.8 634z" stroke="#333" stroke-width=".05" fill="#333"/><path d="M515.3 530.62h-.94v-.5h.95z" fill="#333"/><path stroke="#333" stroke-width=".05" fill="#333"/><use xlink:href="#d" transform="matrix(1,0,0,1,445.25162976862214,579.0906204242473) translate(0.0049999999999954525 14.222222222222223)"/><use xlink:href="#e" transform="matrix(1,0,0,1,445.25162976862214,579.0906204242473) translate(67.11611111111111 14.222222222222223)"/><path d="M434.83 417.6a8 8 0 0 1 8-8h144a8 8 0 0 1 8 8v104a8 8 0 0 1-8 8h-144a8 8 0 0 1-8-8z" stroke="#333" fill="#54c45e"/><use xlink:href="#f" transform="matrix(1,0,0,1,439.8318766822024,414.6053672781782) translate(58.20987654320987 47.888888888888886)"/><use xlink:href="#g" transform="matrix(1,0,0,1,439.8318766822024,414.6053672781782) translate(38.48148148148148 69.22222222222223)"/><use xlink:href="#h" transform="matrix(1,0,0,1,439.8318766822024,414.6053672781782) translate(72.01234567901236 69.22222222222223)"/><path d="M514.83 770.9v105.43" stroke="#333" fill="none"/><path d="M515.3 770.92h-.94v-.5h.95z" stroke="#333" stroke-width=".05" fill="#333"/><path d="M514.83 891.1l-4.63-14.27h9.27z" stroke="#333" fill="#333"/><path d="M434.83 901.2a8 8 0 0 1 8-8h144a8 8 0 0 1 8 8v104a8 8 0 0 1-8 8h-144a8 8 0 0 1-8-8z" stroke="#333" fill="#6db1ff"/><use xlink:href="#b" transform="matrix(1,0,0,1,439.8318766822024,898.2130465291211) translate(12.358024691358025 58.55555555555555)"/><use xlink:href="#c" transform="matrix(1,0,0,1,439.8318766822024,898.2130465291211) translate(94.18518518518519 58.55555555555555)"/><path d="M433.83 709.9h-102.1" stroke="#333" fill="none"/><path d="M434.33 710.38h-.5v-.95h.5z" stroke="#333" stroke-width=".05" fill="#333"/><path d="M316.95 709.9l14.27-4.63v9.27z" stroke="#333" fill="#333"/><path d="M154.83 657.9a8 8 0 0 1 8-8h144a8 8 0 0 1 8 8v104a8 8 0 0 1-8 8h-144a8 8 0 0 1-8-8z" stroke="#333" fill="#6db1ff"/><use xlink:href="#b" transform="matrix(1,0,0,1,159.8318766822024,654.9092069036496) translate(12.358024691358025 58.55555555555555)"/><use xlink:href="#c" transform="matrix(1,0,0,1,159.8318766822024,654.9092069036496) translate(94.18518518518519 58.55555555555555)"/><path d="M655.3 367.08h-140v41.53h-.94v-42.47h140V345.3h.95zm0-43.12h-.94V290.3h.95z" stroke="#333" stroke-width=".05" fill="#333"/><path d="M515.3 409.1h-.94v-.5h.95z" fill="#333"/><path stroke="#333" stroke-width=".05" fill="#333"/><path d="M655.3 290.3h-.94v-.5h.95z" fill="#333"/><path stroke="#333" stroke-width=".05" fill="#333"/><use xlink:href="#i" transform="matrix(1,0,0,1,618.8071853241777,323.9640521951252) translate(0.005000000000002558 14.222222222222223)"/><path d="M574.83 177.3a8 8 0 0 1 8-8h144a8 8 0 0 1 8 8v104a8 8 0 0 1-8 8h-144a8 8 0 0 1-8-8z" stroke="#333" fill="#fcce14"/><use xlink:href="#j" transform="matrix(1,0,0,1,579.8318766822024,174.30152765270674) translate(54.308641975308646 58.55555555555555)"/><path d="M375.3 366.13h140v26.6h-.94v-25.65h-140v-23.4h.95zm0-43.77h-.94V290.3h.95z" stroke="#333" stroke-width=".05" fill="#333"/><path d="M514.83 407.5l-4.63-14.28h9.27z" fill="#333"/><path d="M514.83 409.02l-5.3-16.27h10.6zm-3.98-15.32l3.98 12.25 3.98-12.25z" stroke="#333" stroke-width=".05" fill="#333"/><path d="M375.3 290.3h-.94v-.5h.95z" fill="#333"/><path stroke="#333" stroke-width=".05" fill="#333"/><use xlink:href="#k" transform="matrix(1,0,0,1,338.8071853241777,322.358763240844) translate(0.005000000000002558 14.222222222222223)"/><path d="M294.83 177.3a8 8 0 0 1 8-8h144a8 8 0 0 1 8 8v104a8 8 0 0 1-8 8h-144a8 8 0 0 1-8-8z" stroke="#333" fill="#fcce14"/><use xlink:href="#j" transform="matrix(1,0,0,1,299.8318766822024,174.30152765270674) translate(54.308641975308646 58.55555555555555)"/><path d="M394.83 23.67a8 8 0 0 1 8-8h224a8 8 0 0 1 8 8v52.66a8 8 0 0 1-8 8h-224a8 8 0 0 1-8-8z" stroke="#000" stroke-opacity="0" fill="#fff" fill-opacity="0"/><use xlink:href="#l" transform="matrix(1,0,0,1,399.8318766822024,20.666666666666686) translate(67.27777777777783 37.49999999999999)"/><path d="M736.13 470.08H602.2v-.95h133.93zm227 0H838.7v-.95h124.42z" stroke="#333" stroke-width=".05" fill="#333"/><path d="M609.23 477.24l-12.9-7.63 12.9-7.63z" fill="#333"/><path d="M609.7 478.07l-14.3-8.46 14.3-8.46zm-12.45-8.46l11.5 6.8v-13.6z" stroke="#333" stroke-width=".05" fill="#333"/><path d="M977.88 469.6l-14.26 4.64v-9.27z" fill="#333"/><path d="M979.42 469.6l-16.28 5.3V464.3zm-15.33 4l12.25-4-12.26-3.98z" stroke="#333" stroke-width=".05" fill="#333"/><use xlink:href="#m" transform="matrix(1,0,0,1,736.1348689566797,458.9387006115116) translate(0.005000000000002558 14.222222222222223)"/><path d="M980 417.6a8 8 0 0 1 8-8h144a8 8 0 0 1 8 8v104a8 8 0 0 1-8 8H988a8 8 0 0 1-8-8z" stroke="#333" fill="#9391ff"/><use xlink:href="#n" transform="matrix(1,0,0,1,985,414.6053672781782) translate(30.58024691358024 15.88888888888888)"/><use xlink:href="#o" transform="matrix(1,0,0,1,985,414.6053672781782) translate(57.24691358024691 15.88888888888888)"/><use xlink:href="#p" transform="matrix(1,0,0,1,985,414.6053672781782) translate(75 37.222222222222214)"/><use xlink:href="#q" transform="matrix(1,0,0,1,985,414.6053672781782) translate(19.71604938271605 58.55555555555555)"/><use xlink:href="#r" transform="matrix(1,0,0,1,985,414.6053672781782) translate(75.96296296296296 58.55555555555555)"/><use xlink:href="#s" transform="matrix(1,0,0,1,985,414.6053672781782) translate(33.51851851851851 79.88888888888889)"/><use xlink:href="#r" transform="matrix(1,0,0,1,985,414.6053672781782) translate(62.160493827160494 79.88888888888889)"/><use xlink:href="#t" transform="matrix(1,0,0,1,985,414.6053672781782) translate(6.407407407407405 101.22222222222223)"/><use xlink:href="#u" transform="matrix(1,0,0,1,985,414.6053672781782) translate(89.27160493827161 101.22222222222223)"/><path d="M611.6 535.65l8.52 3.8 10.16 4 12.85 4.47 67.23 18.5 16 4.78 9.88 3.42 7.35 2.9 5.87 2.62 4.9 2.43 4.2 2.3 3.65 2.22 3.23 2.13 2.9 2.1 2.6 2.06 2.36 2.03 2.18 2.03 2 2.04 1.83 2.04 1.7 2.06 1.6 2.1 1.48 2.12 1.38 2.17 1.28 2.22 1.2 2.3 1.12 2.37 1.04 2.47.96 2.58.88 2.7.8 2.86.7 3.04.62 3.22.5 3.46.4 3.72.26 4.04.08 3.92-.95.02-.08-3.9-.25-4-.4-3.7-.5-3.4-.6-3.2-.7-2.97-.8-2.82-.86-2.67-.94-2.54-1.02-2.44-1.1-2.34-1.2-2.26-1.26-2.2-1.35-2.14-1.47-2.1-1.56-2.05-1.68-2.04-1.82-2-1.97-2.02-2.13-2-2.33-2.02-2.58-2.04-2.85-2.07-3.2-2.1-3.6-2.2-4.16-2.3-4.87-2.4-5.85-2.6-7.3-2.9-9.84-3.4-16-4.78-67.23-18.5-12.9-4.47-10.2-4.03-8.56-3.8-3.32-1.65.42-.85z" stroke="#333" stroke-width=".05" fill="#333"/><path d="M795.3 649.4h-.94v-.5l.94-.02z" fill="#333"/><path stroke="#333" stroke-width=".05" fill="#333"/><path d="M609.87 530.14l-4.44 8.14-10.3-10.9z" fill="#333"/><path d="M610.6 529.8l-5.06 9.28-11.76-12.44zm-5.27 7.68l3.8-7-12.65-2.37zM418.56 527.04l-50.6 11.3-26.33 6.68-16 4.8-11.85 4.13-9.44 3.72-7.8 3.47-6.63 3.3-5.7 3.13-5.02 3.03-4.44 2.95-3.98 2.9-3.57 2.82-3.25 2.8-2.96 2.77-2.7 2.76-2.5 2.76-2.28 2.76-2.12 2.8-1.96 2.8-1.8 2.86-1.7 2.9-1.54 2.98-1.43 3.05-1.32 3.14-1.2 3.25-1.1 3.36-1 3.52-.85 3.68-.74 3.87-.6 4.1-.46 4.34-.3 4.65-.08 4.5-.95-.02.1-4.52.28-4.7.47-4.38.6-4.13.75-3.9.87-3.73 1-3.55 1.1-3.42 1.22-3.28 1.34-3.18 1.45-3.1 1.57-3 1.7-2.93 1.83-2.9 1.98-2.85 2.14-2.82 2.32-2.8 2.5-2.78 2.73-2.8 2.98-2.8 3.28-2.8 3.6-2.87 4-2.9 4.5-2.98 5.04-3.05 5.75-3.17 6.66-3.3 7.85-3.48 9.47-3.75 11.9-4.13 16.03-4.82 26.35-6.7 50.63-11.3z" stroke="#333" stroke-width=".05" fill="#333"/><path d="M235.32 648.9v.5h-.96v-.52z" fill="#333"/><path stroke="#333" stroke-width=".05" fill="#333"/><path d="M432.87 523.36l-12.9 7.63-2.03-9.06z" fill="#333"/><path d="M434.37 523.02l-14.73 8.7-2.3-10.32zm-14.1 7.23l11.1-6.56-12.82-1.23z" stroke="#333" stroke-width=".05" fill="#333"/><path d="M417.95 470.23l-15.75.14-42.35 1.74-34.48 2.88-29.34 3.7-25.3 4.26-21.98 4.66-19.23 4.93-16.93 5.1-15.02 5.22-13.36 5.3-11.97 5.3-10.77 5.35-9.74 5.36-8.85 5.35-8.07 5.37-7.38 5.35-6.77 5.37-6.24 5.37-5.76 5.4-5.32 5.44-4.94 5.5-4.58 5.53-4.26 5.6-3.95 5.7-3.68 5.8-3.4 5.9-3.17 6.04-2.9 6.2-2.7 6.38-2.45 6.58-2.2 6.83-2 7.1-1.72 7.38-1.47 7.74-1.2 8.12-.9 8.58-.57 9.08-.2 9.67.04 3.8.32 7.53.6 7.37.93 7.26 1.2 7.17 1.53 7.1 1.8 7.08 2.14 7.04 2.45 7.03 2.8 7.06 3.16 7.1 3.55 7.15 3.98 7.24 4.45 7.33 4.97 7.46 5.52 7.6 6.14 7.74 6.85 7.94 7.64 8.14 8.53 8.36 9.55 8.58 10.68 8.84 11.97 9.08 13.42 9.32 15.03 9.54 16.82 9.7 18.73 9.8 20.7 9.72 22.6 9.5 24.15 8.98 25.07 8.14 24.95 6.97 23.55 5.53 20.92 4 17.5 2.6 14 1.5 10.8.68 7.72.17-.02.95-7.75-.17-10.84-.68-14.02-1.5-17.54-2.6-20.96-4-23.58-5.55-25-6.98-25.1-8.17-24.2-9-22.62-9.5-20.74-9.75-18.77-9.8-16.86-9.73-15.07-9.56-13.46-9.35-12-9.1-10.7-8.87-9.57-8.6-8.57-8.4-7.67-8.16-6.9-7.97-6.17-7.8-5.55-7.62-4.97-7.5-4.46-7.36-4-7.27-3.57-7.2-3.18-7.14-2.82-7.1-2.47-7.08-2.13-7.08-1.82-7.1-1.52-7.15-1.22-7.22-.9-7.3-.63-7.4-.32-7.56-.04-3.85.2-9.7.6-9.12.9-8.62 1.2-8.16 1.48-7.78 1.74-7.43 2-7.12 2.22-6.86 2.46-6.62 2.7-6.42 2.93-6.24 3.18-6.08 3.44-5.94 3.7-5.82 3.97-5.72 4.3-5.64 4.6-5.57 4.96-5.5 5.36-5.47 5.78-5.43 6.27-5.4 6.8-5.4 7.42-5.38 8.08-5.4 8.88-5.37 9.78-5.37 10.8-5.36 12-5.34 13.4-5.3 15.05-5.23 16.96-5.12 19.28-4.93 22.02-4.67 25.33-4.27 29.38-3.7 34.5-2.87 42.4-1.74 15.76-.14z" stroke="#333" stroke-width=".05" fill="#333"/><path d="M434.33 952.74v.95l-.52-.02.03-.95z" fill="#333"/><path stroke="#333" stroke-width=".05" fill="#333"/><path d="M432.7 469.62l-14.2 4.76-.1-9.26z" fill="#333"/><path d="M434.25 469.6l-16.23 5.44-.1-10.57zm-15.3 4.13l12.23-4.1-12.3-3.87zM27.53 361.08l114.32 5.87 94.43 8.83 78.78 10.7 66.2 11.85 55.55 12.37-.2.93-55.53-12.36-66.16-11.84-78.73-10.7-94.4-8.84-114.27-5.87-88.27-1.3.02-.96z" stroke="#333" stroke-width=".05" fill="#333"/><path d="M437.65 410.9l-.83.7-.23.02.2-.93z" fill="#333"/><path stroke="#333" stroke-width=".05" fill="#333"/><path d="M-61.33 364.87l-14.2-4.85 14.34-4.42z" fill="#333"/><path d="M-60.86 365.53l-16.2-5.53 16.36-5.05zM-74 360.05l12.2 4.16.13-7.95z" stroke="#333" stroke-width=".05" fill="#333"/><path d="M-237.64 308a8 8 0 0 1 8-8h144a8 8 0 0 1 8 8v104a8 8 0 0 1-8 8h-144a8 8 0 0 1-8-8z" stroke="#333" fill="#ff80df"/><use xlink:href="#v" transform="matrix(1,0,0,1,-232.63973711312644,305) translate(17.246913580246904 58.55555555555555)"/><use xlink:href="#w" transform="matrix(1,0,0,1,-232.63973711312644,305) translate(50.82716049382716 58.55555555555555)"/><path d="M-238.64 360h-142.12" stroke="#333" stroke-linejoin="round" fill="none"/><path d="M-238.14 360.48h-.52v-.96h.52z" stroke="#333" stroke-width=".05" fill="#333"/><path d="M-395.52 360l14.26-4.63v9.26z" stroke="#333" fill="#333"/><path d="M-557.64 308a8 8 0 0 1 8-8h144a8 8 0 0 1 8 8v104a8 8 0 0 1-8 8h-144a8 8 0 0 1-8-8z" stroke="#333" fill="#9391ff"/><use xlink:href="#x" transform="matrix(1,0,0,1,-552.6397371131264,305) translate(60.67901234567901 58.55555555555555)"/><path d="M433.84 433.1l-12.18-2.72-13.18-2.36-13.8-1.88-14.52-1.37-15.4-.8-16.5-.16-17.8.6-19.5 1.43-21.64 2.53-24.62 3.92-29.02 5.88-36.65 9.06-58.06 17.05L8.12 505.8l-24.58 6.07-17.64 3.58-13.85 2.2-11.42 1.35-3.77.28" stroke="#333" stroke-linejoin="round" fill="none"/><path d="M434.33 432.72v.98l-.6-.14.2-.93z" stroke="#333" stroke-width=".05" fill="#333"/><path d="M-77.88 519.93l14.04-5.26.4 9.26z" stroke="#333" fill="#333"/><path d="M-240 468a8 8 0 0 1 8-8h144a8 8 0 0 1 8 8v104a8 8 0 0 1-8 8h-144a8 8 0 0 1-8-8z" stroke="#333" fill="#ff80df"/><use xlink:href="#v" transform="matrix(1,0,0,1,-234.99999999999994,465) translate(17.246913580246904 58.55555555555555)"/><use xlink:href="#w" transform="matrix(1,0,0,1,-234.99999999999994,465) translate(50.82716049382716 58.55555555555555)"/><path d="M-241 520h-142.12" stroke="#333" stroke-linejoin="round" fill="none"/><path d="M-240.5 520.48h-.5v-.96h.5z" stroke="#333" stroke-width=".05" fill="#333"/><path d="M-397.88 520l14.26-4.63v9.26z" stroke="#333" fill="#333"/><path d="M-560 468a8 8 0 0 1 8-8h144a8 8 0 0 1 8 8v104a8 8 0 0 1-8 8h-144a8 8 0 0 1-8-8z" stroke="#333" fill="#9391ff"/><use xlink:href="#x" transform="matrix(1,0,0,1,-555,465) translate(60.67901234567901 58.55555555555555)"/><path d="M-497.64-21.15a8 8 0 0 1 8-8h404a8 8 0 0 1 8 8v142.3a8 8 0 0 1-8 8h-404a8 8 0 0 1-8-8z" stroke="#000" stroke-opacity="0" fill="#fff" fill-opacity="0"/><use xlink:href="#y" transform="matrix(1,0,0,1,-492.63973711312644,-24.15076382635334) translate(68.44444444444463 82.49999999999999)"/><use xlink:href="#z" transform="matrix(1,0,0,1,-492.63973711312644,-24.15076382635334) translate(177.11111111111114 82.49999999999999)"/><path d="M1040 648a8 8 0 0 1 8-8h144a8 8 0 0 1 8 8v104a8 8 0 0 1-8 8h-144a8 8 0 0 1-8-8z" stroke="#333" fill="#54c45e"/><use xlink:href="#A" transform="matrix(1,0,0,1,1045,645) translate(29.617283950617278 58.55555555555555)"/><use xlink:href="#B" transform="matrix(1,0,0,1,1045,645) translate(68.1358024691358 58.55555555555555)"/><path d="M1120.47 843.12h-.94v-22.45h.94zm0-43.8h-.94v-31.95h.94z" stroke="#333" stroke-width=".05" fill="#333"/><path d="M1127.64 774.4h-15.28l7.64-12.92z" fill="#333"/><path d="M1128.47 774.87h-16.94l8.47-14.32zm-15.27-.95h13.6l-6.8-11.5z" stroke="#333" stroke-width=".05" fill="#333"/><path d="M1120 857.88l-4.63-14.26h9.27z" fill="#333"/><path d="M1120 859.42l-5.3-16.28h10.6zm-3.98-15.33l3.98 12.25 3.98-12.26z" stroke="#333" stroke-width=".05" fill="#333"/><use xlink:href="#m" transform="matrix(1,0,0,1,1068.716049382716,799.3340774455754) translate(0.005000000000002558 14.222222222222223)"/><path d="M1044.66 868a8 8 0 0 1 8-8h144a8 8 0 0 1 8 8v104a8 8 0 0 1-8 8h-144a8 8 0 0 1-8-8z" stroke="#333" fill="#9391ff"/><use xlink:href="#n" transform="matrix(1,0,0,1,1049.6624108520723,865) translate(30.58024691358024 15.88888888888888)"/><use xlink:href="#o" transform="matrix(1,0,0,1,1049.6624108520723,865) translate(57.24691358024691 15.88888888888888)"/><use xlink:href="#p" transform="matrix(1,0,0,1,1049.6624108520723,865) translate(75 37.222222222222214)"/><use xlink:href="#q" transform="matrix(1,0,0,1,1049.6624108520723,865) translate(19.71604938271605 58.55555555555555)"/><use xlink:href="#r" transform="matrix(1,0,0,1,1049.6624108520723,865) translate(75.96296296296296 58.55555555555555)"/><use xlink:href="#s" transform="matrix(1,0,0,1,1049.6624108520723,865) translate(33.51851851851851 79.88888888888889)"/><use xlink:href="#r" transform="matrix(1,0,0,1,1049.6624108520723,865) translate(62.160493827160494 79.88888888888889)"/><use xlink:href="#t" transform="matrix(1,0,0,1,1049.6624108520723,865) translate(6.407407407407405 101.22222222222223)"/><use xlink:href="#u" transform="matrix(1,0,0,1,1049.6624108520723,865) translate(89.27160493827161 101.22222222222223)"/><path d="M919.52 603.45l31.56 13.3 27.1 10.08 25.5 8.3 20.5 5.72-.26.9-20.52-5.72-25.54-8.3-27.13-10.1-31.6-13.32-54.06-25.96h2.2zM615.86 498.4l19.28 1.2 18.4 1.93 17.8 2.63 17.5 3.34 17.54 4.12 18 5.03 19.08 6.2 21.27 7.92 11.62 4.9h-2.45l-9.53-4-21.24-7.92-19.03-6.2-17.97-5-17.5-4.12-17.46-3.33-17.76-2.62-18.35-1.93-19.24-1.2-4.1-.1.03-.94z" stroke="#333" stroke-width=".05" fill="#333"/><path d="M611.12 503.4l-14.16-4.92 14.35-4.34z" fill="#333"/><path d="M611.58 504.07l-16.16-5.63 16.38-4.95zm-13.1-5.56l12.18 4.24.17-7.96z" stroke="#333" stroke-width=".05" fill="#333"/><path d="M1038.35 644.97l-14.97.95 2.3-8.98z" fill="#333"/><path d="M1039.84 645.35l-17.08 1.08 2.62-10.24zm-15.84.05l12.86-.8-10.88-6.9z" stroke="#333" stroke-width=".05" fill="#333"/><use xlink:href="#C" transform="matrix(1,0,0,1,761.4438314848843,535.6767947498804) translate(34.52351851851852 14.222222222222223)"/><use xlink:href="#D" transform="matrix(1,0,0,1,761.4438314848843,535.6767947498804) translate(0.005000000000002558 35.55555555555556)"/><use xlink:href="#u" transform="matrix(1,0,0,1,761.4438314848843,535.6767947498804) translate(66.0296913580247 35.55555555555556)"/><path d="M1200.94 699.75l58.47-32.84 19.6-9.8 12.97-5.83 9.92-3.96 8.14-2.85 7-2.13 6.2-1.6 5.63-1.22 5.22-.9 4.9-.63 4.7-.4 4.5-.2h4.44l4.38.16 4.37.36 4.4.54 4.5.76 4.65.97 4.84 1.24 5.1 1.55 5.5 1.9 5.98 2.36 6.65 2.95 3.38 1.68" stroke="#333" stroke-linejoin="round" fill="none"/><path d="M1201.18 700.16l-.68.38v-1.08l.22-.13z" stroke="#333" stroke-width=".05" fill="#333"/><path d="M1419.42 658.8l-14.76-2.65 4.38-8.18z" stroke="#333" fill="#333"/><path d="M1421.35 628.26a8 8 0 0 1 8-8h144a8 8 0 0 1 8 8v104a8 8 0 0 1-8 8h-144a8 8 0 0 1-8-8z" stroke="#333" fill="#ff80df"/><use xlink:href="#v" transform="matrix(1,0,0,1,1426.3507396022221,625.2584430772963) translate(17.246913580246904 58.55555555555555)"/><use xlink:href="#w" transform="matrix(1,0,0,1,1426.3507396022221,625.2584430772963) translate(50.82716049382716 58.55555555555555)"/><path d="M1598.2 679.23l3.8-.56 4.1-.78 3.86-.92 3.7-1.03 3.57-1.16 3.53-1.32 3.53-1.5 3.6-1.7 3.86-2 4.33-2.5 5.58-3.57 23.58-16 4.33-2.5 3.84-2 3.62-1.7 3.53-1.5 3.52-1.3 3.58-1.17 3.7-1.03 3.86-.9 4.1-.8 3.8-.55" stroke="#333" stroke-linejoin="round" fill="none"/><path d="M1583.47 680.16l13.94-5.53.6 9.26zM1717.88 631.82l-13.94 5.53-.58-9.26z" stroke="#333" fill="#333"/><path d="M1720 579.72a8 8 0 0 1 8-8h144a8 8 0 0 1 8 8v104a8 8 0 0 1-8 8h-144a8 8 0 0 1-8-8z" stroke="#333" fill="#9391ff"/><use xlink:href="#x" transform="matrix(1,0,0,1,1724.9996152585302,576.7222915612108) translate(60.67901234567901 58.55555555555555)"/><path d="M1200.97 700.18l12.84 4.9 11.55 4.97 10.18 4.9 9.1 4.87 8.28 4.87 7.65 4.94 7.2 5.1 6.9 5.35 6.88 5.77 7.15 6.57 8.28 8.28 35.18 37.74 5.5 5.03 4.96 4.2 4.77 3.68 4.73 3.36 4.8 3.1 4.98 2.94 5.24 2.8 5.6 2.7 6.05 2.6 6.66 2.55 7.42 2.48 8.4 2.44 1.26.3" stroke="#333" stroke-linejoin="round" fill="none"/><path d="M1201.15 699.74l-.34.9-.3-.13v-1z" stroke="#333" stroke-width=".05" fill="#333"/><path d="M1416.9 839.9l-14.93 1.37 2.05-9.04z" stroke="#333" fill="#333"/><path d="M1419 788.26a8 8 0 0 1 8-8h144a8 8 0 0 1 8 8v104a8 8 0 0 1-8 8h-144a8 8 0 0 1-8-8z" stroke="#333" fill="#ff80df"/><use xlink:href="#v" transform="matrix(1,0,0,1,1423.9904767153487,785.2584430772963) translate(17.246913580246904 58.55555555555555)"/><use xlink:href="#w" transform="matrix(1,0,0,1,1423.9904767153487,785.2584430772963) translate(50.82716049382716 58.55555555555555)"/><path d="M1595.88 840.26h107.24" stroke="#333" stroke-linejoin="round" fill="none"/><path d="M1581.1 840.26l14.28-4.64v9.27zM1717.88 840.26l-14.26 4.63v-9.28z" stroke="#333" fill="#333"/><path d="M1720 780.42a8 8 0 0 1 8-8h144a8 8 0 0 1 8 8v104a8 8 0 0 1-8 8h-144a8 8 0 0 1-8-8z" stroke="#333" fill="#9391ff"/><use xlink:href="#x" transform="matrix(1,0,0,1,1724.9996152585302,777.4207639085041) translate(60.67901234567901 58.55555555555555)"/><path d="M1320-2a8 8 0 0 1 8-8h387.1a8 8 0 0 1 8 8v104a8 8 0 0 1-8 8H1328a8 8 0 0 1-8-8z" stroke="#000" stroke-opacity="0" fill="#fff" fill-opacity="0"/><use xlink:href="#E" transform="matrix(1,0,0,1,1325,-5) translate(61.7222222222224 62.999999999999986)"/><use xlink:href="#F" transform="matrix(1,0,0,1,1325,-5) translate(259.05555555555543 62.999999999999986)"/><path d="M1300 177.3a8 8 0 0 1 8-8h144a8 8 0 0 1 8 8v104a8 8 0 0 1-8 8h-144a8 8 0 0 1-8-8z" stroke="#333" fill="#fcce14"/><use xlink:href="#G" transform="matrix(1,0,0,1,1305,174.30152765270674) translate(7.4691358024691255 47.888888888888886)"/><use xlink:href="#H" transform="matrix(1,0,0,1,1305,174.30152765270674) translate(89.29629629629629 47.888888888888886)"/><use xlink:href="#I" transform="matrix(1,0,0,1,1305,174.30152765270674) translate(60.67901234567901 69.22222222222223)"/><path d="M1300 388a8 8 0 0 1 8-8h144a8 8 0 0 1 8 8v104a8 8 0 0 1-8 8h-144a8 8 0 0 1-8-8z" stroke="#333" fill="#ff80df"/><use xlink:href="#v" transform="matrix(1,0,0,1,1305,385) translate(17.246913580246904 58.55555555555555)"/><use xlink:href="#w" transform="matrix(1,0,0,1,1305,385) translate(50.82716049382716 58.55555555555555)"/><path d="M1191.33 587.23l-15.72 5.44-10.57 4.18-7.76 3.44-5.97 2.95-4.74 2.6-3.85 2.33-3.16 2.1-2.67 1.94-2.25 1.78-1.93 1.67-1.68 1.56-1.44 1.47-1.26 1.4-1.1 1.34-1 1.28-.85 1.24-.76 1.2-.66 1.17-.6 1.13-.52 1.12-.46 1.1-.4 1.08-.36 1.08-.3 1.08-.25 1.07-.2 1.07-.17 1.08-.1 1.1-.08 1.1-.02.66h-.94v-.68l.08-1.15.12-1.14.17-1.12.22-1.1.26-1.12.3-1.1.38-1.13.4-1.12.5-1.14.53-1.16.6-1.17.7-1.2.78-1.24.88-1.26 1-1.32 1.14-1.37 1.3-1.43 1.46-1.5 1.7-1.6 1.95-1.68 2.3-1.8 2.7-1.97 3.2-2.13 3.88-2.34 4.78-2.62 6-2.97 7.8-3.46 10.62-4.2 15.76-5.45 19.8-5.9h3.3zm184.32-71.04l-.23.37-.88 1.26-1 1.32-1.14 1.37-1.3 1.43-1.46 1.5-1.7 1.6-1.95 1.68-2.3 1.8-2.7 1.97-3.2 2.13-3.88 2.34-4.78 2.62-6 2.97-7.8 3.46-10.62 4.2-15.77 5.45-19.25 5.4h-3.52l22.5-6.3 15.7-5.45 10.6-4.18 7.75-3.44 5.97-2.95 4.74-2.6 3.85-2.33 3.16-2.1 2.67-1.94 2.25-1.78 1.93-1.67 1.68-1.56 1.44-1.47 1.26-1.4 1.1-1.34 1-1.28.85-1.24.22-.36z" stroke="#333" stroke-width=".05" fill="#333"/><path d="M1120.5 639l-.03.5h-.94v-.52z" fill="#333"/><path stroke="#333" stroke-width=".05" fill="#333"/><path d="M1379.76 517.04l-8.86-2.72 8.62-12.27z" fill="#333"/><path d="M1380.25 517.7l-10.1-3.12 9.83-14zm-8.6-3.64l7.63 2.34-.2-12.88z" stroke="#333" stroke-width=".05" fill="#333"/><use xlink:href="#J" transform="matrix(1,0,0,1,1194.175960836816,559.0844694128843) translate(0.005000000000002558 14.222222222222223)"/><use xlink:href="#K" transform="matrix(1,0,0,1,1194.175960836816,559.0844694128843) translate(48.400061728395066 14.222222222222223)"/><path d="M1380 379V306.2" stroke="#333" stroke-linejoin="round" fill="none"/><path d="M1380.47 379.5h-.94v-.5h.94z" stroke="#333" stroke-width=".05" fill="#333"/><path d="M1380 291.42l4.63 14.26h-9.27z" stroke="#333" fill="#333"/><path d="M1620 177.3a8 8 0 0 1 8-8h144a8 8 0 0 1 8 8v104a8 8 0 0 1-8 8h-144a8 8 0 0 1-8-8z" stroke="#333" fill="#fcce14"/><use xlink:href="#j" transform="matrix(1,0,0,1,1625,174.30152765270674) translate(54.308641975308646 58.55555555555555)"/><path d="M1476.9 229.3h126.22" stroke="#333" stroke-linejoin="round" fill="none"/><path d="M1462.12 229.3l14.27-4.63v9.27zM1617.88 229.3l-14.26 4.64v-9.27z" stroke="#333" fill="#333"/><path d="M1258.25 1188.3a8 8 0 0 1 8-8h144a8 8 0 0 1 8 8v104a8 8 0 0 1-8 8h-144a8 8 0 0 1-8-8z" stroke="#333" fill="#ff80df"/><use xlink:href="#a" transform="matrix(1,0,0,1,1263.2455166598572,1185.303839506088) translate(43.395061728395056 58.55555555555555)"/><path d="M1419.24 1240.3h102.12" stroke="#333" fill="none"/><path d="M1419.26 1240.78h-.52v-.95h.52z" stroke="#333" stroke-width=".05" fill="#333"/><path d="M1536.13 1240.3l-14.27 4.64v-9.27z" stroke="#333" fill="#333"/><path d="M1538.25 1188.3a8 8 0 0 1 8-8h144a8 8 0 0 1 8 8v104a8 8 0 0 1-8 8h-144a8 8 0 0 1-8-8z" stroke="#333" fill="#6db1ff"/><g><use xlink:href="#b" transform="matrix(1,0,0,1,1543.2455166598572,1185.303839506088) translate(12.358024691358025 58.55555555555555)"/><use xlink:href="#c" transform="matrix(1,0,0,1,1543.2455166598572,1185.303839506088) translate(94.18518518518519 58.55555555555555)"/></g><path d="M1301.67 980.57l6.28 13.33 5.17 12.28 4.45 11.96 3.94 12.14 3.56 12.74 3.24 13.84 2.96 15.52 2.65 18.06 2.3 21.94 1.75 28.2.45 22.83-.95.03-.45-22.8-1.74-28.17-2.3-21.9-2.64-18.02-2.95-15.48-3.23-13.8-3.54-12.7-3.93-12.1-4.44-11.93-5.15-12.24-6.26-13.3-6.22-11.88h1.07zm-107.8-181.06l85.85 141.7 3.82 6.6h-1.1l-3.54-6.1-85.85-141.72-20.6-38.82.83-.44z" stroke="#333" stroke-width=".05" fill="#333"/><path d="M1338.2 1178.18l-4.9-14.17 9.27-.17z" fill="#333"/><path d="M1338.24 1179.72l-5.6-16.17 10.57-.2zm-4.28-15.25l4.22 12.17 3.74-12.33z" stroke="#333" stroke-width=".05" fill="#333"/><path d="M1173.3 760.73l-.85.45-.36-.68h1.06z" fill="#333"/><path stroke="#333" stroke-width=".05" fill="#333"/><g><use xlink:href="#d" transform="matrix(1,0,0,1,1219.6009044132384,947.7889651342946) translate(0.0049999999999954525 14.222222222222223)"/><use xlink:href="#e" transform="matrix(1,0,0,1,1219.6009044132384,947.7889651342946) translate(67.11611111111111 14.222222222222223)"/></g><path d="M1338.25 1301.3v105.42" stroke="#333" fill="none"/><path d="M1338.72 1301.32h-.95v-.52h.95z" stroke="#333" stroke-width=".05" fill="#333"/><path d="M1338.25 1421.5l-4.64-14.28h9.28z" stroke="#333" fill="#333"/><path d="M1258.25 1431.6a8 8 0 0 1 8-8h144a8 8 0 0 1 8 8v104a8 8 0 0 1-8 8h-144a8 8 0 0 1-8-8z" stroke="#333" fill="#6db1ff"/><g><use xlink:href="#b" transform="matrix(1,0,0,1,1263.2455166598572,1428.6076791315595) translate(12.358024691358025 58.55555555555555)"/><use xlink:href="#c" transform="matrix(1,0,0,1,1263.2455166598572,1428.6076791315595) translate(94.18518518518519 58.55555555555555)"/></g><path d="M1257.25 1240.3h-102.12" stroke="#333" fill="none"/><path d="M1257.75 1240.78h-.52v-.95h.52z" stroke="#333" stroke-width=".05" fill="#333"/><path d="M1140.36 1240.3l14.27-4.63v9.27z" stroke="#333" fill="#333"/><path d="M978.25 1188.3a8 8 0 0 1 8-8h144a8 8 0 0 1 8 8v104a8 8 0 0 1-8 8h-144a8 8 0 0 1-8-8z" stroke="#333" fill="#6db1ff"/><g><use xlink:href="#b" transform="matrix(1,0,0,1,983.2455166598572,1185.303839506088) translate(12.358024691358025 58.55555555555555)"/><use xlink:href="#c" transform="matrix(1,0,0,1,983.2455166598572,1185.303839506088) translate(94.18518518518519 58.55555555555555)"/></g><path d="M1210.94 779.3l10.22 14.15 12.25 15.57 15.23 17.74 20.02 21.43 234.68 213.1 62.24 61.32 52.68 56.5-.7.64-52.67-56.48-62.2-61.3-234.7-213.1-20.06-21.5-15.24-17.76-12.28-15.6-10.24-14.2-4.62-7 .8-.5z" stroke="#333" stroke-width=".05" fill="#333"/><path d="M1618.9 1179.8h-1.3l.64-.7z" fill="#333"/><path stroke="#333" stroke-width=".05" fill="#333"/><path d="M1209.6 769.67l-7.84 4.96-3.72-14.53z" fill="#333"/><path d="M1210.4 769.72l-8.94 5.66-4.25-16.58zm-8.35 4.16l6.73-4.26-9.92-8.23z" stroke="#333" stroke-width=".05" fill="#333"/><path d="M1057.97 1179.38l-24.1-37-20.8-35.05-17.22-32.03-13.98-28.8-11.15-25.66-8.77-22.75-6.82-20.16-5.22-17.88-3.92-15.9-2.88-14.2-2.04-12.72-1.34-11.47-.78-10.4-.3-9.44.07-8.64.42-7.94.68-7.32.92-6.78 1.13-6.3 1.3-5.9 1.48-5.53 1.62-5.2 1.76-4.9 1.9-4.66 2.02-4.42 2.14-4.2 2.27-4.04 2.38-3.85 2.53-3.7 2.65-3.58 2.8-3.45 2.92-3.34 3.1-3.24 3.27-3.14 3.46-3.05 3.66-2.97 3.88-2.9 4.14-2.82 4.42-2.74 4.73-2.67 5.08-2.6 5.5-2.5 5.92-2.44 6.45-2.32.8-.25" stroke="#333" stroke-linejoin="round" fill="none"/><path d="M1058.8 1179.8h-1.12l-.12-.17.8-.52z" stroke="#333" stroke-width=".05" fill="#333"/><path d="M1038.22 754.5l-12.46 8.35-2.53-8.92z" stroke="#333" fill="#333"/><path d="M1221.7 745.1l126.32 128.98 23.8 22.52 17.42 15.12 14.1 11.23 11.98 8.76 10.48 7.02 9.37 5.7 108.1 61.94 92.14 55.3 43.7 28.93 28.83 20.88 20.8 16.45 15.73 13.56 12.28 11.5 9.8 10 7.92 8.8 6.52 7.85 5.4 7.1 4.5 6.5 3.8 5.95 3.18 5.53 2.7 5.16 2.3 4.84 1.92 4.58 1.62 4.35 1.35 4.15 1.1 4 .9 3.83.72 3.72.54 3.6.38 3.54.2 3.46.1 3.4-.04 2.22-.18 4.37-.36 4.3-.54 4.27-.72 4.24-.9 4.22-1.08 4.23-1.28 4.25-1.5 4.27-1.7 4.3-1.94 4.38-2.2 4.45-2.5 4.54-2.82 4.63-3.18 4.78-3.58 4.94-4.05 5.1-4.58 5.32-5.2 5.54-5.94 5.8-6.8 6.12-7.82 6.47-9.05 6.85-10.53 7.32-12.38 7.85-14.67 8.45-17.5 9.15-21.17 9.93-25.85 10.85-32.02 11.9-40.4 13.07-155 38.47-4 1.1-1.54.5-.77.28-.45.2-.28.12-.18.1-.12.07-.15.1h-.02l.05.03.08.03.12.04.17.04.23.06.38.07.63.1 1.1.1 2.38.15 6.45.1-.02.95-6.46-.1-2.4-.15-1.16-.12-.65-.1-.4-.07-.3-.07-.2-.05-.16-.04-.13-.05-.18-.07-.2-.1-.17-.15-.18-.25-.05-.32.08-.27.13-.2.18-.18.15-.12.2-.13.17-.1.22-.1.32-.16.48-.2.8-.3 1.6-.5 4.03-1.12 154.98-38.46 40.34-13.07 32-11.88 25.8-10.83 21.13-9.93 17.48-9.13 14.62-8.43 12.34-7.82 10.52-7.3 9-6.84 7.8-6.44 6.77-6.08 5.9-5.78 5.2-5.52 4.55-5.28 4.02-5.07 3.56-4.9 3.15-4.74 2.8-4.62 2.5-4.5 2.18-4.4 1.93-4.34 1.7-4.27 1.47-4.25 1.27-4.2 1.08-4.18.9-4.2.7-4.2.53-4.2.36-4.28.2-4.35.02-2.18-.08-3.37-.2-3.4-.38-3.5-.53-3.57-.7-3.68-.9-3.8-1.1-3.95-1.33-4.12-1.6-4.3-1.92-4.56-2.27-4.8-2.67-5.13-3.17-5.5-3.77-5.94-4.5-6.44-5.37-7.08-6.5-7.83-7.9-8.76-9.75-9.96-12.25-11.48-15.7-13.54-20.78-16.43-28.78-20.86-43.66-28.9-92.1-55.3-108.1-61.93-9.4-5.72-10.53-7.03-12-8.8-14.14-11.25-17.43-15.15-23.84-22.55-126.32-128.96-8.3-7.23.62-.7z" stroke="#333" stroke-width=".05" fill="#333"/><path d="M1418.74 1483.13v.95h-.52l.02-.96z" fill="#333"/><path stroke="#333" stroke-width=".05" fill="#333"/><path d="M1215.64 734.35l-5.96 7.1-7.94-12.73z" fill="#333"/><path d="M1216.43 734.15l-6.8 8.1-9.07-14.52zm-6.7 6.5l5.13-6.1-11.94-4.84z" stroke="#333" stroke-width=".05" fill="#333"/><path d="M332.25-73.17a8 8 0 0 1 8-8h349.17a8 8 0 0 1 8 8v21a8 8 0 0 1-8 8H340.25a8 8 0 0 1-8-8z" stroke="#000" stroke-opacity="0" fill="#fff" fill-opacity="0"/><g><use xlink:href="#L" transform="matrix(1,0,0,1,337.2478150233036,-76.16666666666669) translate(1.0154320987654444 23.11111111111111)"/><use xlink:href="#M" transform="matrix(1,0,0,1,337.2478150233036,-76.16666666666669) translate(61.8425925925926 23.11111111111111)"/><use xlink:href="#N" transform="matrix(1,0,0,1,337.2478150233036,-76.16666666666669) translate(239.5895061728395 23.11111111111111)"/></g><defs><path fill="#333" d="M115-194c53 0 69 39 70 98 0 66-23 100-70 100C84 3 66-7 56-30L54 0H23l1-261h32v101c10-23 28-34 59-34zm-8 174c40 0 45-34 45-75 0-40-5-75-45-74-42 0-51 32-51 76 0 43 10 73 51 73" id="O"/><path fill="#333" d="M100-194c63 0 86 42 84 106H49c0 40 14 67 53 68 26 1 43-12 49-29l28 8c-11 28-37 45-77 45C44 4 14-33 15-96c1-61 26-98 85-98zm52 81c6-60-76-77-97-28-3 7-6 17-6 28h103" id="P"/><path fill="#333" d="M117-194c89-4 53 116 60 194h-32v-121c0-31-8-49-39-48C34-167 62-67 57 0H25l-1-190h30c1 10-1 24 2 32 11-22 29-35 61-36" id="Q"/><path fill="#333" d="M59-47c-2 24 18 29 38 22v24C64 9 27 4 27-40v-127H5v-23h24l9-43h21v43h35v23H59v120" id="R"/><path fill="#333" d="M106-169C34-169 62-67 57 0H25v-261h32l-1 103c12-21 28-36 61-36 89 0 53 116 60 194h-32v-121c2-32-8-49-39-48" id="S"/><path fill="#333" d="M100-194c62-1 85 37 85 99 1 63-27 99-86 99S16-35 15-95c0-66 28-99 85-99zM99-20c44 1 53-31 53-75 0-43-8-75-51-75s-53 32-53 75 10 74 51 75" id="T"/><path fill="#333" d="M135-143c-3-34-86-38-87 0 15 53 115 12 119 90S17 21 10-45l28-5c4 36 97 45 98 0-10-56-113-15-118-90-4-57 82-63 122-42 12 7 21 19 24 35" id="U"/><g id="a"><use transform="matrix(0.04938271604938272,0,0,0.04938271604938272,0,0)" xlink:href="#O"/><use transform="matrix(0.04938271604938272,0,0,0.04938271604938272,9.876543209876544,0)" xlink:href="#P"/><use transform="matrix(0.04938271604938272,0,0,0.04938271604938272,19.75308641975309,0)" xlink:href="#Q"/><use transform="matrix(0.04938271604938272,0,0,0.04938271604938272,29.629629629629633,0)" xlink:href="#R"/><use transform="matrix(0.04938271604938272,0,0,0.04938271604938272,34.567901234567906,0)" xlink:href="#S"/><use transform="matrix(0.04938271604938272,0,0,0.04938271604938272,44.44444444444445,0)" xlink:href="#T"/><use transform="matrix(0.04938271604938272,0,0,0.04938271604938272,54.320987654320994,0)" xlink:href="#U"/></g><path fill="#333" d="M115-194c55 1 70 41 70 98S169 2 115 4C84 4 66-9 55-30l1 105H24l-1-265h31l2 30c10-21 28-34 59-34zm-8 174c40 0 45-34 45-75s-6-73-45-74c-42 0-51 32-51 76 0 43 10 73 51 73" id="V"/><path fill="#333" d="M114-163C36-179 61-72 57 0H25l-1-190h30c1 12-1 29 2 39 6-27 23-49 58-41v29" id="W"/><path fill="#333" d="M24-231v-30h32v30H24zM-9 49c24 4 33-6 33-30v-209h32V24c2 40-23 58-65 49V49" id="X"/><path fill="#333" d="M96-169c-40 0-48 33-48 73s9 75 48 75c24 0 41-14 43-38l32 2c-6 37-31 61-74 61-59 0-76-41-82-99-10-93 101-131 147-64 4 7 5 14 7 22l-32 3c-4-21-16-35-41-35" id="Y"/><path fill="#333" d="M24-231v-30h32v30H24zM24 0v-190h32V0H24" id="Z"/><g id="b"><use transform="matrix(0.04938271604938272,0,0,0.04938271604938272,0,0)" xlink:href="#V"/><use transform="matrix(0.04938271604938272,0,0,0.04938271604938272,9.876543209876544,0)" xlink:href="#W"/><use transform="matrix(0.04938271604938272,0,0,0.04938271604938272,15.753086419753087,0)" xlink:href="#T"/><use transform="matrix(0.04938271604938272,0,0,0.04938271604938272,25.629629629629633,0)" xlink:href="#X"/><use transform="matrix(0.04938271604938272,0,0,0.04938271604938272,29.530864197530867,0)" xlink:href="#P"/><use transform="matrix(0.04938271604938272,0,0,0.04938271604938272,39.40740740740741,0)" xlink:href="#Y"/><use transform="matrix(0.04938271604938272,0,0,0.04938271604938272,48.296296296296305,0)" xlink:href="#R"/><use transform="matrix(0.04938271604938272,0,0,0.04938271604938272,53.23456790123457,0)" xlink:href="#Z"/><use transform="matrix(0.04938271604938272,0,0,0.04938271604938272,57.135802469135804,0)" xlink:href="#T"/><use transform="matrix(0.04938271604938272,0,0,0.04938271604938272,67.01234567901236,0)" xlink:href="#Q"/></g><path fill="#333" d="M108 0H70L1-190h34L89-25l56-165h34" id="aa"/><g id="c"><use transform="matrix(0.04938271604938272,0,0,0.04938271604938272,0,0)" xlink:href="#P"/><use transform="matrix(0.04938271604938272,0,0,0.04938271604938272,9.876543209876544,0)" xlink:href="#aa"/><use transform="matrix(0.04938271604938272,0,0,0.04938271604938272,18.765432098765434,0)" xlink:href="#P"/><use transform="matrix(0.04938271604938272,0,0,0.04938271604938272,28.641975308641978,0)" xlink:href="#Q"/><use transform="matrix(0.04938271604938272,0,0,0.04938271604938272,38.51851851851852,0)" xlink:href="#R"/></g><g id="d"><use transform="matrix(0.04938271604938272,0,0,0.04938271604938272,0,0)" xlink:href="#V"/><use transform="matrix(0.04938271604938272,0,0,0.04938271604938272,9.876543209876544,0)" xlink:href="#W"/><use transform="matrix(0.04938271604938272,0,0,0.04938271604938272,15.753086419753087,0)" xlink:href="#T"/><use transform="matrix(0.04938271604938272,0,0,0.04938271604938272,25.629629629629633,0)" xlink:href="#Y"/><use transform="matrix(0.04938271604938272,0,0,0.04938271604938272,34.51851851851852,0)" xlink:href="#P"/><use transform="matrix(0.04938271604938272,0,0,0.04938271604938272,44.39506172839506,0)" xlink:href="#U"/><use transform="matrix(0.04938271604938272,0,0,0.04938271604938272,53.28395061728394,0)" xlink:href="#U"/></g><path fill="#333" d="M210-169c-67 3-38 105-44 169h-31v-121c0-29-5-50-35-48C34-165 62-65 56 0H25l-1-190h30c1 10-1 24 2 32 10-44 99-50 107 0 11-21 27-35 58-36 85-2 47 119 55 194h-31v-121c0-29-5-49-35-48" id="ab"/><path fill="#333" d="M141-36C126-15 110 5 73 4 37 3 15-17 15-53c-1-64 63-63 125-63 3-35-9-54-41-54-24 1-41 7-42 31l-33-3c5-37 33-52 76-52 45 0 72 20 72 64v82c-1 20 7 32 28 27v20c-31 9-61-2-59-35zM48-53c0 20 12 33 32 33 41-3 63-29 60-74-43 2-92-5-92 41" id="ac"/><path fill="#333" d="M177-190C167-65 218 103 67 71c-23-6-38-20-44-43l32-5c15 47 100 32 89-28v-30C133-14 115 1 83 1 29 1 15-40 15-95c0-56 16-97 71-98 29-1 48 16 59 35 1-10 0-23 2-32h30zM94-22c36 0 50-32 50-73 0-42-14-75-50-75-39 0-46 34-46 75s6 73 46 73" id="ad"/><g id="e"><use transform="matrix(0.04938271604938272,0,0,0.04938271604938272,0,0)" xlink:href="#ab"/><use transform="matrix(0.04938271604938272,0,0,0.04938271604938272,14.765432098765434,0)" xlink:href="#P"/><use transform="matrix(0.04938271604938272,0,0,0.04938271604938272,24.641975308641978,0)" xlink:href="#U"/><use transform="matrix(0.04938271604938272,0,0,0.04938271604938272,33.53086419753087,0)" xlink:href="#U"/><use transform="matrix(0.04938271604938272,0,0,0.04938271604938272,42.41975308641976,0)" xlink:href="#ac"/><use transform="matrix(0.04938271604938272,0,0,0.04938271604938272,52.2962962962963,0)" xlink:href="#ad"/><use transform="matrix(0.04938271604938272,0,0,0.04938271604938272,62.17283950617284,0)" xlink:href="#P"/></g><g id="f"><use transform="matrix(0.04938271604938272,0,0,0.04938271604938272,0,0)" xlink:href="#Q"/><use transform="matrix(0.04938271604938272,0,0,0.04938271604938272,9.876543209876544,0)" xlink:href="#ac"/><use transform="matrix(0.04938271604938272,0,0,0.04938271604938272,19.75308641975309,0)" xlink:href="#R"/><use transform="matrix(0.04938271604938272,0,0,0.04938271604938272,24.69135802469136,0)" xlink:href="#U"/></g><path fill="#333" d="M24 0v-261h32V0H24" id="ae"/><path fill="#333" d="M101-234c-31-9-42 10-38 44h38v23H63V0H32v-167H5v-23h27c-7-52 17-82 69-68v24" id="af"/><g id="g"><use transform="matrix(0.04938271604938272,0,0,0.04938271604938272,0,0)" xlink:href="#ae"/><use transform="matrix(0.04938271604938272,0,0,0.04938271604938272,3.901234567901235,0)" xlink:href="#P"/><use transform="matrix(0.04938271604938272,0,0,0.04938271604938272,13.777777777777779,0)" xlink:href="#ac"/><use transform="matrix(0.04938271604938272,0,0,0.04938271604938272,23.654320987654323,0)" xlink:href="#af"/></g><path fill="#333" d="M85-194c31 0 48 13 60 33l-1-100h32l1 261h-30c-2-10 0-23-3-31C134-8 116 4 85 4 32 4 16-35 15-94c0-66 23-100 70-100zm9 24c-40 0-46 34-46 75 0 40 6 74 45 74 42 0 51-32 51-76 0-42-9-74-50-73" id="ag"/><g id="h"><use transform="matrix(0.04938271604938272,0,0,0.04938271604938272,0,0)" xlink:href="#Q"/><use transform="matrix(0.04938271604938272,0,0,0.04938271604938272,9.876543209876544,0)" xlink:href="#T"/><use transform="matrix(0.04938271604938272,0,0,0.04938271604938272,19.75308641975309,0)" xlink:href="#ag"/><use transform="matrix(0.04938271604938272,0,0,0.04938271604938272,29.629629629629633,0)" xlink:href="#P"/></g><g id="i"><use transform="matrix(0.04938271604938272,0,0,0.04938271604938272,0,0)" xlink:href="#ab"/><use transform="matrix(0.04938271604938272,0,0,0.04938271604938272,14.765432098765434,0)" xlink:href="#P"/><use transform="matrix(0.04938271604938272,0,0,0.04938271604938272,24.641975308641978,0)" xlink:href="#U"/><use transform="matrix(0.04938271604938272,0,0,0.04938271604938272,33.53086419753087,0)" xlink:href="#U"/><use transform="matrix(0.04938271604938272,0,0,0.04938271604938272,42.41975308641976,0)" xlink:href="#ac"/><use transform="matrix(0.04938271604938272,0,0,0.04938271604938272,52.2962962962963,0)" xlink:href="#ad"/><use transform="matrix(0.04938271604938272,0,0,0.04938271604938272,62.17283950617284,0)" xlink:href="#P"/></g><g id="j"><use transform="matrix(0.04938271604938272,0,0,0.04938271604938272,0,0)" xlink:href="#Y"/><use transform="matrix(0.04938271604938272,0,0,0.04938271604938272,8.88888888888889,0)" xlink:href="#ae"/><use transform="matrix(0.04938271604938272,0,0,0.04938271604938272,12.790123456790125,0)" xlink:href="#Z"/><use transform="matrix(0.04938271604938272,0,0,0.04938271604938272,16.691358024691358,0)" xlink:href="#P"/><use transform="matrix(0.04938271604938272,0,0,0.04938271604938272,26.567901234567902,0)" xlink:href="#Q"/><use transform="matrix(0.04938271604938272,0,0,0.04938271604938272,36.44444444444444,0)" xlink:href="#R"/></g><g id="k"><use transform="matrix(0.04938271604938272,0,0,0.04938271604938272,0,0)" xlink:href="#ab"/><use transform="matrix(0.04938271604938272,0,0,0.04938271604938272,14.765432098765434,0)" xlink:href="#P"/><use transform="matrix(0.04938271604938272,0,0,0.04938271604938272,24.641975308641978,0)" xlink:href="#U"/><use transform="matrix(0.04938271604938272,0,0,0.04938271604938272,33.53086419753087,0)" xlink:href="#U"/><use transform="matrix(0.04938271604938272,0,0,0.04938271604938272,42.41975308641976,0)" xlink:href="#ac"/><use transform="matrix(0.04938271604938272,0,0,0.04938271604938272,52.2962962962963,0)" xlink:href="#ad"/><use transform="matrix(0.04938271604938272,0,0,0.04938271604938272,62.17283950617284,0)" xlink:href="#P"/></g><path fill="#333" d="M169-182c-1-43-94-46-97-3 18 66 151 10 154 114 3 95-165 93-204 36-6-8-10-19-12-30l50-8c3 46 112 56 116 5-17-69-150-10-154-114-4-87 153-88 188-35 5 8 8 18 10 28" id="ah"/><path fill="#333" d="M133-34C117-15 103 5 69 4 32 3 11-16 11-54c-1-60 55-63 116-61 1-26-3-47-28-47-18 1-26 9-28 27l-52-2c7-38 36-58 82-57s74 22 75 68l1 82c-1 14 12 18 25 15v27c-30 8-71 5-69-32zm-48 3c29 0 43-24 42-57-32 0-66-3-65 30 0 17 8 27 23 27" id="ai"/><path fill="#333" d="M195-6C206 82 75 100 31 46c-4-6-6-13-8-21l49-6c3 16 16 24 34 25 40 0 42-37 40-79-11 22-30 35-61 35-53 0-70-43-70-97 0-56 18-96 73-97 30 0 46 14 59 34l2-30h47zm-90-29c32 0 41-27 41-63 0-35-9-62-40-62-32 0-39 29-40 63 0 36 9 62 39 62" id="aj"/><path fill="#333" d="M185-48c-13 30-37 53-82 52C43 2 14-33 14-96s30-98 90-98c62 0 83 45 84 108H66c0 31 8 55 39 56 18 0 30-7 34-22zm-45-69c5-46-57-63-70-21-2 6-4 13-4 21h74" id="ak"/><g id="l"><use transform="matrix(0.11111111111111101,0,0,0.11111111111111101,0,0)" xlink:href="#ah"/><use transform="matrix(0.11111111111111101,0,0,0.11111111111111101,26.666666666666643,0)" xlink:href="#ai"/><use transform="matrix(0.11111111111111101,0,0,0.11111111111111101,48.88888888888884,0)" xlink:href="#aj"/><use transform="matrix(0.11111111111111101,0,0,0.11111111111111101,73.22222222222216,0)" xlink:href="#ak"/></g><path fill="#333" d="M145-31C134-9 116 4 85 4 32 4 16-35 15-94c0-59 17-99 70-100 32-1 48 14 60 33 0-11-1-24 2-32h30l-1 268h-32zM93-21c41 0 51-33 51-76s-8-73-50-73c-40 0-46 35-46 75s5 74 45 74" id="al"/><path fill="#333" d="M84 4C-5 8 30-112 23-190h32v120c0 31 7 50 39 49 72-2 45-101 50-169h31l1 190h-30c-1-10 1-25-2-33-11 22-28 36-60 37" id="am"/><path fill="#333" d="M0 4l72-265h28L28 4H0" id="an"/><path fill="#333" d="M179-190L93 31C79 59 56 82 12 73V49c39 6 53-20 64-50L1-190h34L92-34l54-156h33" id="ao"/><g id="m"><use transform="matrix(0.04938271604938272,0,0,0.04938271604938272,0,0)" xlink:href="#W"/><use transform="matrix(0.04938271604938272,0,0,0.04938271604938272,5.8765432098765435,0)" xlink:href="#P"/><use transform="matrix(0.04938271604938272,0,0,0.04938271604938272,15.753086419753087,0)" xlink:href="#al"/><use transform="matrix(0.04938271604938272,0,0,0.04938271604938272,25.629629629629633,0)" xlink:href="#am"/><use transform="matrix(0.04938271604938272,0,0,0.04938271604938272,35.50617283950618,0)" xlink:href="#P"/><use transform="matrix(0.04938271604938272,0,0,0.04938271604938272,45.38271604938272,0)" xlink:href="#U"/><use transform="matrix(0.04938271604938272,0,0,0.04938271604938272,54.27160493827161,0)" xlink:href="#R"/><use transform="matrix(0.04938271604938272,0,0,0.04938271604938272,59.20987654320988,0)" xlink:href="#an"/><use transform="matrix(0.04938271604938272,0,0,0.04938271604938272,64.14814814814815,0)" xlink:href="#W"/><use transform="matrix(0.04938271604938272,0,0,0.04938271604938272,70.0246913580247,0)" xlink:href="#P"/><use transform="matrix(0.04938271604938272,0,0,0.04938271604938272,79.90123456790124,0)" xlink:href="#V"/><use transform="matrix(0.04938271604938272,0,0,0.04938271604938272,89.77777777777779,0)" xlink:href="#ae"/><use transform="matrix(0.04938271604938272,0,0,0.04938271604938272,93.67901234567903,0)" xlink:href="#ao"/></g><path fill="#333" d="M185-189c-5-48-123-54-124 2 14 75 158 14 163 119 3 78-121 87-175 55-17-10-28-26-33-46l33-7c5 56 141 63 141-1 0-78-155-14-162-118-5-82 145-84 179-34 5 7 8 16 11 25" id="ap"/><path fill="#333" d="M126-127c33 6 58 20 58 59 0 88-139 92-164 29-3-8-5-16-6-25l32-3c6 27 21 44 54 44 32 0 52-15 52-46 0-38-36-46-79-43v-28c39 1 72-4 72-42 0-27-17-43-46-43-28 0-47 15-49 41l-32-3c6-42 35-63 81-64 48-1 79 21 79 65 0 36-21 52-52 59" id="aq"/><g id="n"><use transform="matrix(0.04938271604938272,0,0,0.04938271604938272,0,0)" xlink:href="#ap"/><use transform="matrix(0.04938271604938272,0,0,0.04938271604938272,11.851851851851853,0)" xlink:href="#aq"/></g><g id="o"><use transform="matrix(0.04938271604938272,0,0,0.04938271604938272,0,0)" xlink:href="#ap"/><use transform="matrix(0.04938271604938272,0,0,0.04938271604938272,11.851851851851853,0)" xlink:href="#R"/><use transform="matrix(0.04938271604938272,0,0,0.04938271604938272,16.790123456790127,0)" xlink:href="#T"/><use transform="matrix(0.04938271604938272,0,0,0.04938271604938272,26.666666666666668,0)" xlink:href="#W"/><use transform="matrix(0.04938271604938272,0,0,0.04938271604938272,32.543209876543216,0)" xlink:href="#ac"/><use transform="matrix(0.04938271604938272,0,0,0.04938271604938272,42.41975308641976,0)" xlink:href="#ad"/><use transform="matrix(0.04938271604938272,0,0,0.04938271604938272,52.2962962962963,0)" xlink:href="#P"/></g><path fill="#333" d="M140-251c81 0 123 46 123 126C263-46 219 4 140 4 59 4 17-45 17-125s42-126 123-126zm0 227c63 0 89-41 89-101s-29-99-89-99c-61 0-89 39-89 99S79-25 140-24" id="ar"/><g id="q"><use transform="matrix(0.04938271604938272,0,0,0.04938271604938272,0,0)" xlink:href="#ar"/><use transform="matrix(0.04938271604938272,0,0,0.04938271604938272,13.827160493827162,0)" xlink:href="#O"/><use transform="matrix(0.04938271604938272,0,0,0.04938271604938272,23.703703703703706,0)" xlink:href="#X"/><use transform="matrix(0.04938271604938272,0,0,0.04938271604938272,27.60493827160494,0)" xlink:href="#P"/><use transform="matrix(0.04938271604938272,0,0,0.04938271604938272,37.48148148148148,0)" xlink:href="#Y"/><use transform="matrix(0.04938271604938272,0,0,0.04938271604938272,46.37037037037037,0)" xlink:href="#R"/></g><path fill="#333" d="M160-131c35 5 61 23 61 61C221 17 115-2 30 0v-248c76 3 177-17 177 60 0 33-19 50-47 57zm-97-11c50-1 110 9 110-42 0-47-63-36-110-37v79zm0 115c55-2 124 14 124-45 0-56-70-42-124-44v89" id="as"/><path fill="#333" d="M143 0L79-87 56-68V0H24v-261h32v163l83-92h37l-77 82L181 0h-38" id="at"/><g id="r"><use transform="matrix(0.04938271604938272,0,0,0.04938271604938272,0,0)" xlink:href="#as"/><use transform="matrix(0.04938271604938272,0,0,0.04938271604938272,11.851851851851853,0)" xlink:href="#am"/><use transform="matrix(0.04938271604938272,0,0,0.04938271604938272,21.7283950617284,0)" xlink:href="#Y"/><use transform="matrix(0.04938271604938272,0,0,0.04938271604938272,30.617283950617285,0)" xlink:href="#at"/><use transform="matrix(0.04938271604938272,0,0,0.04938271604938272,39.50617283950618,0)" xlink:href="#P"/><use transform="matrix(0.04938271604938272,0,0,0.04938271604938272,49.38271604938272,0)" xlink:href="#R"/></g><path fill="#333" d="M194 0L95-120 63-95V0H30v-248h33v124l119-124h40L117-140 236 0h-42" id="au"/><path fill="#333" d="M137 0h-34L2-248h35l83 218 83-218h36" id="av"/><g id="s"><use transform="matrix(0.04938271604938272,0,0,0.04938271604938272,0,0)" xlink:href="#au"/><use transform="matrix(0.04938271604938272,0,0,0.04938271604938272,11.851851851851853,0)" xlink:href="#av"/></g><path fill="#333" d="M153-248C145-148 188 4 80 4 36 3 13-21 6-62l32-5c4 25 16 42 43 43 27 0 39-20 39-49v-147H72v-28h81" id="aw"/><g id="t"><use transform="matrix(0.04938271604938272,0,0,0.04938271604938272,0,0)" xlink:href="#aw"/><use transform="matrix(0.04938271604938272,0,0,0.04938271604938272,8.88888888888889,0)" xlink:href="#P"/><use transform="matrix(0.04938271604938272,0,0,0.04938271604938272,18.765432098765434,0)" xlink:href="#R"/><use transform="matrix(0.04938271604938272,0,0,0.04938271604938272,23.703703703703706,0)" xlink:href="#U"/><use transform="matrix(0.04938271604938272,0,0,0.04938271604938272,32.592592592592595,0)" xlink:href="#R"/><use transform="matrix(0.04938271604938272,0,0,0.04938271604938272,37.53086419753087,0)" xlink:href="#W"/><use transform="matrix(0.04938271604938272,0,0,0.04938271604938272,43.40740740740741,0)" xlink:href="#P"/><use transform="matrix(0.04938271604938272,0,0,0.04938271604938272,53.283950617283956,0)" xlink:href="#ac"/><use transform="matrix(0.04938271604938272,0,0,0.04938271604938272,63.1604938271605,0)" xlink:href="#ab"/></g><path fill="#333" d="M30 0v-248h187v28H63v79h144v27H63v87h162V0H30" id="ax"/><g id="u"><use transform="matrix(0.04938271604938272,0,0,0.04938271604938272,0,0)" xlink:href="#ax"/><use transform="matrix(0.04938271604938272,0,0,0.04938271604938272,11.851851851851853,0)" xlink:href="#aa"/><use transform="matrix(0.04938271604938272,0,0,0.04938271604938272,20.74074074074074,0)" xlink:href="#P"/><use transform="matrix(0.04938271604938272,0,0,0.04938271604938272,30.617283950617285,0)" xlink:href="#Q"/><use transform="matrix(0.04938271604938272,0,0,0.04938271604938272,40.49382716049383,0)" xlink:href="#R"/><use transform="matrix(0.04938271604938272,0,0,0.04938271604938272,45.4320987654321,0)" xlink:href="#U"/></g><path fill="#333" d="M205 0l-28-72H64L36 0H1l101-248h38L239 0h-34zm-38-99l-47-123c-12 45-31 82-46 123h93" id="ay"/><path fill="#333" d="M30-248c87 1 191-15 191 75 0 78-77 80-158 76V0H30v-248zm33 125c57 0 124 11 124-50 0-59-68-47-124-48v98" id="az"/><path fill="#333" d="M33 0v-248h34V0H33" id="aA"/><g id="v"><use transform="matrix(0.04938271604938272,0,0,0.04938271604938272,0,0)" xlink:href="#ay"/><use transform="matrix(0.04938271604938272,0,0,0.04938271604938272,11.851851851851853,0)" xlink:href="#az"/><use transform="matrix(0.04938271604938272,0,0,0.04938271604938272,23.703703703703706,0)" xlink:href="#aA"/></g><g id="w"><use transform="matrix(0.04938271604938272,0,0,0.04938271604938272,0,0)" xlink:href="#ay"/><use transform="matrix(0.04938271604938272,0,0,0.04938271604938272,11.851851851851853,0)" xlink:href="#ad"/><use transform="matrix(0.04938271604938272,0,0,0.04938271604938272,21.7283950617284,0)" xlink:href="#ad"/><use transform="matrix(0.04938271604938272,0,0,0.04938271604938272,31.60493827160494,0)" xlink:href="#W"/><use transform="matrix(0.04938271604938272,0,0,0.04938271604938272,37.48148148148149,0)" xlink:href="#P"/><use transform="matrix(0.04938271604938272,0,0,0.04938271604938272,47.35802469135803,0)" xlink:href="#ad"/><use transform="matrix(0.04938271604938272,0,0,0.04938271604938272,57.23456790123457,0)" xlink:href="#ac"/><use transform="matrix(0.04938271604938272,0,0,0.04938271604938272,67.11111111111111,0)" xlink:href="#R"/><use transform="matrix(0.04938271604938272,0,0,0.04938271604938272,72.0493827160494,0)" xlink:href="#P"/></g><g id="x"><use transform="matrix(0.04938271604938272,0,0,0.04938271604938272,0,0)" xlink:href="#ay"/><use transform="matrix(0.04938271604938272,0,0,0.04938271604938272,11.851851851851853,0)" xlink:href="#az"/><use transform="matrix(0.04938271604938272,0,0,0.04938271604938272,23.703703703703706,0)" xlink:href="#aA"/></g><path fill="#333" d="M24 0v-248h195v40H76v63h132v40H76v65h150V0H24" id="aB"/><path fill="#333" d="M88-194c31-1 46 15 58 34l-1-101h50l1 261h-48c-2-10 0-23-3-31C134-8 116 4 84 4 32 4 16-41 15-95c0-56 19-97 73-99zm17 164c33 0 40-30 41-66 1-37-9-64-41-64s-38 30-39 65c0 43 13 65 39 65" id="aC"/><g id="y"><use transform="matrix(0.11111111111111095,0,0,0.11111111111111095,0,0)" xlink:href="#aB"/><use transform="matrix(0.11111111111111095,0,0,0.11111111111111095,26.66666666666663,0)" xlink:href="#aC"/><use transform="matrix(0.11111111111111095,0,0,0.11111111111111095,50.99999999999993,0)" xlink:href="#aj"/><use transform="matrix(0.11111111111111095,0,0,0.11111111111111095,75.33333333333323,0)" xlink:href="#ak"/></g><path fill="#333" d="M135-150c-39-12-60 13-60 57V0H25l-1-190h47c2 13-1 29 3 40 6-28 27-53 61-41v41" id="aD"/><path fill="#333" d="M128 0H69L1-190h53L99-40l48-150h52" id="aE"/><path fill="#333" d="M25-224v-37h50v37H25zM25 0v-190h50V0H25" id="aF"/><path fill="#333" d="M190-63c-7 42-38 67-86 67-59 0-84-38-90-98-12-110 154-137 174-36l-49 2c-2-19-15-32-35-32-30 0-35 28-38 64-6 74 65 87 74 30" id="aG"/><path fill="#333" d="M137-138c1-29-70-34-71-4 15 46 118 7 119 86 1 83-164 76-172 9l43-7c4 19 20 25 44 25 33 8 57-30 24-41C81-84 22-81 20-136c-2-80 154-74 161-7" id="aH"/><g id="z"><use transform="matrix(0.11111111111111095,0,0,0.11111111111111095,0,0)" xlink:href="#ah"/><use transform="matrix(0.11111111111111095,0,0,0.11111111111111095,26.66666666666663,0)" xlink:href="#ak"/><use transform="matrix(0.11111111111111095,0,0,0.11111111111111095,48.888888888888815,0)" xlink:href="#aD"/><use transform="matrix(0.11111111111111095,0,0,0.11111111111111095,64.44444444444434,0)" xlink:href="#aE"/><use transform="matrix(0.11111111111111095,0,0,0.11111111111111095,86.66666666666653,0)" xlink:href="#aF"/><use transform="matrix(0.11111111111111095,0,0,0.11111111111111095,97.77777777777763,0)" xlink:href="#aG"/><use transform="matrix(0.11111111111111095,0,0,0.11111111111111095,119.9999999999998,0)" xlink:href="#ak"/><use transform="matrix(0.11111111111111095,0,0,0.11111111111111095,142.222222222222,0)" xlink:href="#aH"/></g><g id="A"><use transform="matrix(0.04938271604938272,0,0,0.04938271604938272,0,0)" xlink:href="#Q"/><use transform="matrix(0.04938271604938272,0,0,0.04938271604938272,9.876543209876544,0)" xlink:href="#ac"/><use transform="matrix(0.04938271604938272,0,0,0.04938271604938272,19.75308641975309,0)" xlink:href="#R"/><use transform="matrix(0.04938271604938272,0,0,0.04938271604938272,24.69135802469136,0)" xlink:href="#U"/></g><g id="B"><use transform="matrix(0.04938271604938272,0,0,0.04938271604938272,0,0)" xlink:href="#Y"/><use transform="matrix(0.04938271604938272,0,0,0.04938271604938272,8.88888888888889,0)" xlink:href="#ae"/><use transform="matrix(0.04938271604938272,0,0,0.04938271604938272,12.790123456790125,0)" xlink:href="#am"/><use transform="matrix(0.04938271604938272,0,0,0.04938271604938272,22.666666666666668,0)" xlink:href="#U"/><use transform="matrix(0.04938271604938272,0,0,0.04938271604938272,31.555555555555557,0)" xlink:href="#R"/><use transform="matrix(0.04938271604938272,0,0,0.04938271604938272,36.49382716049383,0)" xlink:href="#P"/><use transform="matrix(0.04938271604938272,0,0,0.04938271604938272,46.370370370370374,0)" xlink:href="#W"/></g><g id="C"><use transform="matrix(0.04938271604938272,0,0,0.04938271604938272,0,0)" xlink:href="#ad"/><use transform="matrix(0.04938271604938272,0,0,0.04938271604938272,9.876543209876544,0)" xlink:href="#T"/><use transform="matrix(0.04938271604938272,0,0,0.04938271604938272,19.75308641975309,0)" xlink:href="#U"/><use transform="matrix(0.04938271604938272,0,0,0.04938271604938272,28.641975308641978,0)" xlink:href="#U"/><use transform="matrix(0.04938271604938272,0,0,0.04938271604938272,37.53086419753087,0)" xlink:href="#Z"/><use transform="matrix(0.04938271604938272,0,0,0.04938271604938272,41.4320987654321,0)" xlink:href="#V"/></g><path fill="#333" d="M30-248c118-7 216 8 213 122C240-48 200 0 122 0H30v-248zM63-27c89 8 146-16 146-99s-60-101-146-95v194" id="aI"/><g id="D"><use transform="matrix(0.04938271604938272,0,0,0.04938271604938272,0,0)" xlink:href="#aI"/><use transform="matrix(0.04938271604938272,0,0,0.04938271604938272,12.790123456790125,0)" xlink:href="#T"/><use transform="matrix(0.04938271604938272,0,0,0.04938271604938272,22.66666666666667,0)" xlink:href="#ab"/><use transform="matrix(0.04938271604938272,0,0,0.04938271604938272,37.4320987654321,0)" xlink:href="#ac"/><use transform="matrix(0.04938271604938272,0,0,0.04938271604938272,47.308641975308646,0)" xlink:href="#Z"/><use transform="matrix(0.04938271604938272,0,0,0.04938271604938272,51.20987654320988,0)" xlink:href="#Q"/></g><path fill="#333" d="M67-125c0 53 21 87 73 88 37 1 54-22 65-47l45 17C233-25 199 4 140 4 58 4 20-42 15-125 8-235 124-281 211-232c18 10 29 29 36 50l-46 12c-8-25-30-41-62-41-52 0-71 34-72 86" id="aJ"/><path fill="#333" d="M85 4C-2 5 27-109 22-190h50c7 57-23 150 33 157 60-5 35-97 40-157h50l1 190h-47c-2-12 1-28-3-38-12 25-28 42-61 42" id="aK"/><path fill="#333" d="M115-3C79 11 28 4 28-45v-112H4v-33h27l15-45h31v45h36v33H77v99c-1 23 16 31 38 25v30" id="aL"/><path fill="#333" d="M110-194c64 0 96 36 96 99 0 64-35 99-97 99-61 0-95-36-95-99 0-62 34-99 96-99zm-1 164c35 0 45-28 45-65 0-40-10-65-43-65-34 0-45 26-45 65 0 36 10 65 43 65" id="aM"/><path fill="#333" d="M220-157c-53 9-28 100-34 157h-49v-107c1-27-5-49-29-50C55-147 81-57 75 0H25l-1-190h47c2 12-1 28 3 38 10-53 101-56 108 0 13-22 24-43 59-42 82 1 51 116 57 194h-49v-107c-1-25-5-48-29-50" id="aN"/><g id="E"><use transform="matrix(0.11111111111111095,0,0,0.11111111111111095,0,0)" xlink:href="#aJ"/><use transform="matrix(0.11111111111111095,0,0,0.11111111111111095,28.777777777777736,0)" xlink:href="#aK"/><use transform="matrix(0.11111111111111095,0,0,0.11111111111111095,53.111111111111036,0)" xlink:href="#aH"/><use transform="matrix(0.11111111111111095,0,0,0.11111111111111095,75.33333333333323,0)" xlink:href="#aL"/><use transform="matrix(0.11111111111111095,0,0,0.11111111111111095,88.55555555555543,0)" xlink:href="#aM"/><use transform="matrix(0.11111111111111095,0,0,0.11111111111111095,112.88888888888873,0)" xlink:href="#aN"/><use transform="matrix(0.11111111111111095,0,0,0.11111111111111095,148.44444444444423,0)" xlink:href="#ak"/><use transform="matrix(0.11111111111111095,0,0,0.11111111111111095,170.66666666666643,0)" xlink:href="#aD"/></g><g id="F"><use transform="matrix(0.11111111111111095,0,0,0.11111111111111095,0,0)" xlink:href="#ah"/><use transform="matrix(0.11111111111111095,0,0,0.11111111111111095,26.66666666666663,0)" xlink:href="#aF"/><use transform="matrix(0.11111111111111095,0,0,0.11111111111111095,37.77777777777772,0)" xlink:href="#aL"/><use transform="matrix(0.11111111111111095,0,0,0.11111111111111095,50.99999999999993,0)" xlink:href="#ak"/></g><path fill="#333" d="M212-179c-10-28-35-45-73-45-59 0-87 40-87 99 0 60 29 101 89 101 43 0 62-24 78-52l27 14C228-24 195 4 139 4 59 4 22-46 18-125c-6-104 99-153 187-111 19 9 31 26 39 46" id="aO"/><g id="G"><use transform="matrix(0.04938271604938272,0,0,0.04938271604938272,0,0)" xlink:href="#aO"/><use transform="matrix(0.04938271604938272,0,0,0.04938271604938272,12.790123456790125,0)" xlink:href="#am"/><use transform="matrix(0.04938271604938272,0,0,0.04938271604938272,22.66666666666667,0)" xlink:href="#U"/><use transform="matrix(0.04938271604938272,0,0,0.04938271604938272,31.555555555555557,0)" xlink:href="#R"/><use transform="matrix(0.04938271604938272,0,0,0.04938271604938272,36.49382716049384,0)" xlink:href="#T"/><use transform="matrix(0.04938271604938272,0,0,0.04938271604938272,46.37037037037038,0)" xlink:href="#ab"/><use transform="matrix(0.04938271604938272,0,0,0.04938271604938272,61.13580246913581,0)" xlink:href="#P"/><use transform="matrix(0.04938271604938272,0,0,0.04938271604938272,71.01234567901236,0)" xlink:href="#W"/></g><path fill="#333" d="M63-220v92h138v28H63V0H30v-248h175v28H63" id="aP"/><g id="H"><use transform="matrix(0.04938271604938272,0,0,0.04938271604938272,0,0)" xlink:href="#aP"/><use transform="matrix(0.04938271604938272,0,0,0.04938271604938272,10.814814814814815,0)" xlink:href="#ac"/><use transform="matrix(0.04938271604938272,0,0,0.04938271604938272,20.69135802469136,0)" xlink:href="#Y"/><use transform="matrix(0.04938271604938272,0,0,0.04938271604938272,29.58024691358025,0)" xlink:href="#Z"/><use transform="matrix(0.04938271604938272,0,0,0.04938271604938272,33.48148148148149,0)" xlink:href="#Q"/><use transform="matrix(0.04938271604938272,0,0,0.04938271604938272,43.35802469135803,0)" xlink:href="#ad"/></g><g id="I"><use transform="matrix(0.04938271604938272,0,0,0.04938271604938272,0,0)" xlink:href="#ay"/><use transform="matrix(0.04938271604938272,0,0,0.04938271604938272,11.851851851851853,0)" xlink:href="#az"/><use transform="matrix(0.04938271604938272,0,0,0.04938271604938272,23.703703703703706,0)" xlink:href="#aA"/></g><g id="J"><use transform="matrix(0.04938271604938272,0,0,0.04938271604938272,0,0)" xlink:href="#P"/><use transform="matrix(0.04938271604938272,0,0,0.04938271604938272,9.876543209876544,0)" xlink:href="#aa"/><use transform="matrix(0.04938271604938272,0,0,0.04938271604938272,18.765432098765434,0)" xlink:href="#P"/><use transform="matrix(0.04938271604938272,0,0,0.04938271604938272,28.641975308641978,0)" xlink:href="#Q"/><use transform="matrix(0.04938271604938272,0,0,0.04938271604938272,38.51851851851852,0)" xlink:href="#R"/></g><g id="K"><use transform="matrix(0.04938271604938272,0,0,0.04938271604938272,0,0)" xlink:href="#U"/><use transform="matrix(0.04938271604938272,0,0,0.04938271604938272,8.88888888888889,0)" xlink:href="#R"/><use transform="matrix(0.04938271604938272,0,0,0.04938271604938272,13.827160493827162,0)" xlink:href="#W"/><use transform="matrix(0.04938271604938272,0,0,0.04938271604938272,19.703703703703706,0)" xlink:href="#P"/><use transform="matrix(0.04938271604938272,0,0,0.04938271604938272,29.58024691358025,0)" xlink:href="#ac"/><use transform="matrix(0.04938271604938272,0,0,0.04938271604938272,39.4567901234568,0)" xlink:href="#ab"/><use transform="matrix(0.04938271604938272,0,0,0.04938271604938272,54.22222222222223,0)" xlink:href="#U"/></g><path fill="#333" d="M24 0v-248h52V0H24" id="aQ"/><path fill="#333" d="M230 0l2-204L168 0h-37L68-204 70 0H24v-248h70l56 185 57-185h69V0h-46" id="aR"/><g id="L"><use transform="matrix(0.08024691358024691,0,0,0.08024691358024691,0,0)" xlink:href="#aJ"/><use transform="matrix(0.08024691358024691,0,0,0.08024691358024691,20.78395061728395,0)" xlink:href="#aQ"/><use transform="matrix(0.08024691358024691,0,0,0.08024691358024691,28.80864197530864,0)" xlink:href="#aR"/></g><path fill="#333" d="M199 0l-22-63H83L61 0H9l90-248h61L250 0h-51zm-33-102l-36-108c-10 38-24 72-36 108h72" id="aS"/><path fill="#333" d="M114-157C55-157 80-60 75 0H25v-261h50l-1 109c12-26 28-41 61-42 86-1 58 113 63 194h-50c-7-57 23-157-34-157" id="aT"/><g id="M"><use transform="matrix(0.08024691358024691,0,0,0.08024691358024691,0,0)" xlink:href="#aS"/><use transform="matrix(0.08024691358024691,0,0,0.08024691358024691,20.78395061728395,0)" xlink:href="#aD"/><use transform="matrix(0.08024691358024691,0,0,0.08024691358024691,32.01851851851852,0)" xlink:href="#aG"/><use transform="matrix(0.08024691358024691,0,0,0.08024691358024691,48.0679012345679,0)" xlink:href="#aT"/><use transform="matrix(0.08024691358024691,0,0,0.08024691358024691,65.64197530864197,0)" xlink:href="#aF"/><use transform="matrix(0.08024691358024691,0,0,0.08024691358024691,73.66666666666667,0)" xlink:href="#aL"/><use transform="matrix(0.08024691358024691,0,0,0.08024691358024691,83.21604938271605,0)" xlink:href="#ak"/><use transform="matrix(0.08024691358024691,0,0,0.08024691358024691,99.26543209876543,0)" xlink:href="#aG"/><use transform="matrix(0.08024691358024691,0,0,0.08024691358024691,115.31481481481481,0)" xlink:href="#aL"/><use transform="matrix(0.08024691358024691,0,0,0.08024691358024691,124.86419753086419,0)" xlink:href="#aK"/><use transform="matrix(0.08024691358024691,0,0,0.08024691358024691,142.43827160493825,0)" xlink:href="#aD"/><use transform="matrix(0.08024691358024691,0,0,0.08024691358024691,153.6728395061728,0)" xlink:href="#ak"/></g><path fill="#333" d="M24-248c120-7 223 5 221 122C244-46 201 0 124 0H24v-248zM76-40c74 7 117-18 117-86 0-67-45-88-117-82v168" id="aU"/><g id="N"><use transform="matrix(0.08024691358024691,0,0,0.08024691358024691,0,0)" xlink:href="#aU"/><use transform="matrix(0.08024691358024691,0,0,0.08024691358024691,20.78395061728395,0)" xlink:href="#aF"/><use transform="matrix(0.08024691358024691,0,0,0.08024691358024691,28.80864197530864,0)" xlink:href="#ai"/><use transform="matrix(0.08024691358024691,0,0,0.08024691358024691,44.858024691358025,0)" xlink:href="#aj"/><use transform="matrix(0.08024691358024691,0,0,0.08024691358024691,62.4320987654321,0)" xlink:href="#aD"/><use transform="matrix(0.08024691358024691,0,0,0.08024691358024691,73.66666666666667,0)" xlink:href="#ai"/><use transform="matrix(0.08024691358024691,0,0,0.08024691358024691,89.71604938271605,0)" xlink:href="#aN"/></g></defs></g></svg>