<svg xmlns="http://www.w3.org/2000/svg" width="350" height="507" viewBox="0 0 350 507"><defs><style type="text/css"/></defs><g transform="translate(174.6025403784438 54) scale(1)"><g class="relationship"><g transform="translate(-120.6025403784438 208.88972745734185) rotate(-60.00000000000002)" stroke-width="5" stroke="#000000"><path d="M 59 0 L 157.3429301391394 0"/><polygon points="-24.8621506177483,0 -27.62461179749811,9.20820393249937 0,0 -27.62461179749811,-9.20820393249937" fill="#000000" transform="translate(182.2050807568877 0) rotate(0)" stroke="none"/></g></g><g class="relationship"><g transform="translate(120.60254037844392 208.88972745734185) rotate(-120.00000000000001)" stroke-width="5" stroke="#000000"><path d="M 59 0 L 157.34293013913947 0"/><polygon points="-24.8621506177483,0 -27.62461179749811,9.20820393249937 0,0 -27.62461179749811,-9.20820393249937" fill="#000000" transform="translate(182.20508075688775 0) rotate(0)" stroke="none"/></g></g><g class="relationship"><g transform="translate(3.749399456654644e-33 399) rotate(-90)" stroke-width="5" stroke="#000000"><path d="M 59 0 L 315.1378493822517 0"/><polygon points="-24.8621506177483,0 -27.62461179749811,9.20820393249937 0,0 -27.62461179749811,-9.20820393249937" fill="#000000" transform="translate(340 0) rotate(0)" stroke="none"/></g></g><g class="node"><g fill="#ffffff" stroke="#000000" stroke-width="4"><circle cx="0" cy="0" r="52"/></g><g transform="translate(0 0)"><g transform="scale(0.4414068085937499) translate(0 0)"><g transform="translate(0 0)"><g font-family="sans-serif" font-size="50" font-weight="normal" fill="#000000" text-anchor="middle"><text xml:space="preserve" x="0" y="14.5" stroke="none">Domain</text></g></g></g></g></g><g class="node"><g fill="#ffffff" stroke="#000000" stroke-width="4"><circle cx="-120.6025403784438" cy="208.88972745734185" r="52"/></g><g transform="translate(-120.6025403784438 208.88972745734185)"><g transform="scale(0.5078129921874999) translate(0 0)"><g transform="translate(0 0)"><g font-family="sans-serif" font-size="50" font-weight="normal" fill="#000000" text-anchor="middle"><text xml:space="preserve" x="0" y="14.5" stroke="none">People</text></g></g></g></g></g><g class="node"><g fill="#ffffff" stroke="#000000" stroke-width="4"><circle cx="120.60254037844392" cy="208.88972745734185" r="52"/></g><g transform="translate(120.60254037844392 208.88972745734185)"><g transform="scale(0.255860119140625) translate(0 0)"><g transform="translate(0 0)"><g font-family="sans-serif" font-size="50" font-weight="normal" fill="#000000" text-anchor="middle"><text xml:space="preserve" x="0" y="14.5" stroke="none">Organizations</text></g></g></g></g></g><g class="node"><g fill="#ffffff" stroke="#000000" stroke-width="4"><circle cx="3.749399456654644e-33" cy="399" r="52"/></g><g transform="translate(3.749399456654644e-33 399)"><g transform="scale(0.36523500976562495) translate(0 0)"><g transform="translate(0 0)"><g font-family="sans-serif" font-size="50" font-weight="normal" fill="#000000" text-anchor="middle"><text xml:space="preserve" x="0" y="14.5" stroke="none">Inventory</text></g></g></g></g></g></g></svg>