<svg xmlns="http://www.w3.org/2000/svg" width="3624" height="3527" viewBox="0 0 3624 3527"><defs><style type="text/css"/></defs><g transform="translate(1907.1178834415737 938.175752134352) scale(1)"><g class="relationship"><g transform="translate(115.38098023006175 -884.175752134352) rotate(52.02286448523775)" stroke-width="5" stroke="#000000"><path d="M 59 0 L 599.5633199529804 0"/><polygon points="-24.8621506177483,0 -27.62461179749811,9.20820393249937 0,0 -27.62461179749811,-9.20820393249937" fill="#000000" transform="translate(624.4254705707286 0) rotate(0)" stroke="none"/></g><g transform="translate(318.00344944035743 -624.6173838084673) rotate(52.02286448523775) translate(0 -13)"><g transform="translate(0 0)"><g transform="translate(-37.016666412353516 0)" fill="#ffffff" stroke="#000000" stroke-width="0"><rect x="0" y="0" width="74.03333282470703" height="26" rx="5" ry="5" stroke="none"/><text xml:space="preserve" x="5" y="17.5" stroke="none" text-anchor="left" font-family="sans-serif" font-size="16" font-weight="normal" fill="#000000">HAS_AN</text></g></g></g></g><g class="relationship"><g transform="translate(535.9247675097305 -345.4612667106773) rotate(90)" stroke-width="5" stroke="#000000"><path d="M 59 0 L 505.59911609292897 0"/><polygon points="-24.8621506177483,0 -27.62461179749811,9.20820393249937 0,0 -27.62461179749811,-9.20820393249937" fill="#000000" transform="translate(530.4612667106773 0) rotate(0)" stroke="none"/></g><g transform="translate(535.9247675097305 -63.161708664212824) rotate(270) translate(0 -13)"><g transform="translate(0 0)"><g transform="translate(-30.28333282470703 0)" fill="#ffffff" stroke="#000000" stroke-width="0"><rect x="0" y="0" width="60.56666564941406" height="26" rx="5" ry="5" stroke="none"/><text xml:space="preserve" x="5" y="17.5" stroke="none" text-anchor="left" font-family="sans-serif" font-size="16" font-weight="normal" fill="#000000">OWNS</text></g></g></g></g><g class="relationship"><g transform="translate(535.9247675097305 243.99999999999997) rotate(90)" stroke-width="5" stroke="#000000"><path d="M 59 0 L 505.5991160929291 0"/><polygon points="-24.8621506177483,0 -27.62461179749811,9.20820393249937 0,0 -27.62461179749811,-9.20820393249937" fill="#000000" transform="translate(530.4612667106774 0) rotate(0)" stroke="none"/></g><g transform="translate(535.9247675097305 526.2995580464645) rotate(270) translate(0 -13)"><g transform="translate(0 0)"><g transform="translate(-30.28333282470703 0)" fill="#ffffff" stroke="#000000" stroke-width="0"><rect x="0" y="0" width="60.56666564941406" height="26" rx="5" ry="5" stroke="none"/><text xml:space="preserve" x="5" y="17.5" stroke="none" text-anchor="left" font-family="sans-serif" font-size="16" font-weight="normal" fill="#000000">OWNS</text></g></g></g></g><g class="relationship"><g transform="translate(115.38098023006175 -884.175752134352) rotate(132.24856023530276)" stroke-width="5" stroke="#000000"><path d="M 59 0 L 1044.608953513932 0"/><polygon points="-24.8621506177483,0 -27.62461179749811,9.20820393249937 0,0 -27.62461179749811,-9.20820393249937" fill="#000000" transform="translate(1069.4711041316802 0) rotate(0)" stroke="none"/></g><g transform="translate(-255.62377008466706 -475.71075263875906) rotate(312.24856023530276) translate(0 -13)"><g transform="translate(0 0)"><g transform="translate(-95.51667022705078 0)" fill="#ffffff" stroke="#000000" stroke-width="0"><rect x="0" y="0" width="191.03334045410156" height="26" rx="5" ry="5" stroke="none"/><text xml:space="preserve" x="5" y="17.5" stroke="none" text-anchor="left" font-family="sans-serif" font-size="16" font-weight="normal" fill="#000000">COMMUNICATES_WITH</text></g></g></g></g><g class="relationship"><g transform="translate(-533.8977835430248 -884.175752134352) rotate(0)" stroke-width="5" stroke="#000000"><path d="M 59 0 L 565.4166131553383 0"/><polygon points="-24.8621506177483,0 -27.62461179749811,9.20820393249937 0,0 -27.62461179749811,-9.20820393249937" fill="#000000" transform="translate(590.2787637730866 0) rotate(0)" stroke="none"/></g><g transform="translate(-221.6894769653557 -884.175752134352) rotate(0) translate(0 -13)"><g transform="translate(0 0)"><g transform="translate(-90.16666412353516 0)" fill="#ffffff" stroke="#000000" stroke-width="0"><rect x="0" y="0" width="180.3333282470703" height="26" rx="5" ry="5" stroke="none"/><text xml:space="preserve" x="5" y="17.5" stroke="none" text-anchor="left" font-family="sans-serif" font-size="16" font-weight="normal" fill="#000000">SUPPLIES_RESOURCE</text></g></g></g></g><g class="relationship"><g transform="translate(535.9247675097305 -345.4612667106773) rotate(0)" stroke-width="5" stroke="#000000"><path d="M 59 0 L 363.350821553542 0"/><polygon points="-24.8621506177483,0 -27.62461179749811,9.20820393249937 0,0 -27.62461179749811,-9.20820393249937" fill="#000000" transform="translate(388.2129721712903 0) rotate(0)" stroke="none"/></g><g transform="translate(747.1001782865014 -345.4612667106773) rotate(0) translate(0 -13)"><g transform="translate(0 0)"><g transform="translate(-27.899999618530273 0)" fill="#ffffff" stroke="#000000" stroke-width="0"><rect x="0" y="0" width="55.79999923706055" height="26" rx="5" ry="5" stroke="none"/><text xml:space="preserve" x="5" y="17.5" stroke="none" text-anchor="left" font-family="sans-serif" font-size="16" font-weight="normal" fill="#000000">IS_AN</text></g></g></g></g><g class="relationship"><g transform="translate(535.9247675097305 243.99999999999997) rotate(-52.813105949187985)" stroke-width="5" stroke="#000000"><path d="M 59 0 L 656.0459703205446 0"/><polygon points="-24.8621506177483,0 -27.62461179749811,9.20820393249937 0,0 -27.62461179749811,-9.20820393249937" fill="#000000" transform="translate(680.9081209382929 0) rotate(0)" stroke="none"/></g><g transform="translate(752.0177016031137 -40.82719103488884) rotate(-52.813105949187985) translate(0 -13)"><g transform="translate(0 0)"><g transform="translate(-27.899999618530273 0)" fill="#ffffff" stroke="#000000" stroke-width="0"><rect x="0" y="0" width="55.79999923706055" height="26" rx="5" ry="5" stroke="none"/><text xml:space="preserve" x="5" y="17.5" stroke="none" text-anchor="left" font-family="sans-serif" font-size="16" font-weight="normal" fill="#000000">IS_AN</text></g></g></g></g><g class="relationship"><g transform="translate(1662.8319733904323 243.99999999999997) rotate(-139.06670696882446)" stroke-width="5" stroke="#000000"><path d="M 59 0 L 815.8315952146768 0"/><polygon points="-24.8621506177483,0 -27.62461179749811,9.20820393249937 0,0 -27.62461179749811,-9.20820393249937" fill="#000000" transform="translate(840.6937458324251 0) rotate(0)" stroke="none"/></g><g transform="translate(1332.3761969172601 -42.586042563096356) rotate(40.93329303117554) translate(0 -13)"><g transform="translate(0 0)"><g transform="translate(-55.58333206176758 0)" fill="#ffffff" stroke="#000000" stroke-width="0"><rect x="0" y="0" width="111.16666412353516" height="26" rx="5" ry="5" stroke="none"/><text xml:space="preserve" x="5" y="17.5" stroke="none" text-anchor="left" font-family="sans-serif" font-size="16" font-weight="normal" fill="#000000">WORKS_FOR</text></g></g></g></g><g class="relationship"><g transform="translate(535.9247675097305 833.4612667106774) rotate(-27.613112170094453)" stroke-width="5" stroke="#000000"><path d="M 59 0 L 1187.9021497217473 0"/><polygon points="-24.8621506177483,0 -27.62461179749811,9.20820393249937 0,0 -27.62461179749811,-9.20820393249937" fill="#000000" transform="translate(1212.7643003394955 0) rotate(0)" stroke="none"/></g><g transform="translate(1088.3632253177038 544.4924222309885) rotate(-27.613112170094453) translate(0 -13)"><g transform="translate(0 0)"><g transform="translate(-61.28333282470703 0)" fill="#ffffff" stroke="#000000" stroke-width="0"><rect x="0" y="0" width="122.56666564941406" height="26" rx="5" ry="5" stroke="none"/><text xml:space="preserve" x="5" y="17.5" stroke="none" text-anchor="left" font-family="sans-serif" font-size="16" font-weight="normal" fill="#000000">OPERATED_BY</text></g></g></g></g><g class="relationship"><g transform="translate(1273.9816776973398 243.99999999999997) rotate(0)" stroke-width="5" stroke="#000000"><path d="M 59 0 L 304.98814507534416 0"/><polygon points="-24.8621506177483,0 -27.62461179749811,9.20820393249937 0,0 -27.62461179749811,-9.20820393249937" fill="#000000" transform="translate(329.85029569309245 0) rotate(0)" stroke="none"/></g><g transform="translate(1455.975750235012 243.99999999999997) rotate(0) translate(0 -13)"><g transform="translate(0 0)"><g transform="translate(-61.28333282470703 0)" fill="#ffffff" stroke="#000000" stroke-width="0"><rect x="0" y="0" width="122.56666564941406" height="26" rx="5" ry="5" stroke="none"/><text xml:space="preserve" x="5" y="17.5" stroke="none" text-anchor="left" font-family="sans-serif" font-size="16" font-weight="normal" fill="#000000">OPERATED_BY</text></g></g></g></g><g class="relationship"><g transform="translate(535.9247675097305 243.99999999999997) rotate(0)" stroke-width="5" stroke="#000000"><path d="M 59 0 L 265.34446387676826 0"/><polygon points="-24.8621506177483,0 -27.62461179749811,9.20820393249937 0,0 -27.62461179749811,-9.20820393249937" fill="#000000" transform="translate(290.20661449451654 0) rotate(0)" stroke="none"/></g><g transform="translate(698.0969994481146 243.99999999999997) rotate(0) translate(0 -13)"><g transform="translate(0 0)"><g transform="translate(-30.28333282470703 0)" fill="#ffffff" stroke="#000000" stroke-width="0"><rect x="0" y="0" width="60.56666564941406" height="26" rx="5" ry="5" stroke="none"/><text xml:space="preserve" x="5" y="17.5" stroke="none" text-anchor="left" font-family="sans-serif" font-size="16" font-weight="normal" fill="#000000">OWNS</text></g></g></g></g><g class="relationship"><g transform="translate(885.131382004247 243.99999999999997) rotate(0)" stroke-width="5" stroke="#000000"><path d="M 59 0 L 304.9881450753445 0"/><polygon points="-24.8621506177483,0 -27.62461179749811,9.20820393249937 0,0 -27.62461179749811,-9.20820393249937" fill="#000000" transform="translate(329.8502956930928 0) rotate(0)" stroke="none"/></g><g transform="translate(1067.1254545419192 243.99999999999997) rotate(0) translate(0 -13)"><g transform="translate(0 0)"><g transform="translate(-61.28333282470703 0)" fill="#ffffff" stroke="#000000" stroke-width="0"><rect x="0" y="0" width="122.56666564941406" height="26" rx="5" ry="5" stroke="none"/><text xml:space="preserve" x="5" y="17.5" stroke="none" text-anchor="left" font-family="sans-serif" font-size="16" font-weight="normal" fill="#000000">OPERATED_BY</text></g></g></g></g><g class="relationship"><g transform="translate(-291.9084957065066 833.4612667106774) rotate(0)" stroke-width="5" stroke="#000000"><path d="M 59 0 L 743.9711125984888 0"/><polygon points="-24.8621506177483,0 -27.62461179749811,9.20820393249937 0,0 -27.62461179749811,-9.20820393249937" fill="#000000" transform="translate(768.8332632162371 0) rotate(0)" stroke="none"/></g><g transform="translate(109.57706059273784 833.4612667106774) rotate(0) translate(0 -13)"><g transform="translate(0 0)"><g transform="translate(-61.28333282470703 0)" fill="#ffffff" stroke="#000000" stroke-width="0"><rect x="0" y="0" width="122.56666564941406" height="26" rx="5" ry="5" stroke="none"/><text xml:space="preserve" x="5" y="17.5" stroke="none" text-anchor="left" font-family="sans-serif" font-size="16" font-weight="normal" fill="#000000">OPERATED_BY</text></g></g></g></g><g class="relationship"><g transform="translate(1520.9354515828445 -427.3220401015299) rotate(171.34516836094232)" stroke-width="5" stroke="#000000"><path d="M 59 0 L 460.1300967047531 0"/><polygon points="-24.8621506177483,0 -27.62461179749811,9.20820393249937 0,0 -27.62461179749811,-9.20820393249937" fill="#000000" transform="translate(484.9922473225014 0) rotate(0)" stroke="none"/></g><g transform="translate(1264.3261160993602 -388.2623003571825) rotate(351.34516836094235) translate(0 -13)"><g transform="translate(0 0)"><g transform="translate(-85.9000015258789 0)" fill="#ffffff" stroke="#000000" stroke-width="0"><rect x="0" y="0" width="171.8000030517578" height="26" rx="5" ry="5" stroke="none"/><text xml:space="preserve" x="5" y="17.5" stroke="none" text-anchor="left" font-family="sans-serif" font-size="16" font-weight="normal" fill="#000000">SUPPLIES_COMPUTE</text></g></g></g></g><g class="relationship"><g transform="translate(-643.3445427782566 -48.84191851097512) rotate(-153.29592451811388)" stroke-width="5" stroke="#000000"><path d="M 59 0 L 947.7920972395752 0"/><polygon points="-24.8621506177483,0 -27.62461179749811,9.20820393249937 0,0 -27.62461179749811,-9.20820393249937" fill="#000000" transform="translate(972.6542478573235 0) rotate(0)" stroke="none"/></g><g transform="translate(-1093.0480797760551 -275.0593152285691) rotate(26.704075481886118) translate(0 -13)"><g transform="translate(0 0)"><g transform="translate(-50.83333206176758 0)" fill="#ffffff" stroke="#000000" stroke-width="0"><rect x="0" y="0" width="101.66666412353516" height="26" rx="5" ry="5" stroke="none"/><text xml:space="preserve" x="5" y="17.5" stroke="none" text-anchor="left" font-family="sans-serif" font-size="16" font-weight="normal" fill="#000000">CONSUMES</text></g></g></g></g><g class="relationship"><g transform="translate(-643.3445427782566 -48.84191851097512) rotate(154.37549330096428)" stroke-width="5" stroke="#000000"><path d="M 58.695178092152055 -5.989663490593891 L 95.96898050729243 -9.793341079425122 A 40 40 0 0 1 100.02976931447472 -10 L 511.0740502054301 -10 L 922.1183310963854 -10 A 40 40 0 0 1 926.1791199035678 -9.793341079425124 L 938.7192213312057 -8.51366206436971 L 938.7192213312057 -8.51366206436971"/><polygon points="-24.8621506177483,0 -27.62461179749811,9.20820393249937 0,0 -27.62461179749811,-9.20820393249937" fill="#000000" transform="translate(1022.1481004108603 0) rotate(5.826689442008371) translate(-59 0)" stroke="none"/></g><g transform="translate(-1099.8285350198432 181.1994899801171) rotate(334.37549330096425) translate(0 -13)"><g transform="translate(0 0)"><g transform="translate(-32.13333320617676 0)" fill="#ffffff" stroke="#000000" stroke-width="0"><rect x="0" y="0" width="64.26666641235352" height="26" rx="5" ry="5" stroke="none"/><text xml:space="preserve" x="5" y="17.5" stroke="none" text-anchor="left" font-family="sans-serif" font-size="16" font-weight="normal" fill="#000000">QUERY</text></g></g></g></g><g class="relationship"><g transform="translate(-1564.9619561295724 393.2079458495516) rotate(-25.62450669903573)" stroke-width="5" stroke="#000000"><path d="M 58.695178092152055 -5.989663490593891 L 95.96898050729243 -9.793341079425122 A 40 40 0 0 1 100.02976931447472 -10 L 511.0740502054301 -10 L 922.1183310963854 -10 A 40 40 0 0 1 926.1791199035678 -9.793341079425124 L 938.7192213312057 -8.51366206436971 L 938.7192213312057 -8.51366206436971"/><polygon points="-24.8621506177483,0 -27.62461179749811,9.20820393249937 0,0 -27.62461179749811,-9.20820393249937" fill="#000000" transform="translate(1022.1481004108603 0) rotate(5.826689442008371) translate(-59 0)" stroke="none"/></g><g transform="translate(-1108.4779638879857 163.16653735845946) rotate(-25.62450669903573) translate(0 -13)"><g transform="translate(0 0)"><g transform="translate(-45.66666793823242 0)" fill="#ffffff" stroke="#000000" stroke-width="0"><rect x="0" y="0" width="91.33333587646484" height="26" rx="5" ry="5" stroke="none"/><text xml:space="preserve" x="5" y="17.5" stroke="none" text-anchor="left" font-family="sans-serif" font-size="16" font-weight="normal" fill="#000000">PROVIDES</text></g></g></g></g><g class="relationship"><g transform="translate(-1042.6931371994528 902.3842308645951) rotate(-67.22611415550543)" stroke-width="5" stroke="#000000"><path d="M 59 0 L 947.7920972395752 0"/><polygon points="-24.8621506177483,0 -27.62461179749811,9.20820393249937 0,0 -27.62461179749811,-9.20820393249937" fill="#000000" transform="translate(972.6542478573235 0) rotate(0)" stroke="none"/></g><g transform="translate(-847.8308518252364 438.2331008382286) rotate(-67.22611415550543) translate(0 -13)"><g transform="translate(0 0)"><g transform="translate(-45.66666793823242 0)" fill="#ffffff" stroke="#000000" stroke-width="0"><rect x="0" y="0" width="91.33333587646484" height="26" rx="5" ry="5" stroke="none"/><text xml:space="preserve" x="5" y="17.5" stroke="none" text-anchor="left" font-family="sans-serif" font-size="16" font-weight="normal" fill="#000000">PROVIDES</text></g></g></g></g><g class="relationship"><g transform="translate(-1852.6894880432885 329.63424530607125) rotate(12.459383725656885)" stroke-width="5" stroke="#000000"><path d="M 59 0 L 210.80503116867092 0"/><polygon points="-24.8621506177483,0 -27.62461179749811,9.20820393249937 0,0 -27.62461179749811,-9.20820393249937" fill="#000000" transform="translate(235.66718178641923 0) rotate(0)" stroke="none"/></g><g transform="translate(-1720.9640355422139 358.73912246384367) rotate(12.459383725656885) translate(0 -13)"><g transform="translate(0 0)"><g transform="translate(-45.66666793823242 0)" fill="#ffffff" stroke="#000000" stroke-width="0"><rect x="0" y="0" width="91.33333587646484" height="26" rx="5" ry="5" stroke="none"/><text xml:space="preserve" x="5" y="17.5" stroke="none" text-anchor="left" font-family="sans-serif" font-size="16" font-weight="normal" fill="#000000">PROVIDES</text></g></g></g></g><g class="relationship"><g transform="translate(-1820.151221218193 540.5415367427697) rotate(-30.00000000000003)" stroke-width="5" stroke="#000000"><path d="M 59 0 L 210.80503116868763 0"/><polygon points="-24.8621506177483,0 -27.62461179749811,9.20820393249937 0,0 -27.62461179749811,-9.20820393249937" fill="#000000" transform="translate(235.66718178643595 0) rotate(0)" stroke="none"/></g><g transform="translate(-1703.3222156877252 473.09027895059774) rotate(-30.00000000000003) translate(0 -13)"><g transform="translate(0 0)"><g transform="translate(-45.66666793823242 0)" fill="#ffffff" stroke="#000000" stroke-width="0"><rect x="0" y="0" width="91.33333587646484" height="26" rx="5" ry="5" stroke="none"/><text xml:space="preserve" x="5" y="17.5" stroke="none" text-anchor="left" font-family="sans-serif" font-size="16" font-weight="normal" fill="#000000">PROVIDES</text></g></g></g></g><g class="relationship"><g transform="translate(-1282.9762263767464 1142.6673200418886) rotate(-45)" stroke-width="5" stroke="#000000"><path d="M 59 0 L 255.949452905684 0"/><polygon points="-24.8621506177483,0 -27.62461179749811,9.20820393249937 0,0 -27.62461179749811,-9.20820393249937" fill="#000000" transform="translate(280.8116035234323 0) rotate(0)" stroke="none"/></g><g transform="translate(-1171.6247794364451 1031.3158731015874) rotate(-45) translate(0 -13)"><g transform="translate(0 0)"><g transform="translate(-59.41666793823242 0)" fill="#ffffff" stroke="#000000" stroke-width="0"><rect x="0" y="0" width="118.83333587646484" height="26" rx="5" ry="5" stroke="none"/><text xml:space="preserve" x="5" y="17.5" stroke="none" text-anchor="left" font-family="sans-serif" font-size="16" font-weight="normal" fill="#000000">AGGREGATES</text></g></g></g></g><g class="relationship"><g transform="translate(-857.1175838656707 1187.048313414584) rotate(-123.10075885887498)" stroke-width="5" stroke="#000000"><path d="M 59 0 L 255.949452905684 0"/><polygon points="-24.8621506177483,0 -27.62461179749811,9.20820393249937 0,0 -27.62461179749811,-9.20820393249937" fill="#000000" transform="translate(280.8116035234323 0) rotate(0)" stroke="none"/></g><g transform="translate(-943.1165880037297 1055.129926679984) rotate(56.899241141125025) translate(0 -13)"><g transform="translate(0 0)"><g transform="translate(-67.08333206176758 0)" fill="#ffffff" stroke="#000000" stroke-width="0"><rect x="0" y="0" width="134.16666412353516" height="26" rx="5" ry="5" stroke="none"/><text xml:space="preserve" x="5" y="17.5" stroke="none" text-anchor="left" font-family="sans-serif" font-size="16" font-weight="normal" fill="#000000">ABSTRACTS_TO</text></g></g></g></g><g class="relationship"><g transform="translate(-1853.1178834415737 -506.4031396004548) rotate(-1.2020237801583127)" stroke-width="5" stroke="#000000"><path d="M 59 0 L 204.35720134248007 0"/><polygon points="-24.8621506177483,0 -27.62461179749811,9.20820393249937 0,0 -27.62461179749811,-9.20820393249937" fill="#000000" transform="translate(229.21935196022838 0) rotate(0)" stroke="none"/></g><g transform="translate(-1721.4682595509344 -509.1654582260098) rotate(-1.2020237801583127) translate(0 -13)"><g transform="translate(0 0)"><g transform="translate(-45.66666793823242 0)" fill="#ffffff" stroke="#000000" stroke-width="0"><rect x="0" y="0" width="91.33333587646484" height="26" rx="5" ry="5" stroke="none"/><text xml:space="preserve" x="5" y="17.5" stroke="none" text-anchor="left" font-family="sans-serif" font-size="16" font-weight="normal" fill="#000000">PROVIDES</text></g></g></g></g><g class="relationship"><g transform="translate(-1853.1178834415737 -339.5723400157242) rotate(-30.961334183602258)" stroke-width="5" stroke="#000000"><path d="M 59 0 L 252.17399560380355 0"/><polygon points="-24.8621506177483,0 -27.62461179749811,9.20820393249937 0,0 -27.62461179749811,-9.20820393249937" fill="#000000" transform="translate(277.03614622155186 0) rotate(0)" stroke="none"/></g><g transform="translate(-1719.699749311032 -419.6155494099869) rotate(-30.961334183602258) translate(0 -13)"><g transform="translate(0 0)"><g transform="translate(-45.66666793823242 0)" fill="#ffffff" stroke="#000000" stroke-width="0"><rect x="0" y="0" width="91.33333587646484" height="26" rx="5" ry="5" stroke="none"/><text xml:space="preserve" x="5" y="17.5" stroke="none" text-anchor="left" font-family="sans-serif" font-size="16" font-weight="normal" fill="#000000">PROVIDES</text></g></g></g></g><g class="relationship"><g transform="translate(-1705.2534167826987 -207.09936914287) rotate(-65.32382885466211)" stroke-width="5" stroke="#000000"><path d="M 59 0 L 252.17399560380355 0"/><polygon points="-24.8621506177483,0 -27.62461179749811,9.20820393249937 0,0 -27.62461179749811,-9.20820393249937" fill="#000000" transform="translate(277.03614622155186 0) rotate(0)" stroke="none"/></g><g transform="translate(-1640.2975260974376 -348.47845582224204) rotate(-65.32382885466211) translate(0 -13)"><g transform="translate(0 0)"><g transform="translate(-45.66666793823242 0)" fill="#ffffff" stroke="#000000" stroke-width="0"><rect x="0" y="0" width="91.33333587646484" height="26" rx="5" ry="5" stroke="none"/><text xml:space="preserve" x="5" y="17.5" stroke="none" text-anchor="left" font-family="sans-serif" font-size="16" font-weight="normal" fill="#000000">PROVIDES</text></g></g></g></g><g class="relationship"><g transform="translate(-291.9084957065066 833.4612667106774) rotate(100.12067573110642)" stroke-width="5" stroke="#000000"><path d="M 59 0 L 978.9273737521703 0"/><polygon points="-24.8621506177483,0 -27.62461179749811,9.20820393249937 0,0 -27.62461179749811,-9.20820393249937" fill="#000000" transform="translate(1003.7895243699186 0) rotate(0)" stroke="none"/></g><g transform="translate(-383.1018233884042 1344.3497920098089) rotate(280.1206757311065) translate(0 -13)"><g transform="translate(0 0)"><g transform="translate(-76.9000015258789 0)" fill="#ffffff" stroke="#000000" stroke-width="0"><rect x="0" y="0" width="153.8000030517578" height="26" rx="5" ry="5" stroke="none"/><text xml:space="preserve" x="5" y="17.5" stroke="none" text-anchor="left" font-family="sans-serif" font-size="16" font-weight="normal" fill="#000000">IS_DESCRIBED_BY</text></g></g></g></g><g class="relationship"><g transform="translate(-291.9084957065066 833.4612667106774) rotate(68.07810100416835)" stroke-width="5" stroke="#000000"><path d="M 59 0 L 338.8232151604423 0"/><polygon points="-24.8621506177483,0 -27.62461179749811,9.20820393249937 0,0 -27.62461179749811,-9.20820393249937" fill="#000000" transform="translate(363.6853657781906 0) rotate(0)" stroke="none"/></g><g transform="translate(-217.64636208071153 1017.9902973250836) rotate(68.07810100416835) translate(0 -13)"><g transform="translate(0 0)"><g transform="translate(-56.21666717529297 0)" fill="#ffffff" stroke="#000000" stroke-width="0"><rect x="0" y="0" width="112.43333435058594" height="26" rx="5" ry="5" stroke="none"/><text xml:space="preserve" x="5" y="17.5" stroke="none" text-anchor="left" font-family="sans-serif" font-size="16" font-weight="normal" fill="#000000">DEPLOYS_TO</text></g></g></g></g><g class="relationship"><g transform="translate(-134.10213389110254 1552.6486976628469) rotate(-90)" stroke-width="5" stroke="#000000"><path d="M 59 0 L 243.20276043327019 0"/><polygon points="-24.8621506177483,0 -27.62461179749811,9.20820393249937 0,0 -27.62461179749811,-9.20820393249937" fill="#000000" transform="translate(268.0649110510185 0) rotate(0)" stroke="none"/></g><g transform="translate(-134.10213389110254 1401.5473174462118) rotate(90) translate(0 -13)"><g transform="translate(0 0)"><g transform="translate(-50.96666717529297 0)" fill="#ffffff" stroke="#000000" stroke-width="0"><rect x="0" y="0" width="101.93333435058594" height="26" rx="5" ry="5" stroke="none"/><text xml:space="preserve" x="5" y="17.5" stroke="none" text-anchor="left" font-family="sans-serif" font-size="16" font-weight="normal" fill="#000000">INVENTORY</text></g></g></g></g><g class="relationship"><g transform="translate(-478.6639774554558 2206.7785197648836) rotate(-90)" stroke-width="5" stroke="#000000"><path d="M 59 0 L 243.20276043326996 0"/><polygon points="-24.8621506177483,0 -27.62461179749811,9.20820393249937 0,0 -27.62461179749811,-9.20820393249937" fill="#000000" transform="translate(268.06491105101827 0) rotate(0)" stroke="none"/></g><g transform="translate(-478.6639774554558 2055.6771395482488) rotate(90) translate(0 -13)"><g transform="translate(0 0)"><g transform="translate(-46.03333282470703 0)" fill="#ffffff" stroke="#000000" stroke-width="0"><rect x="0" y="0" width="92.06666564941406" height="26" rx="5" ry="5" stroke="none"/><text xml:space="preserve" x="5" y="17.5" stroke="none" text-anchor="left" font-family="sans-serif" font-size="16" font-weight="normal" fill="#000000">CONTAINS</text></g></g></g></g><g class="relationship"><g transform="translate(-1799.9806258429326 -679.2924275673856) rotate(35.37148466300995)" stroke-width="5" stroke="#000000"><path d="M 59 0 L 204.35720134248 0"/><polygon points="-24.8621506177483,0 -27.62461179749811,9.20820393249937 0,0 -27.62461179749811,-9.20820393249937" fill="#000000" transform="translate(229.21935196022832 0) rotate(0)" stroke="none"/></g><g transform="translate(-1692.607788630593 -603.0669219691391) rotate(35.37148466300995) translate(0 -13)"><g transform="translate(0 0)"><g transform="translate(-45.66666793823242 0)" fill="#ffffff" stroke="#000000" stroke-width="0"><rect x="0" y="0" width="91.33333587646484" height="26" rx="5" ry="5" stroke="none"/><text xml:space="preserve" x="5" y="17.5" stroke="none" text-anchor="left" font-family="sans-serif" font-size="16" font-weight="normal" fill="#000000">PROVIDES</text></g></g></g></g><g class="relationship"><g transform="translate(-1632.4316474996645 680.0469054913254) rotate(-76.76361165053602)" stroke-width="5" stroke="#000000"><path d="M 59 0 L 210.80503116867092 0"/><polygon points="-24.8621506177483,0 -27.62461179749811,9.20820393249937 0,0 -27.62461179749811,-9.20820393249937" fill="#000000" transform="translate(235.66718178641923 0) rotate(0)" stroke="none"/></g><g transform="translate(-1601.543134444548 548.7282530758146) rotate(-76.76361165053602) translate(0 -13)"><g transform="translate(0 0)"><g transform="translate(-45.66666793823242 0)" fill="#ffffff" stroke="#000000" stroke-width="0"><rect x="0" y="0" width="91.33333587646484" height="26" rx="5" ry="5" stroke="none"/><text xml:space="preserve" x="5" y="17.5" stroke="none" text-anchor="left" font-family="sans-serif" font-size="16" font-weight="normal" fill="#000000">PROVIDES</text></g></g></g></g><g class="relationship"><g transform="translate(-1381.6572344331305 623.9201627470117) rotate(-128.46773005787634)" stroke-width="5" stroke="#000000"><path d="M 59 0 L 210.80503116867098 0"/><polygon points="-24.8621506177483,0 -27.62461179749811,9.20820393249937 0,0 -27.62461179749811,-9.20820393249937" fill="#000000" transform="translate(235.6671817864193 0) rotate(0)" stroke="none"/></g><g transform="translate(-1465.5765495242154 518.2970721577608) rotate(51.53226994212365) translate(0 -13)"><g transform="translate(0 0)"><g transform="translate(-45.66666793823242 0)" fill="#ffffff" stroke="#000000" stroke-width="0"><rect x="0" y="0" width="91.33333587646484" height="26" rx="5" ry="5" stroke="none"/><text xml:space="preserve" x="5" y="17.5" stroke="none" text-anchor="left" font-family="sans-serif" font-size="16" font-weight="normal" fill="#000000">PROVIDES</text></g></g></g></g><g class="relationship"><g transform="translate(-1564.9619561295724 -512.4493284276954) rotate(90)" stroke-width="5" stroke="#000000"><path d="M 59 0 L 821.7951236594987 0"/><polygon points="-24.8621506177483,0 -27.62461179749811,9.20820393249937 0,0 -27.62461179749811,-9.20820393249937" fill="#000000" transform="translate(846.657274277247 0) rotate(0)" stroke="none"/></g><g transform="translate(-1564.9619561295724 -72.05176659794603) rotate(270) translate(0 -13)"><g transform="translate(0 0)"><g transform="translate(-67.11666488647461 0)" fill="#ffffff" stroke="#000000" stroke-width="0"><rect x="0" y="0" width="134.23332977294922" height="26" rx="5" ry="5" stroke="none"/><text xml:space="preserve" x="5" y="17.5" stroke="none" text-anchor="left" font-family="sans-serif" font-size="16" font-weight="normal" fill="#000000">DERIVES_FROM</text></g></g></g></g><g class="relationship"><g transform="translate(115.38098023006175 -884.175752134352) rotate(97.33645186685231)" stroke-width="5" stroke="#000000"><path d="M 59 0 L 459.29897621706573 0"/><polygon points="-24.8621506177483,0 -27.62461179749811,9.20820393249937 0,0 -27.62461179749811,-9.20820393249937" fill="#000000" transform="translate(484.161126834814 0) rotate(0)" stroke="none"/></g><g transform="translate(82.28872278597085 -627.147816523904) rotate(277.3364518668523) translate(0 -13)"><g transform="translate(0 0)"><g transform="translate(-85.51667022705078 0)" fill="#ffffff" stroke="#000000" stroke-width="0"><rect x="0" y="0" width="171.03334045410156" height="26" rx="5" ry="5" stroke="none"/><text xml:space="preserve" x="5" y="17.5" stroke="none" text-anchor="left" font-family="sans-serif" font-size="16" font-weight="normal" fill="#000000">COMMUNICATES_TO</text></g></g></g></g><g class="relationship"><g transform="translate(1463.7935119184829 -600.2113280684607) rotate(152.07617743708272)" stroke-width="5" stroke="#000000"><path d="M 59 0 L 460.1300967047531 0"/><polygon points="-24.8621506177483,0 -27.62461179749811,9.20820393249937 0,0 -27.62461179749811,-9.20820393249937" fill="#000000" transform="translate(484.9922473225014 0) rotate(0)" stroke="none"/></g><g transform="translate(1234.4493634021494 -478.65773549510413) rotate(332.0761774370828) translate(0 -13)"><g transform="translate(0 0)"><g transform="translate(-84.5999984741211 0)" fill="#ffffff" stroke="#000000" stroke-width="0"><rect x="0" y="0" width="169.1999969482422" height="26" rx="5" ry="5" stroke="none"/><text xml:space="preserve" x="5" y="17.5" stroke="none" text-anchor="left" font-family="sans-serif" font-size="16" font-weight="normal" fill="#000000">SUPPLIES_STORAGE</text></g></g></g></g><g class="relationship"><g transform="translate(210.45970967325127 1552.6486976628469) rotate(-136.4923075637973)" stroke-width="5" stroke="#000000"><path d="M 59 0 L 391.21081228508507 0"/><polygon points="-24.8621506177483,0 -27.62461179749811,9.20820393249937 0,0 -27.62461179749811,-9.20820393249937" fill="#000000" transform="translate(416.07296290283335 0) rotate(0)" stroke="none"/></g><g transform="translate(47.194822396050085 1397.6744402619424) rotate(43.507692436202696) translate(0 -13)"><g transform="translate(0 0)"><g transform="translate(-56.45000076293945 0)" fill="#ffffff" stroke="#000000" stroke-width="0"><rect x="0" y="0" width="112.9000015258789" height="26" rx="5" ry="5" stroke="none"/><text xml:space="preserve" x="5" y="17.5" stroke="none" text-anchor="left" font-family="sans-serif" font-size="16" font-weight="normal" fill="#000000">VIRTUALIZES</text></g></g></g></g><g class="relationship"><g transform="translate(-291.9084957065066 833.4612667106774) rotate(-54.92366926413574)" stroke-width="5" stroke="#000000"><path d="M 59 0 L 1356.681584051862 0"/><polygon points="-24.8621506177483,0 -27.62461179749811,9.20820393249937 0,0 -27.62461179749811,-9.20820393249937" fill="#000000" transform="translate(1381.5437346696103 0) rotate(0)" stroke="none"/></g><g transform="translate(114.8644044128958 254.17343274180485) rotate(-54.92366926413574) translate(0 -13)"><g transform="translate(0 0)"><g transform="translate(-50.349998474121094 0)" fill="#ffffff" stroke="#000000" stroke-width="0"><rect x="0" y="0" width="100.69999694824219" height="26" rx="5" ry="5" stroke="none"/><text xml:space="preserve" x="5" y="17.5" stroke="none" text-anchor="left" font-family="sans-serif" font-size="16" font-weight="normal" fill="#000000">OWNED_BY</text></g></g></g></g><g class="relationship"><g transform="translate(-291.9084957065066 833.4612667106774) rotate(-90)" stroke-width="5" stroke="#000000"><path d="M 59 0 L 391.99526181185803 0"/><polygon points="-24.8621506177483,0 -27.62461179749811,9.20820393249937 0,0 -27.62461179749811,-9.20820393249937" fill="#000000" transform="translate(416.8574124296063 0) rotate(0)" stroke="none"/></g><g transform="translate(-291.9084957065066 607.9636358047484) rotate(90) translate(0 -13)"><g transform="translate(0 0)"><g transform="translate(-84.26667022705078 0)" fill="#ffffff" stroke="#000000" stroke-width="0"><rect x="0" y="0" width="168.53334045410156" height="26" rx="5" ry="5" stroke="none"/><text xml:space="preserve" x="5" y="17.5" stroke="none" text-anchor="left" font-family="sans-serif" font-size="16" font-weight="normal" fill="#000000">COMMUNICATES_BY</text></g></g></g></g><g class="relationship"><g transform="translate(-291.9084957065066 357.60385428107105) rotate(-78.17855246178749)" stroke-width="5" stroke="#000000"><path d="M 59 0 L 331.3908174066448 0"/><polygon points="-24.8621506177483,0 -27.62461179749811,9.20820393249937 0,0 -27.62461179749811,-9.20820393249937" fill="#000000" transform="translate(356.2529680243931 0) rotate(0)" stroke="none"/></g><g transform="translate(-251.92028466676493 166.54838967275853) rotate(-78.17855246178749) translate(0 -13)"><g transform="translate(0 0)"><g transform="translate(-48.61666488647461 0)" fill="#ffffff" stroke="#000000" stroke-width="0"><rect x="0" y="0" width="97.23332977294922" height="26" rx="5" ry="5" stroke="none"/><text xml:space="preserve" x="5" y="17.5" stroke="none" text-anchor="left" font-family="sans-serif" font-size="16" font-weight="normal" fill="#000000">CHANNELS</text></g></g></g></g><g class="relationship"><g transform="translate(-1649.6221232938433 -787.9544117566454) rotate(72.91829045928682)" stroke-width="5" stroke="#000000"><path d="M 59 0 L 204.35720134248007 0"/><polygon points="-24.8621506177483,0 -27.62461179749811,9.20820393249937 0,0 -27.62461179749811,-9.20820393249937" fill="#000000" transform="translate(229.21935196022838 0) rotate(0)" stroke="none"/></g><g transform="translate(-1610.943484024948 -662.0845712902233) rotate(72.91829045928682) translate(0 -13)"><g transform="translate(0 0)"><g transform="translate(-45.66666793823242 0)" fill="#ffffff" stroke="#000000" stroke-width="0"><rect x="0" y="0" width="91.33333587646484" height="26" rx="5" ry="5" stroke="none"/><text xml:space="preserve" x="5" y="17.5" stroke="none" text-anchor="left" font-family="sans-serif" font-size="16" font-weight="normal" fill="#000000">PROVIDES</text></g></g></g></g><g class="relationship"><g transform="translate(-1464.1898903190652 -782.4778187702086) rotate(110.46509625556374)" stroke-width="5" stroke="#000000"><path d="M 59 0 L 204.35720134248 0"/><polygon points="-24.8621506177483,0 -27.62461179749811,9.20820393249937 0,0 -27.62461179749811,-9.20820393249937" fill="#000000" transform="translate(229.21935196022832 0) rotate(0)" stroke="none"/></g><g transform="translate(-1510.2295629587732 -659.1100660227244) rotate(290.4650962555637) translate(0 -13)"><g transform="translate(0 0)"><g transform="translate(-45.66666793823242 0)" fill="#ffffff" stroke="#000000" stroke-width="0"><rect x="0" y="0" width="91.33333587646484" height="26" rx="5" ry="5" stroke="none"/><text xml:space="preserve" x="5" y="17.5" stroke="none" text-anchor="left" font-family="sans-serif" font-size="16" font-weight="normal" fill="#000000">PROVIDES</text></g></g></g></g><g class="relationship"><g transform="translate(-1315.3566754697267 -656.5590044078094) rotate(149.99999999999997)" stroke-width="5" stroke="#000000"><path d="M 59 0 L 204.35720134247973 0"/><polygon points="-24.8621506177483,0 -27.62461179749811,9.20820393249937 0,0 -27.62461179749811,-9.20820393249937" fill="#000000" transform="translate(229.21935196022804 0) rotate(0)" stroke="none"/></g><g transform="translate(-1429.393688785807 -590.7197040721894) rotate(329.99999999999994) translate(0 -13)"><g transform="translate(0 0)"><g transform="translate(-45.66666793823242 0)" fill="#ffffff" stroke="#000000" stroke-width="0"><rect x="0" y="0" width="91.33333587646484" height="26" rx="5" ry="5" stroke="none"/><text xml:space="preserve" x="5" y="17.5" stroke="none" text-anchor="left" font-family="sans-serif" font-size="16" font-weight="normal" fill="#000000">PROVIDES</text></g></g></g></g><g class="relationship"><g transform="translate(-206.83875236291794 -48.84191851097512) rotate(-49.5532542940735)" stroke-width="5" stroke="#000000"><path d="M 59 0 L 305.90885218965593 0"/><polygon points="-24.8621506177483,0 -27.62461179749811,9.20820393249937 0,0 -27.62461179749811,-9.20820393249937" fill="#000000" transform="translate(330.7710028074042 0) rotate(0)" stroke="none"/></g><g transform="translate(-88.47308573070927 -187.69142900455188) rotate(-49.5532542940735) translate(0 -13)"><g transform="translate(0 0)"><g transform="translate(-85.51667022705078 0)" fill="#ffffff" stroke="#000000" stroke-width="0"><rect x="0" y="0" width="171.03334045410156" height="26" rx="5" ry="5" stroke="none"/><text xml:space="preserve" x="5" y="17.5" stroke="none" text-anchor="left" font-family="sans-serif" font-size="16" font-weight="normal" fill="#000000">COMMUNICATES_TO</text></g></g></g></g><g class="relationship"><g transform="translate(-1076.7783105429032 1229.4491419156136) rotate(-84.05037942943748)" stroke-width="5" stroke="#000000"><path d="M 59 0 L 244.9740625380775 0"/><polygon points="-24.8621506177483,0 -27.62461179749811,9.20820393249937 0,0 -27.62461179749811,-9.20820393249937" fill="#000000" transform="translate(269.8362131558258 0) rotate(0)" stroke="none"/></g><g transform="translate(-1061.0242539654828 1078.2808007348915) rotate(-84.05037942943748) translate(0 -13)"><g transform="translate(0 0)"><g transform="translate(-59.41666793823242 0)" fill="#ffffff" stroke="#000000" stroke-width="0"><rect x="0" y="0" width="118.83333587646484" height="26" rx="5" ry="5" stroke="none"/><text xml:space="preserve" x="5" y="17.5" stroke="none" text-anchor="left" font-family="sans-serif" font-size="16" font-weight="normal" fill="#000000">AGGREGATES</text></g></g></g></g><g class="relationship"><g transform="translate(-134.10213389110254 2206.7785197648836) rotate(-90)" stroke-width="5" stroke="#000000"><path d="M 59 0 L 243.20276043326996 0"/><polygon points="-24.8621506177483,0 -27.62461179749811,9.20820393249937 0,0 -27.62461179749811,-9.20820393249937" fill="#000000" transform="translate(268.06491105101827 0) rotate(0)" stroke="none"/></g><g transform="translate(-134.10213389110254 2055.6771395482488) rotate(90) translate(0 -13)"><g transform="translate(0 0)"><g transform="translate(-46.03333282470703 0)" fill="#ffffff" stroke="#000000" stroke-width="0"><rect x="0" y="0" width="92.06666564941406" height="26" rx="5" ry="5" stroke="none"/><text xml:space="preserve" x="5" y="17.5" stroke="none" text-anchor="left" font-family="sans-serif" font-size="16" font-weight="normal" fill="#000000">CONTAINS</text></g></g></g></g><g class="relationship"><g transform="translate(210.45970967325127 2206.7785197648836) rotate(-90)" stroke-width="5" stroke="#000000"><path d="M 59 0 L 243.20276043326996 0"/><polygon points="-24.8621506177483,0 -27.62461179749811,9.20820393249937 0,0 -27.62461179749811,-9.20820393249937" fill="#000000" transform="translate(268.06491105101827 0) rotate(0)" stroke="none"/></g><g transform="translate(210.45970967325127 2055.6771395482488) rotate(90) translate(0 -13)"><g transform="translate(0 0)"><g transform="translate(-46.03333282470703 0)" fill="#ffffff" stroke="#000000" stroke-width="0"><rect x="0" y="0" width="92.06666564941406" height="26" rx="5" ry="5" stroke="none"/><text xml:space="preserve" x="5" y="17.5" stroke="none" text-anchor="left" font-family="sans-serif" font-size="16" font-weight="normal" fill="#000000">CONTAINS</text></g></g></g></g><g class="relationship"><g transform="translate(-134.10213389110254 1552.6486976628469) rotate(90)" stroke-width="5" stroke="#000000"><path d="M 59 0 L 243.20276043327019 0"/><polygon points="-24.8621506177483,0 -27.62461179749811,9.20820393249937 0,0 -27.62461179749811,-9.20820393249937" fill="#000000" transform="translate(268.0649110510185 0) rotate(0)" stroke="none"/></g><g transform="translate(-134.10213389110254 1703.750077879482) rotate(270) translate(0 -13)"><g transform="translate(0 0)"><g transform="translate(-76.9000015258789 0)" fill="#ffffff" stroke="#000000" stroke-width="0"><rect x="0" y="0" width="153.8000030517578" height="26" rx="5" ry="5" stroke="none"/><text xml:space="preserve" x="5" y="17.5" stroke="none" text-anchor="left" font-family="sans-serif" font-size="16" font-weight="normal" fill="#000000">IS_DESCRIBED_BY</text></g></g></g></g><g class="relationship"><g transform="translate(210.45970967325127 1552.6486976628469) rotate(90)" stroke-width="5" stroke="#000000"><path d="M 59 0 L 243.20276043327019 0"/><polygon points="-24.8621506177483,0 -27.62461179749811,9.20820393249937 0,0 -27.62461179749811,-9.20820393249937" fill="#000000" transform="translate(268.0649110510185 0) rotate(0)" stroke="none"/></g><g transform="translate(210.45970967325127 1703.750077879482) rotate(270) translate(0 -13)"><g transform="translate(0 0)"><g transform="translate(-76.9000015258789 0)" fill="#ffffff" stroke="#000000" stroke-width="0"><rect x="0" y="0" width="153.8000030517578" height="26" rx="5" ry="5" stroke="none"/><text xml:space="preserve" x="5" y="17.5" stroke="none" text-anchor="left" font-family="sans-serif" font-size="16" font-weight="normal" fill="#000000">IS_DESCRIBED_BY</text></g></g></g></g><g class="relationship"><g transform="translate(-1381.6572344331305 -230.81184766346513) rotate(-123.05822898939381)" stroke-width="5" stroke="#000000"><path d="M 59 0 L 252.17399560380355 0"/><polygon points="-24.8621506177483,0 -27.62461179749811,9.20820393249937 0,0 -27.62461179749811,-9.20820393249937" fill="#000000" transform="translate(277.03614622155186 0) rotate(0)" stroke="none"/></g><g transform="translate(-1466.5285545346862 -361.2118971620303) rotate(56.94177101060618) translate(0 -13)"><g transform="translate(0 0)"><g transform="translate(-45.66666793823242 0)" fill="#ffffff" stroke="#000000" stroke-width="0"><rect x="0" y="0" width="91.33333587646484" height="26" rx="5" ry="5" stroke="none"/><text xml:space="preserve" x="5" y="17.5" stroke="none" text-anchor="left" font-family="sans-serif" font-size="16" font-weight="normal" fill="#000000">PROVIDES</text></g></g></g></g><g class="relationship"><g transform="translate(-478.6639774554558 2533.843430815902) rotate(-90)" stroke-width="5" stroke="#000000"><path d="M 59 0 L 243.20276043327019 0"/><polygon points="-24.8621506177483,0 -27.62461179749811,9.20820393249937 0,0 -27.62461179749811,-9.20820393249937" fill="#000000" transform="translate(268.0649110510185 0) rotate(0)" stroke="none"/></g><g transform="translate(-478.6639774554558 2382.742050599267) rotate(90) translate(0 -13)"><g transform="translate(0 0)"><g transform="translate(-45.66666793823242 0)" fill="#ffffff" stroke="#000000" stroke-width="0"><rect x="0" y="0" width="91.33333587646484" height="26" rx="5" ry="5" stroke="none"/><text xml:space="preserve" x="5" y="17.5" stroke="none" text-anchor="left" font-family="sans-serif" font-size="16" font-weight="normal" fill="#000000">PROVIDES</text></g></g></g></g><g class="node"><g fill="#a4dd00" stroke="#000000" stroke-width="4"><circle cx="115.38098023006175" cy="-884.175752134352" r="52"/></g><g transform="translate(115.38098023006175 -884.175752134352)"><g transform="scale(0.4414068085937499) translate(0 0)"><g transform="translate(0 0)"><g font-family="sans-serif" font-size="50" font-weight="normal" fill="#000000" text-anchor="middle"><text xml:space="preserve" x="0" y="-45.5" stroke="none">CIM</text><text xml:space="preserve" x="0" y="14.5" stroke="none" text-anchor="middle">Domain</text></g></g></g></g></g><g class="node"><g fill="#fcdc00" stroke="#000000" stroke-width="4"><circle cx="535.9247675097305" cy="243.99999999999997" r="52"/></g><g transform="translate(535.9247675097305 243.99999999999997)"><g transform="scale(0.42578182421875) translate(0 0)"><g transform="translate(0 0)"><g font-family="sans-serif" font-size="50" font-weight="normal" fill="#000000" text-anchor="middle"><text xml:space="preserve" x="0" y="14.5" stroke="none">Account</text></g></g></g></g></g><g class="node"><g fill="#68bc00" stroke="#000000" stroke-width="4"><circle cx="535.9247675097305" cy="-345.4612667106773" r="52"/></g><g transform="translate(535.9247675097305 -345.4612667106773)"><g transform="scale(0.5156254843749999) translate(0 0)"><g transform="translate(0 0)"><g font-family="sans-serif" font-size="50" font-weight="normal" fill="#000000" text-anchor="middle"><text xml:space="preserve" x="0" y="14.5" stroke="none">Owner</text></g></g></g></g></g><g class="node"><g fill="#f44e3b" stroke="#000000" stroke-width="4"><circle cx="535.9247675097305" cy="833.4612667106774" r="52"/></g><g transform="translate(535.9247675097305 833.4612667106774)"><g transform="scale(0.6953128046874999) translate(0 0)"><g transform="translate(0 0)"><g font-family="sans-serif" font-size="50" font-weight="normal" fill="#000000" text-anchor="middle"><text xml:space="preserve" x="0" y="14.5" stroke="none">User</text></g></g></g></g></g><g class="node"><g fill="#aea1ff" stroke="#000000" stroke-width="4"><circle cx="-291.9084957065066" cy="833.4612667106774" r="52"/></g><g transform="translate(-291.9084957065066 833.4612667106774)"><g transform="scale(0.46093803906249997) translate(0 0)"><g transform="translate(0 0)"><g font-family="sans-serif" font-size="50" font-weight="normal" fill="#000000" text-anchor="middle"><text xml:space="preserve" x="0" y="14.5" stroke="none">Service</text></g></g></g></g></g><g class="node"><g fill="#73d8ff" stroke="#000000" stroke-width="4"><circle cx="-643.3445427782566" cy="-48.84191851097512" r="52"/></g><g transform="translate(-643.3445427782566 -48.84191851097512)"><g transform="scale(0.34765690234375) translate(0 0)"><g transform="translate(0 0)"><g font-family="sans-serif" font-size="50" font-weight="normal" fill="#000000" text-anchor="middle"><text xml:space="preserve" x="0" y="14.5" stroke="none">Language</text><text xml:space="preserve" x="0" y="74.5" stroke="none" text-anchor="middle">Service</text></g></g></g></g></g><g class="node"><g fill="#9f0500" stroke="#000000" stroke-width="4"><circle cx="-533.8977835430248" cy="-884.175752134352" r="52"/></g><g transform="translate(-533.8977835430248 -884.175752134352)"><g transform="scale(0.375000625) translate(0 0)"><g transform="translate(0 0)"><g font-family="sans-serif" font-size="50" font-weight="normal" fill="#000000" text-anchor="middle"><text xml:space="preserve" x="0" y="-15.5" stroke="none">External</text><text xml:space="preserve" x="0" y="44.5" stroke="none" text-anchor="middle">Domain</text></g></g></g></g></g><g class="node"><g fill="#dbdf00" stroke="#000000" stroke-width="4"><circle cx="983.1377396810208" cy="-345.4612667106773" r="52"/></g><g transform="translate(983.1377396810208 -345.4612667106773)"><g transform="scale(0.27539134960937495) translate(0 0)"><g transform="translate(0 0)"><g font-family="sans-serif" font-size="50" font-weight="normal" fill="#000000" text-anchor="middle"><text xml:space="preserve" x="0" y="14.5" stroke="none">Organization</text></g></g></g></g></g><g class="node"><g fill="#0062b1" stroke="#000000" stroke-width="4"><circle cx="1662.8319733904323" cy="243.99999999999997" r="52"/></g><g transform="translate(1662.8319733904323 243.99999999999997)"><g transform="scale(0.43750056249999997) translate(0 0)"><g transform="translate(0 0)"><g font-family="sans-serif" font-size="50" font-weight="bold" fill="#ffffff" text-anchor="middle"><text xml:space="preserve" x="0" y="14.5" stroke="none">Person</text></g></g></g></g></g><g class="node"><g fill="#7b64ff" stroke="#000000" stroke-width="4"><circle cx="1273.9816776973398" cy="243.99999999999997" r="52"/></g><g transform="translate(1273.9816776973398 243.99999999999997)"><g transform="scale(0.5625004375) translate(0 0)"><g transform="translate(0 0)"><g font-family="sans-serif" font-size="50" font-weight="normal" fill="#ffffff" text-anchor="middle"><text xml:space="preserve" x="0" y="14.5" stroke="none">Agent</text></g></g></g></g></g><g class="node"><g fill="#f44e3b" stroke="#000000" stroke-width="4"><circle cx="885.131382004247" cy="243.99999999999997" r="52"/></g><g transform="translate(885.131382004247 243.99999999999997)"><g transform="scale(0.6953128046874999) translate(0 0)"><g transform="translate(0 0)"><g font-family="sans-serif" font-size="50" font-weight="normal" fill="#000000" text-anchor="middle"><text xml:space="preserve" x="0" y="14.5" stroke="none">User</text></g></g></g></g></g><g class="node"><g fill="#9f0500" stroke="#000000" stroke-width="4"><circle cx="1520.9354515828445" cy="-427.3220401015299" r="52"/></g><g transform="translate(1520.9354515828445 -427.3220401015299)"><g transform="scale(0.27539134960937495) translate(0 0)"><g transform="translate(0 0)"><g font-family="sans-serif" font-size="50" font-weight="normal" fill="#000000" text-anchor="middle"><text xml:space="preserve" x="0" y="-45.5" stroke="none">External</text><text xml:space="preserve" x="0" y="14.5" stroke="none" text-anchor="middle">Organization</text></g></g></g></g></g><g class="node"><g fill="#fcdc00" stroke="#000000" stroke-width="4"><circle cx="-1564.9619561295724" cy="-512.4493284276954" r="52"/></g><g transform="translate(-1564.9619561295724 -512.4493284276954)"><g transform="scale(0.265625734375) translate(0 0)"><g transform="translate(0 0)"><g font-family="sans-serif" font-size="50" font-weight="normal" fill="#000000" text-anchor="middle"><text xml:space="preserve" x="0" y="14.5" stroke="none">Collaborative</text><text xml:space="preserve" x="0" y="74.5" stroke="none" text-anchor="middle">Language</text></g></g></g></g></g><g class="node"><g fill="#009ce0" stroke="#000000" stroke-width="4"><circle cx="-1564.9619561295724" cy="393.2079458495516" r="52"/></g><g transform="translate(-1564.9619561295724 393.2079458495516)"><g transform="scale(0.3359381640625) translate(0 0)"><g transform="translate(0 0)"><g font-family="sans-serif" font-size="50" font-weight="normal" fill="#000000" text-anchor="middle"><text xml:space="preserve" x="0" y="-45.5" stroke="none">General</text><text xml:space="preserve" x="0" y="14.5" stroke="none" text-anchor="middle">Language</text></g></g></g></g></g><g class="node"><g fill="#194d33" stroke="#68bc00" stroke-width="4"><circle cx="-1042.6931371994528" cy="902.3842308645951" r="52"/></g><g transform="translate(-1042.6931371994528 902.3842308645951)"><g transform="scale(0.31836005664062494) translate(0 0)"><g transform="translate(0 0)"><g font-family="sans-serif" font-size="50" font-weight="bold" fill="#ffffff" text-anchor="middle"><text xml:space="preserve" x="0" y="-45.5" stroke="none">Domain</text><text xml:space="preserve" x="0" y="14.5" stroke="none" text-anchor="middle">Language</text></g></g></g></g></g><g class="node"><g fill="#009ce0" stroke="#000000" stroke-width="4"><circle cx="-1852.6894880432885" cy="329.63424530607125" r="52"/></g><g transform="translate(-1852.6894880432885 329.63424530607125)"><g transform="scale(0.7773439726562501) translate(0 0)"><g transform="translate(0 0)"><g font-family="sans-serif" font-size="50" font-weight="normal" fill="#000000" text-anchor="middle"><text xml:space="preserve" x="0" y="14.5" stroke="none">LLM</text></g></g></g></g></g><g class="node"><g fill="#009ce0" stroke="#000000" stroke-width="4"><circle cx="-1820.151221218193" cy="540.5415367427697" r="52"/></g><g transform="translate(-1820.151221218193 540.5415367427697)"><g transform="scale(0.31836005664062494) translate(0 0)"><g transform="translate(0 0)"><g font-family="sans-serif" font-size="50" font-weight="normal" fill="#000000" text-anchor="middle"><text xml:space="preserve" x="0" y="14.5" stroke="none">Knowledge</text><text xml:space="preserve" x="0" y="74.5" stroke="none" text-anchor="middle">Graphs</text></g></g></g></g></g><g class="node"><g fill="#194d33" stroke="#68bc00" stroke-width="4"><circle cx="-1282.9762263767464" cy="1142.6673200418886" r="52"/></g><g transform="translate(-1282.9762263767464 1142.6673200418886)"><g transform="scale(0.349610025390625) translate(0 0)"><g transform="translate(0 0)"><g font-family="sans-serif" font-size="50" font-weight="bold" fill="#ffffff" text-anchor="middle"><text xml:space="preserve" x="0" y="14.5" stroke="none">Business</text><text xml:space="preserve" x="0" y="74.5" stroke="none" text-anchor="middle">Model</text></g></g></g></g></g><g class="node"><g fill="#194d33" stroke="#68bc00" stroke-width="4"><circle cx="-857.1175838656707" cy="1187.048313414584" r="52"/></g><g transform="translate(-857.1175838656707 1187.048313414584)"><g transform="scale(0.3828131171875) translate(0 0)"><g transform="translate(0 0)"><g font-family="sans-serif" font-size="50" font-weight="bold" fill="#ffffff" text-anchor="middle"><text xml:space="preserve" x="0" y="14.5" stroke="none">Dialects</text></g></g></g></g></g><g class="node"><g fill="#fcdc00" stroke="#000000" stroke-width="4"><circle cx="-1853.1178834415737" cy="-506.4031396004548" r="52"/></g><g transform="translate(-1853.1178834415737 -506.4031396004548)"><g transform="scale(0.890625109375) translate(0 0)"><g transform="translate(0 0)"><g font-family="sans-serif" font-size="50" font-weight="normal" fill="#000000" text-anchor="middle"><text xml:space="preserve" x="0" y="14.5" stroke="none">Nix</text></g></g></g></g></g><g class="node"><g fill="#fcdc00" stroke="#000000" stroke-width="4"><circle cx="-1853.1178834415737" cy="-339.5723400157242" r="52"/></g><g transform="translate(-1853.1178834415737 -339.5723400157242)"><g transform="scale(0.6250003749999999) translate(0 0)"><g transform="translate(0 0)"><g font-family="sans-serif" font-size="50" font-weight="normal" fill="#000000" text-anchor="middle"><text xml:space="preserve" x="0" y="14.5" stroke="none">NATS</text></g></g></g></g></g><g class="node"><g fill="#fcdc00" stroke="#000000" stroke-width="4"><circle cx="-1705.2534167826987" cy="-207.09936914287" r="52"/></g><g transform="translate(-1705.2534167826987 -207.09936914287)"><g transform="scale(0.47265677734375) translate(0 0)"><g transform="translate(0 0)"><g font-family="sans-serif" font-size="50" font-weight="normal" fill="#000000" text-anchor="middle"><text xml:space="preserve" x="0" y="14.5" stroke="none">Graphs</text></g></g></g></g></g><g class="node"><g fill="#f44e3b" stroke="#000000" stroke-width="4"><circle cx="-478.6639774554558" cy="1879.7136087138654" r="52"/></g><g transform="translate(-478.6639774554558 1879.7136087138654)"><g transform="scale(0.259766365234375) translate(0 0)"><g transform="translate(0 0)"><g font-family="sans-serif" font-size="50" font-weight="normal" fill="#000000" text-anchor="middle"><text xml:space="preserve" x="0" y="14.5" stroke="none">Configuration</text></g></g></g></g></g><g class="node"><g fill="#f44e3b" stroke="#000000" stroke-width="4"><circle cx="-134.10213389110254" cy="1225.5837866118284" r="52"/></g><g transform="translate(-134.10213389110254 1225.5837866118284)"><g transform="scale(0.37890687109375) translate(0 0)"><g transform="translate(0 0)"><g font-family="sans-serif" font-size="50" font-weight="normal" fill="#000000" text-anchor="middle"><text xml:space="preserve" x="0" y="14.5" stroke="none">Resource</text></g></g></g></g></g><g class="node"><g fill="#653294" stroke="#000000" stroke-width="4"><circle cx="-134.10213389110254" cy="1552.6486976628469" r="52"/></g><g transform="translate(-134.10213389110254 1552.6486976628469)"><g transform="scale(0.5976566523437499) translate(0 0)"><g transform="translate(0 0)"><g font-family="sans-serif" font-size="50" font-weight="normal" fill="#ffffff" text-anchor="middle"><text xml:space="preserve" x="0" y="14.5" stroke="none">Metal</text></g></g></g></g></g><g class="node"><g fill="#f44e3b" stroke="#000000" stroke-width="4"><circle cx="-478.6639774554558" cy="2206.7785197648836" r="52"/></g><g transform="translate(-478.6639774554558 2206.7785197648836)"><g transform="scale(1) translate(0 0)"><g transform="translate(0 0)"><g font-family="sans-serif" font-size="50" font-weight="normal" fill="#ffffff" text-anchor="middle"><text xml:space="preserve" x="0" y="14.5" stroke="none">git</text></g></g></g></g></g><g class="node"><g fill="#fcdc00" stroke="#000000" stroke-width="4"><circle cx="-1799.9806258429326" cy="-679.2924275673856" r="52"/></g><g transform="translate(-1799.9806258429326 -679.2924275673856)"><g transform="scale(1) translate(0 0)"><g transform="translate(0 0)"><g font-family="sans-serif" font-size="50" font-weight="normal" fill="#000000" text-anchor="middle"><text xml:space="preserve" x="0" y="14.5" stroke="none">git</text></g></g></g></g></g><g class="node"><g fill="#009ce0" stroke="#000000" stroke-width="4"><circle cx="-1632.4316474996645" cy="680.0469054913254" r="52"/></g><g transform="translate(-1632.4316474996645 680.0469054913254)"><g transform="scale(0.9609375390625001) translate(0 0)"><g transform="translate(0 0)"><g font-family="sans-serif" font-size="50" font-weight="normal" fill="#000000" text-anchor="middle"><text xml:space="preserve" x="0" y="14.5" stroke="none">ML</text></g></g></g></g></g><g class="node"><g fill="#7b64ff" stroke="#000000" stroke-width="4"><circle cx="-1381.6572344331305" cy="623.9201627470117" r="52"/></g><g transform="translate(-1381.6572344331305 623.9201627470117)"><g transform="scale(0.48828176171874993) translate(0 0)"><g transform="translate(0 0)"><g font-family="sans-serif" font-size="50" font-weight="normal" fill="#ffffff" text-anchor="middle"><text xml:space="preserve" x="0" y="14.5" stroke="none">Agents</text></g></g></g></g></g><g class="node"><g fill="#b0bc00" stroke="#000000" stroke-width="4"><circle cx="46.021677327204436" cy="-345.4612667106773" r="52"/></g><g transform="translate(46.021677327204436 -345.4612667106773)"><g transform="scale(0.3945318554687499) translate(0 0)"><g transform="translate(0 0)"><g font-family="sans-serif" font-size="50" font-weight="normal" fill="#000000" text-anchor="middle"><text xml:space="preserve" x="0" y="14.5" stroke="none">Message</text><text xml:space="preserve" x="0" y="74.5" stroke="none" text-anchor="middle">Bus</text></g></g></g></g></g><g class="node"><g fill="#9f0500" stroke="#000000" stroke-width="4"><circle cx="1463.7935119184829" cy="-600.2113280684607" r="52"/></g><g transform="translate(1463.7935119184829 -600.2113280684607)"><g transform="scale(0.27539134960937495) translate(0 0)"><g transform="translate(0 0)"><g font-family="sans-serif" font-size="50" font-weight="normal" fill="#000000" text-anchor="middle"><text xml:space="preserve" x="0" y="-45.5" stroke="none">External</text><text xml:space="preserve" x="0" y="14.5" stroke="none" text-anchor="middle">Organization</text></g></g></g></g></g><g class="node"><g fill="#653294" stroke="#000000" stroke-width="4"><circle cx="210.45970967325127" cy="1552.6486976628469" r="52"/></g><g transform="translate(210.45970967325127 1552.6486976628469)"><g transform="scale(0.35742251757812504) translate(0 0)"><g transform="translate(0 0)"><g font-family="sans-serif" font-size="50" font-weight="normal" fill="#ffffff" text-anchor="middle"><text xml:space="preserve" x="0" y="14.5" stroke="none">Container</text></g></g></g></g></g><g class="node"><g fill="#b0bc00" stroke="#000000" stroke-width="4"><circle cx="-291.9084957065066" cy="357.60385428107105" r="52"/></g><g transform="translate(-291.9084957065066 357.60385428107105)"><g transform="scale(0.90625009375) translate(0 0)"><g transform="translate(0 0)"><g font-family="sans-serif" font-size="50" font-weight="normal" fill="#000000" text-anchor="middle"><text xml:space="preserve" x="0" y="14.5" stroke="none">API</text></g></g></g></g></g><g class="node"><g fill="#b0bc00" stroke="#000000" stroke-width="4"><circle cx="-206.83875236291794" cy="-48.84191851097512" r="52"/></g><g transform="translate(-206.83875236291794 -48.84191851097512)"><g transform="scale(0.35546939453125004) translate(0 0)"><g transform="translate(0 0)"><g font-family="sans-serif" font-size="50" font-weight="normal" fill="#000000" text-anchor="middle"><text xml:space="preserve" x="0" y="14.5" stroke="none">Messages</text></g></g></g></g></g><g class="node"><g fill="#fcdc00" stroke="#000000" stroke-width="4"><circle cx="-1649.6221232938433" cy="-787.9544117566454" r="52"/></g><g transform="translate(-1649.6221232938433 -787.9544117566454)"><g transform="scale(0.71875028125) translate(0 0)"><g transform="translate(0 0)"><g font-family="sans-serif" font-size="50" font-weight="normal" fill="#000000" text-anchor="middle"><text xml:space="preserve" x="0" y="14.5" stroke="none">Rust</text></g></g></g></g></g><g class="node"><g fill="#fcdc00" stroke="#000000" stroke-width="4"><circle cx="-1464.1898903190652" cy="-782.4778187702086" r="52"/></g><g transform="translate(-1464.1898903190652 -782.4778187702086)"><g transform="scale(0.34765690234375) translate(0 0)"><g transform="translate(0 0)"><g font-family="sans-serif" font-size="50" font-weight="normal" fill="#000000" text-anchor="middle"><text xml:space="preserve" x="0" y="14.5" stroke="none">JavaScript</text></g></g></g></g></g><g class="node"><g fill="#fcdc00" stroke="#000000" stroke-width="4"><circle cx="-1315.3566754697267" cy="-656.5590044078094" r="52"/></g><g transform="translate(-1315.3566754697267 -656.5590044078094)"><g transform="scale(0.421875578125) translate(0 0)"><g transform="translate(0 0)"><g font-family="sans-serif" font-size="50" font-weight="normal" fill="#000000" text-anchor="middle"><text xml:space="preserve" x="0" y="14.5" stroke="none">Benthos</text></g></g></g></g></g><g class="node"><g fill="#194d33" stroke="#000000" stroke-width="4"><circle cx="-1076.7783105429032" cy="1229.4491419156136" r="52"/></g><g transform="translate(-1076.7783105429032 1229.4491419156136)"><g transform="scale(0.36523500976562495) translate(0 0)"><g transform="translate(0 0)"><g font-family="sans-serif" font-size="50" font-weight="bold" fill="#ffffff" text-anchor="middle"><text xml:space="preserve" x="0" y="-15.5" stroke="none">Domain</text><text xml:space="preserve" x="0" y="44.5" stroke="none" text-anchor="middle">Model</text></g></g></g></g></g><g class="node"><g fill="#f44e3b" stroke="#000000" stroke-width="4"><circle cx="-134.10213389110254" cy="1879.7136087138654" r="52"/></g><g transform="translate(-134.10213389110254 1879.7136087138654)"><g transform="scale(0.259766365234375) translate(0 0)"><g transform="translate(0 0)"><g font-family="sans-serif" font-size="50" font-weight="normal" fill="#000000" text-anchor="middle"><text xml:space="preserve" x="0" y="14.5" stroke="none">Configuration</text></g></g></g></g></g><g class="node"><g fill="#f44e3b" stroke="#000000" stroke-width="4"><circle cx="-134.10213389110254" cy="2206.7785197648836" r="52"/></g><g transform="translate(-134.10213389110254 2206.7785197648836)"><g transform="scale(1) translate(0 0)"><g transform="translate(0 0)"><g font-family="sans-serif" font-size="50" font-weight="normal" fill="#ffffff" text-anchor="middle"><text xml:space="preserve" x="0" y="14.5" stroke="none">git</text></g></g></g></g></g><g class="node"><g fill="#f44e3b" stroke="#000000" stroke-width="4"><circle cx="210.45970967325127" cy="1879.7136087138654" r="52"/></g><g transform="translate(210.45970967325127 1879.7136087138654)"><g transform="scale(0.259766365234375) translate(0 0)"><g transform="translate(0 0)"><g font-family="sans-serif" font-size="50" font-weight="normal" fill="#000000" text-anchor="middle"><text xml:space="preserve" x="0" y="14.5" stroke="none">Configuration</text></g></g></g></g></g><g class="node"><g fill="#f44e3b" stroke="#000000" stroke-width="4"><circle cx="210.45970967325127" cy="2206.7785197648836" r="52"/></g><g transform="translate(210.45970967325127 2206.7785197648836)"><g transform="scale(1) translate(0 0)"><g transform="translate(0 0)"><g font-family="sans-serif" font-size="50" font-weight="normal" fill="#ffffff" text-anchor="middle"><text xml:space="preserve" x="0" y="14.5" stroke="none">git</text></g></g></g></g></g><g class="node"><g fill="#fcdc00" stroke="#000000" stroke-width="4"><circle cx="-1381.6572344331305" cy="-230.81184766346513" r="52"/></g><g transform="translate(-1381.6572344331305 -230.81184766346513)"><g transform="scale(0.35742251757812504) translate(0 0)"><g transform="translate(0 0)"><g font-family="sans-serif" font-size="50" font-weight="normal" fill="#000000" text-anchor="middle"><text xml:space="preserve" x="0" y="-15.5" stroke="none">Business</text><text xml:space="preserve" x="0" y="44.5" stroke="none" text-anchor="middle">Domain</text></g></g></g></g></g><g class="node"><g fill="#68bc00" stroke="#000000" stroke-width="4"><circle cx="-478.6639774554558" cy="2533.843430815902" r="52"/></g><g transform="translate(-478.6639774554558 2533.843430815902)"><g transform="scale(0.07470795654296875) translate(0 0)"><g transform="translate(0 0)"><g font-family="sans-serif" font-size="50" font-weight="bold" fill="#ffffff" text-anchor="middle"><text xml:space="preserve" x="0" y="14.5" stroke="none">https://github.com/TheCowboyAI/cim-start</text></g></g></g></g></g></g></svg>