<svg xmlns="http://www.w3.org/2000/svg" width="2908" height="2600" viewBox="0 0 2908 2600"><defs><style type="text/css"/></defs><g transform="translate(943.5704031465098 334.8321363483214) scale(1)"><g class="relationship"><g transform="translate(560.1518190757125 -280.8321363483214) rotate(66.6223869866927)" stroke-width="5" stroke="#000000"><path d="M 59 0 L 979.6817891115206 0"/><polygon points="-24.8621506177483,0 -27.62461179749811,9.20820393249937 0,0 -27.62461179749811,-9.20820393249937" fill="#000000" transform="translate(1004.5439397292689 0) rotate(0)" stroke="none"/></g><g transform="translate(766.2207130706115 195.87592492786098) rotate(66.6223869866927) translate(0 -13)"><g transform="translate(0 0)"><g transform="translate(-72.88333129882812 0)" fill="#ffffff" stroke="#000000" stroke-width="0"><rect x="0" y="0" width="145.76666259765625" height="26" rx="5" ry="5" stroke="none"/><text xml:space="preserve" x="5" y="17.5" stroke="none" text-anchor="left" font-family="sans-serif" font-size="16" font-weight="normal" fill="#000000">container_vlan_1</text></g></g></g></g><g class="relationship"><g transform="translate(982.1546416388352 695.4051962115498) rotate(44.999999999999986)" stroke-width="5" stroke="#000000"><path d="M 59 0 L 165.36476445642802 0"/><polygon points="-24.8621506177483,0 -27.62461179749811,9.20820393249937 0,0 -27.62461179749811,-9.20820393249937" fill="#000000" transform="translate(190.22691507417633 0) rotate(0)" stroke="none"/></g><g transform="translate(1061.4795648420666 774.7301194147811) rotate(44.999999999999986) translate(0 -13)"><g transform="translate(0 0)"><g transform="translate(-31 0)" fill="#ffffff" stroke="#000000" stroke-width="0"><rect x="0" y="0" width="62" height="26" rx="5" ry="5" stroke="none"/><text xml:space="preserve" x="5" y="17.5" stroke="none" text-anchor="left" font-family="sans-serif" font-size="16" font-weight="normal" fill="#000000">vlan_1</text></g></g></g></g><g class="relationship"><g transform="translate(-271 0) rotate(90)" stroke-width="5" stroke="#000000"><path d="M 59 0 L 115.13784938225172 0"/><polygon points="-24.8621506177483,0 -27.62461179749811,9.20820393249937 0,0 -27.62461179749811,-9.20820393249937" fill="#000000" transform="translate(140 0) rotate(0)" stroke="none"/></g></g><g class="relationship"><g transform="translate(-271 199) rotate(90)" stroke-width="5" stroke="#000000"><path d="M 59 0 L 115.13784938225172 0"/><polygon points="-24.8621506177483,0 -27.62461179749811,9.20820393249937 0,0 -27.62461179749811,-9.20820393249937" fill="#000000" transform="translate(140 0) rotate(0)" stroke="none"/></g></g><g class="relationship"><g transform="translate(-271 398) rotate(90)" stroke-width="5" stroke="#000000"><path d="M 59 0 L 115.13784938225172 0"/><polygon points="-24.8621506177483,0 -27.62461179749811,9.20820393249937 0,0 -27.62461179749811,-9.20820393249937" fill="#000000" transform="translate(140 0) rotate(0)" stroke="none"/></g></g><g class="relationship"><g transform="translate(-271 597) rotate(90)" stroke-width="5" stroke="#000000"><path d="M 59 0 L 115.13784938225172 0"/><polygon points="-24.8621506177483,0 -27.62461179749811,9.20820393249937 0,0 -27.62461179749811,-9.20820393249937" fill="#000000" transform="translate(140 0) rotate(0)" stroke="none"/></g></g><g class="relationship"><g transform="translate(-271 796) rotate(90)" stroke-width="5" stroke="#000000"><path d="M 59 0 L 115.13784938225172 0"/><polygon points="-24.8621506177483,0 -27.62461179749811,9.20820393249937 0,0 -27.62461179749811,-9.20820393249937" fill="#000000" transform="translate(140 0) rotate(0)" stroke="none"/></g></g><g class="relationship"><g transform="translate(-271 995) rotate(90)" stroke-width="5" stroke="#000000"><path d="M 59 0 L 115.13784938225172 0"/><polygon points="-24.8621506177483,0 -27.62461179749811,9.20820393249937 0,0 -27.62461179749811,-9.20820393249937" fill="#000000" transform="translate(140 0) rotate(0)" stroke="none"/></g></g><g class="relationship"><g transform="translate(-271 1194) rotate(90)" stroke-width="5" stroke="#000000"><path d="M 59 0 L 115.13784938225172 0"/><polygon points="-24.8621506177483,0 -27.62461179749811,9.20820393249937 0,0 -27.62461179749811,-9.20820393249937" fill="#000000" transform="translate(140 0) rotate(0)" stroke="none"/></g></g><g class="relationship"><g transform="translate(-271 1393) rotate(90)" stroke-width="5" stroke="#000000"><path d="M 59 0 L 115.13784938225172 0"/><polygon points="-24.8621506177483,0 -27.62461179749811,9.20820393249937 0,0 -27.62461179749811,-9.20820393249937" fill="#000000" transform="translate(140 0) rotate(0)" stroke="none"/></g></g><g class="relationship"><g transform="translate(-271 1592) rotate(180)" stroke-width="5" stroke="#000000"><path d="M 59 0 L 225.42305095550657 0"/><polygon points="-24.8621506177483,0 -27.62461179749811,9.20820393249937 0,0 -27.62461179749811,-9.20820393249937" fill="#000000" transform="translate(250.28520157325488 0) rotate(0)" stroke="none"/></g></g><g class="relationship"><g transform="translate(-580.2852015732549 1592) rotate(180)" stroke-width="5" stroke="#000000"><path d="M 59 0 L 225.42305095550657 0"/><polygon points="-24.8621506177483,0 -27.62461179749811,9.20820393249937 0,0 -27.62461179749811,-9.20820393249937" fill="#000000" transform="translate(250.28520157325488 0) rotate(0)" stroke="none"/></g></g><g class="relationship"><g transform="translate(560.1518190757125 -280.8321363483214) rotate(132.9595943550835)" stroke-width="5" stroke="#000000"><path d="M 59 0 L 571.7944960150046 0"/><polygon points="-24.8621506177483,0 -27.62461179749811,9.20820393249937 0,0 -27.62461179749811,-9.20820393249937" fill="#000000" transform="translate(596.6566466327529 0) rotate(0)" stroke="none"/></g><g transform="translate(345.21413563152873 -50.01355761958527) rotate(312.9595943550835) translate(0 -13)"><g transform="translate(0 0)"><g transform="translate(-40.233333587646484 0)" fill="#ffffff" stroke="#000000" stroke-width="0"><rect x="0" y="0" width="80.46666717529297" height="26" rx="5" ry="5" stroke="none"/><text xml:space="preserve" x="5" y="17.5" stroke="none" text-anchor="left" font-family="sans-serif" font-size="16" font-weight="normal" fill="#000000">has_mac</text></g></g></g></g><g class="relationship"><g transform="translate(560.1518190757125 -280.8321363483214) rotate(123.353570502638)" stroke-width="5" stroke="#000000"><path d="M 59 0 L 728.8246454730572 0"/><polygon points="-24.8621506177483,0 -27.62461179749811,9.20820393249937 0,0 -27.62461179749811,-9.20820393249937" fill="#000000" transform="translate(753.6867960908055 0) rotate(0)" stroke="none"/></g><g transform="translate(343.5772316614329 48.20033331086228) rotate(303.353570502638) translate(0 -13)"><g transform="translate(0 0)"><g transform="translate(-40.233333587646484 0)" fill="#ffffff" stroke="#000000" stroke-width="0"><rect x="0" y="0" width="80.46666717529297" height="26" rx="5" ry="5" stroke="none"/><text xml:space="preserve" x="5" y="17.5" stroke="none" text-anchor="left" font-family="sans-serif" font-size="16" font-weight="normal" fill="#000000">has_mac</text></g></g></g></g><g class="relationship"><g transform="translate(560.1518190757125 -280.8321363483214) rotate(116.9761939217012)" stroke-width="5" stroke="#000000"><path d="M 59 0 L 901.1434426694018 0"/><polygon points="-24.8621506177483,0 -27.62461179749811,9.20820393249937 0,0 -27.62461179749811,-9.20820393249937" fill="#000000" transform="translate(926.0055932871501 0) rotate(0)" stroke="none"/></g><g transform="translate(342.38156372247647 147.00541869874206) rotate(296.97619392170117) translate(0 -13)"><g transform="translate(0 0)"><g transform="translate(-40.233333587646484 0)" fill="#ffffff" stroke="#000000" stroke-width="0"><rect x="0" y="0" width="80.46666717529297" height="26" rx="5" ry="5" stroke="none"/><text xml:space="preserve" x="5" y="17.5" stroke="none" text-anchor="left" font-family="sans-serif" font-size="16" font-weight="normal" fill="#000000">has_mac</text></g></g></g></g><g class="relationship"><g transform="translate(560.1518190757125 -280.8321363483214) rotate(112.5354155902206)" stroke-width="5" stroke="#000000"><path d="M 59 0 L 1081.9912745921288 0"/><polygon points="-24.8621506177483,0 -27.62461179749811,9.20820393249937 0,0 -27.62461179749811,-9.20820393249937" fill="#000000" transform="translate(1106.853425209877 0) rotate(0)" stroke="none"/></g><g transform="translate(341.50684084152977 246.1020584680868) rotate(292.53541559022057) translate(0 -13)"><g transform="translate(0 0)"><g transform="translate(-40.233333587646484 0)" fill="#ffffff" stroke="#000000" stroke-width="0"><rect x="0" y="0" width="80.46666717529297" height="26" rx="5" ry="5" stroke="none"/><text xml:space="preserve" x="5" y="17.5" stroke="none" text-anchor="left" font-family="sans-serif" font-size="16" font-weight="normal" fill="#000000">has_mac</text></g></g></g></g><g class="relationship"><g transform="translate(-271 199) rotate(0)" stroke-width="5" stroke="#000000"><path d="M 59 0 L 300.4711827155853 0"/><polygon points="-24.8621506177483,0 -27.62461179749811,9.20820393249937 0,0 -27.62461179749811,-9.20820393249937" fill="#000000" transform="translate(325.3333333333336 0) rotate(0)" stroke="none"/></g><g transform="translate(-91.26440864220734 199) rotate(0) translate(0 -13)"><g transform="translate(0 0)"><g transform="translate(-27 0)" fill="#ffffff" stroke="#000000" stroke-width="0"><rect x="0" y="0" width="54" height="26" rx="5" ry="5" stroke="none"/><text xml:space="preserve" x="5" y="17.5" stroke="none" text-anchor="left" font-family="sans-serif" font-size="16" font-weight="normal" fill="#000000">vlan0</text></g></g></g></g><g class="relationship"><g transform="translate(-271 398) rotate(0)" stroke-width="5" stroke="#000000"><path d="M 59 0 L 300.4711827155853 0"/><polygon points="-24.8621506177483,0 -27.62461179749811,9.20820393249937 0,0 -27.62461179749811,-9.20820393249937" fill="#000000" transform="translate(325.3333333333336 0) rotate(0)" stroke="none"/></g><g transform="translate(-91.26440864220734 398) rotate(0) translate(0 -13)"><g transform="translate(0 0)"><g transform="translate(-27 0)" fill="#ffffff" stroke="#000000" stroke-width="0"><rect x="0" y="0" width="54" height="26" rx="5" ry="5" stroke="none"/><text xml:space="preserve" x="5" y="17.5" stroke="none" text-anchor="left" font-family="sans-serif" font-size="16" font-weight="normal" fill="#000000">vlan1</text></g></g></g></g><g class="relationship"><g transform="translate(-271 597) rotate(0)" stroke-width="5" stroke="#000000"><path d="M 59 0 L 300.4711827155853 0"/><polygon points="-24.8621506177483,0 -27.62461179749811,9.20820393249937 0,0 -27.62461179749811,-9.20820393249937" fill="#000000" transform="translate(325.3333333333336 0) rotate(0)" stroke="none"/></g><g transform="translate(-91.26440864220734 597) rotate(0) translate(0 -13)"><g transform="translate(0 0)"><g transform="translate(-27 0)" fill="#ffffff" stroke="#000000" stroke-width="0"><rect x="0" y="0" width="54" height="26" rx="5" ry="5" stroke="none"/><text xml:space="preserve" x="5" y="17.5" stroke="none" text-anchor="left" font-family="sans-serif" font-size="16" font-weight="normal" fill="#000000">vlan2</text></g></g></g></g><g class="relationship"><g transform="translate(-271 796) rotate(0)" stroke-width="5" stroke="#000000"><path d="M 59 0 L 300.4711827155853 0"/><polygon points="-24.8621506177483,0 -27.62461179749811,9.20820393249937 0,0 -27.62461179749811,-9.20820393249937" fill="#000000" transform="translate(325.3333333333336 0) rotate(0)" stroke="none"/></g><g transform="translate(-91.26440864220734 796) rotate(0) translate(0 -13)"><g transform="translate(0 0)"><g transform="translate(-27 0)" fill="#ffffff" stroke="#000000" stroke-width="0"><rect x="0" y="0" width="54" height="26" rx="5" ry="5" stroke="none"/><text xml:space="preserve" x="5" y="17.5" stroke="none" text-anchor="left" font-family="sans-serif" font-size="16" font-weight="normal" fill="#000000">vlan3</text></g></g></g></g><g class="relationship"><g transform="translate(-889.5704031465098 1592) rotate(90)" stroke-width="5" stroke="#000000"><path d="M 59 0 L 225.42305095550657 0"/><polygon points="-24.8621506177483,0 -27.62461179749811,9.20820393249937 0,0 -27.62461179749811,-9.20820393249937" fill="#000000" transform="translate(250.28520157325488 0) rotate(0)" stroke="none"/></g></g><g class="relationship"><g transform="translate(560.1518190757125 -280.8321363483214) rotate(24.972827543888506)" stroke-width="5" stroke="#000000"><path d="M 59 0 L 979.6817891115206 0"/><polygon points="-24.8621506177483,0 -27.62461179749811,9.20820393249937 0,0 -27.62461179749811,-9.20820393249937" fill="#000000" transform="translate(1004.5439397292689 0) rotate(0)" stroke="none"/></g><g transform="translate(1030.938552532495 -61.5724356300411) rotate(24.972827543888506) translate(0 -13)"><g transform="translate(0 0)"><g transform="translate(-77.05000305175781 0)" fill="#ffffff" stroke="#000000" stroke-width="0"><rect x="0" y="0" width="154.10000610351562" height="26" rx="5" ry="5" stroke="none"/><text xml:space="preserve" x="5" y="17.5" stroke="none" text-anchor="left" font-family="sans-serif" font-size="16" font-weight="normal" fill="#000000">containers_vlan_3</text></g></g></g></g><g class="relationship"><g transform="translate(560.1518190757125 -280.8321363483214) rotate(46.21393274933692)" stroke-width="5" stroke="#000000"><path d="M 59 0 L 957.0612554404677 0"/><polygon points="-24.8621506177483,0 -27.62461179749811,9.20820393249937 0,0 -27.62461179749811,-9.20820393249937" fill="#000000" transform="translate(981.923406058216 0) rotate(0)" stroke="none"/></g><g transform="translate(911.692574235914 85.92966123044795) rotate(46.21393274933692) translate(0 -13)"><g transform="translate(0 0)"><g transform="translate(-72.88333129882812 0)" fill="#ffffff" stroke="#000000" stroke-width="0"><rect x="0" y="0" width="145.76666259765625" height="26" rx="5" ry="5" stroke="none"/><text xml:space="preserve" x="5" y="17.5" stroke="none" text-anchor="left" font-family="sans-serif" font-size="16" font-weight="normal" fill="#000000">container_vlan_2</text></g></g></g></g><g class="relationship"><g transform="translate(1280.4371331161599 470.6401543301119) rotate(59.999999999999986)" stroke-width="5" stroke="#000000"><path d="M 59 0 L 379.16708828481273 0"/><polygon points="-24.8621506177483,0 -27.62461179749811,9.20820393249937 0,0 -27.62461179749811,-9.20820393249937" fill="#000000" transform="translate(404.029238902561 0) rotate(0)" stroke="none"/></g><g transform="translate(1389.9789051873631 660.3720691085653) rotate(59.999999999999986) translate(0 -13)"><g transform="translate(0 0)"><g transform="translate(-31 0)" fill="#ffffff" stroke="#000000" stroke-width="0"><rect x="0" y="0" width="62" height="26" rx="5" ry="5" stroke="none"/><text xml:space="preserve" x="5" y="17.5" stroke="none" text-anchor="left" font-family="sans-serif" font-size="16" font-weight="normal" fill="#000000">vlan_2</text></g></g></g></g><g class="relationship"><g transform="translate(560.1518190757125 -280.8321363483214) rotate(1.8888675841534168)" stroke-width="5" stroke="#000000"><path d="M 59 0 L 979.6817891115209 0"/><polygon points="-24.8621506177483,0 -27.62461179749811,9.20820393249937 0,0 -27.62461179749811,-9.20820393249937" fill="#000000" transform="translate(1004.5439397292691 0) rotate(0)" stroke="none"/></g><g transform="translate(1079.2105240635844 -263.71414773134694) rotate(1.8888675841534168) translate(0 -13)"><g transform="translate(0 0)"><g transform="translate(-72.88333129882812 0)" fill="#ffffff" stroke="#000000" stroke-width="0"><rect x="0" y="0" width="145.76666259765625" height="26" rx="5" ry="5" stroke="none"/><text xml:space="preserve" x="5" y="17.5" stroke="none" text-anchor="left" font-family="sans-serif" font-size="16" font-weight="normal" fill="#000000">container_vlan_4</text></g></g></g></g><g class="relationship"><g transform="translate(1623.1178705471361 -245.77667808422527) rotate(70.25107634580843)" stroke-width="5" stroke="#000000"><path d="M 59 0 L 231.83759539442352 0"/><polygon points="-24.8621506177483,0 -27.62461179749811,9.20820393249937 0,0 -27.62461179749811,-9.20820393249937" fill="#000000" transform="translate(256.69974601217183 0) rotate(0)" stroke="none"/></g><g transform="translate(1672.254742282683 -108.9110704256648) rotate(70.25107634580843) translate(0 -13)"><g transform="translate(0 0)"><g transform="translate(-31 0)" fill="#ffffff" stroke="#000000" stroke-width="0"><rect x="0" y="0" width="62" height="26" rx="5" ry="5" stroke="none"/><text xml:space="preserve" x="5" y="17.5" stroke="none" text-anchor="left" font-family="sans-serif" font-size="16" font-weight="normal" fill="#000000">vlan_4</text></g></g></g></g><g class="relationship"><g transform="translate(1524.263027189212 168.18377664896127) rotate(79.59867330904106)" stroke-width="5" stroke="#000000"><path d="M 59 0 L 275.78584472887974 0"/><polygon points="-24.8621506177483,0 -27.62461179749811,9.20820393249937 0,0 -27.62461179749811,-9.20820393249937" fill="#000000" transform="translate(300.6479953466281 0) rotate(0)" stroke="none"/></g><g transform="translate(1554.484466774393 332.82597976561857) rotate(79.59867330904106) translate(0 -13)"><g transform="translate(0 0)"><g transform="translate(-31 0)" fill="#ffffff" stroke="#000000" stroke-width="0"><rect x="0" y="0" width="62" height="26" rx="5" ry="5" stroke="none"/><text xml:space="preserve" x="5" y="17.5" stroke="none" text-anchor="left" font-family="sans-serif" font-size="16" font-weight="normal" fill="#000000">vlan_3</text></g></g></g></g><g class="relationship"><g transform="translate(1524.263027189212 168.18377664896127) rotate(29.999999999999996)" stroke-width="5" stroke="#000000"><path d="M 59 0 L 275.78584472887974 0"/><polygon points="-24.8621506177483,0 -27.62461179749811,9.20820393249937 0,0 -27.62461179749811,-9.20820393249937" fill="#000000" transform="translate(300.6479953466281 0) rotate(0)" stroke="none"/></g><g transform="translate(1669.2295503705332 251.8802378311812) rotate(29.999999999999996) translate(0 -13)"><g transform="translate(0 0)"><g transform="translate(-31 0)" fill="#ffffff" stroke="#000000" stroke-width="0"><rect x="0" y="0" width="62" height="26" rx="5" ry="5" stroke="none"/><text xml:space="preserve" x="5" y="17.5" stroke="none" text-anchor="left" font-family="sans-serif" font-size="16" font-weight="normal" fill="#000000">vlan_3</text></g></g></g></g><g class="relationship"><g transform="translate(600.6039741988764 943.2822715683644) rotate(49.86893798353901)" stroke-width="5" stroke="#000000"><path d="M 59 0 L 168.98023303146857 0"/><polygon points="-24.8621506177483,0 -27.62461179749811,9.20820393249937 0,0 -27.62461179749811,-9.20820393249937" fill="#000000" transform="translate(193.84238364921686 0) rotate(0)" stroke="none"/></g></g><g class="relationship"><g transform="translate(600.6039741988764 943.2822715683644) rotate(90)" stroke-width="5" stroke="#000000"><path d="M 59 0 L 168.98023303146852 0"/><polygon points="-24.8621506177483,0 -27.62461179749811,9.20820393249937 0,0 -27.62461179749811,-9.20820393249937" fill="#000000" transform="translate(193.8423836492168 0) rotate(0)" stroke="none"/></g></g><g class="relationship"><g transform="translate(982.1546416388352 695.4051962115498) rotate(95.965920626469)" stroke-width="5" stroke="#000000"><path d="M 59 0 L 165.36476445642808 0"/><polygon points="-24.8621506177483,0 -27.62461179749811,9.20820393249937 0,0 -27.62461179749811,-9.20820393249937" fill="#000000" transform="translate(190.22691507417636 0) rotate(0)" stroke="none"/></g><g transform="translate(970.4947519336703 806.9799866189734) rotate(275.96592062646897) translate(0 -13)"><g transform="translate(0 0)"><g transform="translate(-31 0)" fill="#ffffff" stroke="#000000" stroke-width="0"><rect x="0" y="0" width="62" height="26" rx="5" ry="5" stroke="none"/><text xml:space="preserve" x="5" y="17.5" stroke="none" text-anchor="left" font-family="sans-serif" font-size="16" font-weight="normal" fill="#000000">vlan_1</text></g></g></g></g><g class="relationship"><g transform="translate(1623.1178705471361 -245.77667808422527) rotate(24.890619461332932)" stroke-width="5" stroke="#000000"><path d="M 59 0 L 231.83759539442357 0"/><polygon points="-24.8621506177483,0 -27.62461179749811,9.20820393249937 0,0 -27.62461179749811,-9.20820393249937" fill="#000000" transform="translate(256.6997460121719 0) rotate(0)" stroke="none"/></g><g transform="translate(1755.029142880866 -184.57175217953076) rotate(24.890619461332932) translate(0 -13)"><g transform="translate(0 0)"><g transform="translate(-31 0)" fill="#ffffff" stroke="#000000" stroke-width="0"><rect x="0" y="0" width="62" height="26" rx="5" ry="5" stroke="none"/><text xml:space="preserve" x="5" y="17.5" stroke="none" text-anchor="left" font-family="sans-serif" font-size="16" font-weight="normal" fill="#000000">vlan_4</text></g></g></g></g><g class="relationship"><g transform="translate(-580.2852015732549 1592) rotate(-90)" stroke-width="5" stroke="#000000"><path d="M 59 0 L 115.13784938225172 0"/><polygon points="-24.8621506177483,0 -27.62461179749811,9.20820393249937 0,0 -27.62461179749811,-9.20820393249937" fill="#000000" transform="translate(140 0) rotate(0)" stroke="none"/></g></g><g class="relationship"><g transform="translate(560.1518190757125 -280.8321363483214) rotate(83.92140887909059)" stroke-width="5" stroke="#000000"><path d="M 59 0 L 901.1434426694017 0"/><polygon points="-24.8621506177483,0 -27.62461179749811,9.20820393249937 0,0 -27.62461179749811,-9.20820393249937" fill="#000000" transform="translate(926.00559328715 0) rotate(0)" stroke="none"/></g><g transform="translate(610.9878254234208 196.54042055443813) rotate(83.92140887909059) translate(0 -13)"><g transform="translate(0 0)"><g transform="translate(-72.88333129882812 0)" fill="#ffffff" stroke="#000000" stroke-width="0"><rect x="0" y="0" width="145.76666259765625" height="26" rx="5" ry="5" stroke="none"/><text xml:space="preserve" x="5" y="17.5" stroke="none" text-anchor="left" font-family="sans-serif" font-size="16" font-weight="normal" fill="#000000">container_vlan_0</text></g></g></g></g><g class="relationship"><g transform="translate(664.4565476559715 698.6353426435892) rotate(104.62781065413907)" stroke-width="5" stroke="#000000"><path d="M 59 0 L 168.98023303146852 0"/><polygon points="-24.8621506177483,0 -27.62461179749811,9.20820393249937 0,0 -27.62461179749811,-9.20820393249937" fill="#000000" transform="translate(193.84238364921683 0) rotate(0)" stroke="none"/></g><g transform="translate(635.6695927825285 808.93066390603) rotate(284.62781065413907) translate(0 -13)"><g transform="translate(0 0)"><g transform="translate(-31 0)" fill="#ffffff" stroke="#000000" stroke-width="0"><rect x="0" y="0" width="62" height="26" rx="5" ry="5" stroke="none"/><text xml:space="preserve" x="5" y="17.5" stroke="none" text-anchor="left" font-family="sans-serif" font-size="16" font-weight="normal" fill="#000000">vlan_0</text></g></g></g></g><g class="relationship"><g transform="translate(600.6039741988764 943.2822715683644) rotate(130.131062016461)" stroke-width="5" stroke="#000000"><path d="M 59 0 L 168.98023303146852 0"/><polygon points="-24.8621506177483,0 -27.62461179749811,9.20820393249937 0,0 -27.62461179749811,-9.20820393249937" fill="#000000" transform="translate(193.8423836492168 0) rotate(0)" stroke="none"/></g></g><g class="relationship"><g transform="translate(-889.5704031465098 1901.2852015732549) rotate(90)" stroke-width="5" stroke="#000000"><path d="M 59 0 L 225.42305095550657 0"/><polygon points="-24.8621506177483,0 -27.62461179749811,9.20820393249937 0,0 -27.62461179749811,-9.20820393249937" fill="#000000" transform="translate(250.28520157325488 0) rotate(0)" stroke="none"/></g></g><g class="node"><g fill="#aea1ff" stroke="#000000" stroke-width="4"><circle cx="560.1518190757125" cy="-280.8321363483214" r="52"/></g><g transform="translate(560.1518190757125 -280.8321363483214)"><g transform="scale(0.5976566523437499) translate(0 0)"><g transform="translate(0 0)"><g font-family="sans-serif" font-size="50" font-weight="normal" fill="#000000" text-anchor="middle"><text xml:space="preserve" x="0" y="14.5" stroke="none">vhost</text></g></g></g></g></g><g class="node"><g fill="#dbdf00" stroke="#000000" stroke-width="4"><circle cx="982.1546416388352" cy="695.4051962115498" r="52"/></g><g transform="translate(982.1546416388352 695.4051962115498)"><g transform="scale(0.44921930078124994) translate(0 0)"><g transform="translate(0 0)"><g font-family="sans-serif" font-size="50" font-weight="normal" fill="#000000" text-anchor="middle"><text xml:space="preserve" x="0" y="-15.5" stroke="none">dev</text><text xml:space="preserve" x="0" y="44.5" stroke="none" text-anchor="middle">switch</text></g></g></g></g></g><g class="node"><g fill="#a4dd00" stroke="#000000" stroke-width="4"><circle cx="1158.384683341989" cy="871.6352379147036" r="52"/></g><g transform="translate(1158.384683341989 871.6352379147036)"><g transform="scale(1) translate(0 0)"><g transform="translate(0 0)"><g font-family="sans-serif" font-size="50" font-weight="normal" fill="#000000" text-anchor="middle"><text xml:space="preserve" x="0" y="14.5" stroke="none">ns</text></g></g></g></g></g><g class="node"><g fill="#a4dd00" stroke="#000000" stroke-width="4"><circle cx="600.6039741988764" cy="943.2822715683644" r="52"/></g><g transform="translate(600.6039741988764 943.2822715683644)"><g transform="scale(0.7265627734375) translate(0 0)"><g transform="translate(0 0)"><g font-family="sans-serif" font-size="50" font-weight="normal" fill="#000000" text-anchor="middle"><text xml:space="preserve" x="0" y="14.5" stroke="none">nats</text></g></g></g></g></g><g class="node"><g fill="#aea1ff" stroke="#000000" stroke-width="4"><circle cx="-271" cy="0" r="52"/></g><g transform="translate(-271 0)"><g transform="scale(0.36914125585937496) translate(0 0)"><g transform="translate(0 0)"><g font-family="sans-serif" font-size="50" font-weight="normal" fill="#000000" text-anchor="middle"><text xml:space="preserve" x="0" y="14.5" stroke="none">hardware</text><text xml:space="preserve" x="0" y="74.5" stroke="none" text-anchor="middle">switch</text></g></g></g></g></g><g class="node"><g fill="#aea1ff" stroke="#000000" stroke-width="4"><circle cx="-271" cy="199" r="52"/></g><g transform="translate(-271 199)"><g transform="scale(0.56640668359375) translate(0 0)"><g transform="translate(0 0)"><g font-family="sans-serif" font-size="50" font-weight="normal" fill="#000000" text-anchor="middle"><text xml:space="preserve" x="0" y="-15.5" stroke="none">port</text><text xml:space="preserve" x="0" y="44.5" stroke="none" text-anchor="middle">1</text></g></g></g></g></g><g class="node"><g fill="#aea1ff" stroke="#000000" stroke-width="4"><circle cx="-271" cy="398" r="52"/></g><g transform="translate(-271 398)"><g transform="scale(0.56640668359375) translate(0 0)"><g transform="translate(0 0)"><g font-family="sans-serif" font-size="50" font-weight="normal" fill="#000000" text-anchor="middle"><text xml:space="preserve" x="0" y="-15.5" stroke="none">port</text><text xml:space="preserve" x="0" y="44.5" stroke="none" text-anchor="middle">2</text></g></g></g></g></g><g class="node"><g fill="#aea1ff" stroke="#000000" stroke-width="4"><circle cx="-271" cy="597" r="52"/></g><g transform="translate(-271 597)"><g transform="scale(0.56640668359375) translate(0 0)"><g transform="translate(0 0)"><g font-family="sans-serif" font-size="50" font-weight="normal" fill="#000000" text-anchor="middle"><text xml:space="preserve" x="0" y="-15.5" stroke="none">port</text><text xml:space="preserve" x="0" y="44.5" stroke="none" text-anchor="middle">3</text></g></g></g></g></g><g class="node"><g fill="#aea1ff" stroke="#000000" stroke-width="4"><circle cx="-271" cy="796" r="52"/></g><g transform="translate(-271 796)"><g transform="scale(0.56640668359375) translate(0 0)"><g transform="translate(0 0)"><g font-family="sans-serif" font-size="50" font-weight="normal" fill="#000000" text-anchor="middle"><text xml:space="preserve" x="0" y="-15.5" stroke="none">port</text><text xml:space="preserve" x="0" y="44.5" stroke="none" text-anchor="middle">4</text></g></g></g></g></g><g class="node"><g fill="#fe9200" stroke="#000000" stroke-width="4"><circle cx="1511.9517525674405" cy="871.6352379147036" r="52"/></g><g transform="translate(1511.9517525674405 871.6352379147036)"><g transform="scale(0.5000005) translate(0 0)"><g transform="translate(0 0)"><g font-family="sans-serif" font-size="50" font-weight="normal" fill="#000000" text-anchor="middle"><text xml:space="preserve" x="0" y="14.5" stroke="none">ollama</text></g></g></g></g></g><g class="node"><g fill="#fe9200" stroke="#000000" stroke-width="4"><circle cx="1729.7925107751805" cy="51.354354903524296" r="52"/></g><g transform="translate(1729.7925107751805 51.354354903524296)"><g transform="scale(0.75000025) translate(0 0)"><g transform="translate(0 0)"><g font-family="sans-serif" font-size="50" font-weight="normal" fill="#000000" text-anchor="middle"><text xml:space="preserve" x="0" y="14.5" stroke="none">web</text></g></g></g></g></g><g class="node"><g fill="#aea1ff" stroke="#000000" stroke-width="4"><circle cx="-271" cy="995" r="52"/></g><g transform="translate(-271 995)"><g transform="scale(0.56640668359375) translate(0 0)"><g transform="translate(0 0)"><g font-family="sans-serif" font-size="50" font-weight="normal" fill="#000000" text-anchor="middle"><text xml:space="preserve" x="0" y="-15.5" stroke="none">port</text><text xml:space="preserve" x="0" y="44.5" stroke="none" text-anchor="middle">5</text></g></g></g></g></g><g class="node"><g fill="#aea1ff" stroke="#000000" stroke-width="4"><circle cx="-271" cy="1194" r="52"/></g><g transform="translate(-271 1194)"><g transform="scale(0.56640668359375) translate(0 0)"><g transform="translate(0 0)"><g font-family="sans-serif" font-size="50" font-weight="normal" fill="#000000" text-anchor="middle"><text xml:space="preserve" x="0" y="-15.5" stroke="none">port</text><text xml:space="preserve" x="0" y="44.5" stroke="none" text-anchor="middle">6</text></g></g></g></g></g><g class="node"><g fill="#aea1ff" stroke="#000000" stroke-width="4"><circle cx="-271" cy="1393" r="52"/></g><g transform="translate(-271 1393)"><g transform="scale(0.56640668359375) translate(0 0)"><g transform="translate(0 0)"><g font-family="sans-serif" font-size="50" font-weight="normal" fill="#000000" text-anchor="middle"><text xml:space="preserve" x="0" y="-15.5" stroke="none">port</text><text xml:space="preserve" x="0" y="44.5" stroke="none" text-anchor="middle">7</text></g></g></g></g></g><g class="node"><g fill="#aea1ff" stroke="#000000" stroke-width="4"><circle cx="-271" cy="1592" r="52"/></g><g transform="translate(-271 1592)"><g transform="scale(0.56640668359375) translate(0 0)"><g transform="translate(0 0)"><g font-family="sans-serif" font-size="50" font-weight="normal" fill="#000000" text-anchor="middle"><text xml:space="preserve" x="0" y="-15.5" stroke="none">port</text><text xml:space="preserve" x="0" y="44.5" stroke="none" text-anchor="middle">8</text></g></g></g></g></g><g class="node"><g fill="#aea1ff" stroke="#000000" stroke-width="4"><circle cx="-580.2852015732549" cy="1592" r="52"/></g><g transform="translate(-580.2852015732549 1592)"><g transform="scale(0.35742251757812504) translate(0 0)"><g transform="translate(0 0)"><g font-family="sans-serif" font-size="50" font-weight="normal" fill="#000000" text-anchor="middle"><text xml:space="preserve" x="0" y="-15.5" stroke="none">Security</text><text xml:space="preserve" x="0" y="44.5" stroke="none" text-anchor="middle">Gateway</text></g></g></g></g></g><g class="node"><g fill="#aea1ff" stroke="#000000" stroke-width="4"><circle cx="-889.5704031465098" cy="1592" r="52"/></g><g transform="translate(-889.5704031465098 1592)"><g transform="scale(0.41796933203125) translate(0 0)"><g transform="translate(0 0)"><g font-family="sans-serif" font-size="50" font-weight="normal" fill="#000000" text-anchor="middle"><text xml:space="preserve" x="0" y="14.5" stroke="none">Satellite</text><text xml:space="preserve" x="0" y="74.5" stroke="none" text-anchor="middle">Dish</text></g></g></g></g></g><g class="node"><g fill="#f44e3b" stroke="#000000" stroke-width="4"><circle cx="113.33333333333357" cy="199" r="52"/></g><g transform="translate(113.33333333333357 199)"><g transform="scale(0.64453160546875) translate(0 0)"><g transform="translate(0 0)"><g font-family="sans-serif" font-size="50" font-weight="normal" fill="#000000" text-anchor="middle"><text xml:space="preserve" x="0" y="14.5" stroke="none">enp0</text></g></g></g></g></g><g class="node"><g fill="#f44e3b" stroke="#000000" stroke-width="4"><circle cx="113.33333333333357" cy="398" r="52"/></g><g transform="translate(113.33333333333357 398)"><g transform="scale(0.64453160546875) translate(0 0)"><g transform="translate(0 0)"><g font-family="sans-serif" font-size="50" font-weight="normal" fill="#000000" text-anchor="middle"><text xml:space="preserve" x="0" y="14.5" stroke="none">enp1</text></g></g></g></g></g><g class="node"><g fill="#f44e3b" stroke="#000000" stroke-width="4"><circle cx="113.33333333333357" cy="597" r="52"/></g><g transform="translate(113.33333333333357 597)"><g transform="scale(0.64453160546875) translate(0 0)"><g transform="translate(0 0)"><g font-family="sans-serif" font-size="50" font-weight="normal" fill="#000000" text-anchor="middle"><text xml:space="preserve" x="0" y="14.5" stroke="none">enp2</text></g></g></g></g></g><g class="node"><g fill="#f44e3b" stroke="#000000" stroke-width="4"><circle cx="113.33333333333357" cy="796" r="52"/></g><g transform="translate(113.33333333333357 796)"><g transform="scale(0.64453160546875) translate(0 0)"><g transform="translate(0 0)"><g font-family="sans-serif" font-size="50" font-weight="normal" fill="#000000" text-anchor="middle"><text xml:space="preserve" x="0" y="14.5" stroke="none">enp3</text></g></g></g></g></g><g class="node"><g fill="#fcdc00" stroke="#000000" stroke-width="4"><circle cx="-889.5704031465098" cy="1901.2852015732549" r="52"/></g><g transform="translate(-889.5704031465098 1901.2852015732549)"><g transform="scale(0.484375515625) translate(0 0)"><g transform="translate(0 0)"><g font-family="sans-serif" font-size="50" font-weight="normal" fill="#000000" text-anchor="middle"><text xml:space="preserve" x="0" y="14.5" stroke="none">public</text><text xml:space="preserve" x="0" y="74.5" stroke="none" text-anchor="middle">IP</text></g></g></g></g></g><g class="node"><g fill="#dbdf00" stroke="#000000" stroke-width="4"><circle cx="1524.263027189212" cy="168.18377664896127" r="52"/></g><g transform="translate(1524.263027189212 168.18377664896127)"><g transform="scale(0.43750056249999997) translate(0 0)"><g transform="translate(0 0)"><g font-family="sans-serif" font-size="50" font-weight="normal" fill="#000000" text-anchor="middle"><text xml:space="preserve" x="0" y="-15.5" stroke="none">secure</text><text xml:space="preserve" x="0" y="44.5" stroke="none" text-anchor="middle">switch</text></g></g></g></g></g><g class="node"><g fill="#dbdf00" stroke="#000000" stroke-width="4"><circle cx="1280.4371331161599" cy="470.6401543301119" r="52"/></g><g transform="translate(1280.4371331161599 470.6401543301119)"><g transform="scale(0.44921930078124994) translate(0 0)"><g transform="translate(0 0)"><g font-family="sans-serif" font-size="50" font-weight="normal" fill="#000000" text-anchor="middle"><text xml:space="preserve" x="0" y="-15.5" stroke="none">agent</text><text xml:space="preserve" x="0" y="44.5" stroke="none" text-anchor="middle">switch</text></g></g></g></g></g><g class="node"><g fill="#dbdf00" stroke="#000000" stroke-width="4"><circle cx="1623.1178705471361" cy="-245.77667808422527" r="52"/></g><g transform="translate(1623.1178705471361 -245.77667808422527)"><g transform="scale(0.43750056249999997) translate(0 0)"><g transform="translate(0 0)"><g font-family="sans-serif" font-size="50" font-weight="normal" fill="#000000" text-anchor="middle"><text xml:space="preserve" x="0" y="-15.5" stroke="none">DMZ</text><text xml:space="preserve" x="0" y="44.5" stroke="none" text-anchor="middle">Switch</text></g></g></g></g></g><g class="node"><g fill="#a4dd00" stroke="#000000" stroke-width="4"><circle cx="1835.7273275795394" cy="348.0077743222753" r="52"/></g><g transform="translate(1835.7273275795394 348.0077743222753)"><g transform="scale(0.64453160546875) translate(0 0)"><g transform="translate(0 0)"><g font-family="sans-serif" font-size="50" font-weight="normal" fill="#000000" text-anchor="middle"><text xml:space="preserve" x="0" y="14.5" stroke="none">vault</text></g></g></g></g></g><g class="node"><g fill="#a4dd00" stroke="#000000" stroke-width="4"><circle cx="1589.1945667655148" cy="521.9217810040195" r="52"/></g><g transform="translate(1589.1945667655148 521.9217810040195)"><g transform="scale(0.59375040625) translate(0 0)"><g transform="translate(0 0)"><g font-family="sans-serif" font-size="50" font-weight="normal" fill="#000000" text-anchor="middle"><text xml:space="preserve" x="0" y="14.5" stroke="none">neo4j</text></g></g></g></g></g><g class="node"><g fill="#fda1ff" stroke="#000000" stroke-width="4"><circle cx="763.5705554454237" cy="1136.5985004945212" r="52"/></g><g transform="translate(763.5705554454237 1136.5985004945212)"><g transform="scale(0.48046926953125) translate(0 0)"><g transform="translate(0 0)"><g font-family="sans-serif" font-size="50" font-weight="normal" fill="#000000" text-anchor="middle"><text xml:space="preserve" x="0" y="-15.5" stroke="none">Event</text><text xml:space="preserve" x="0" y="44.5" stroke="none" text-anchor="middle">Store</text></g></g></g></g></g><g class="node"><g fill="#fda1ff" stroke="#000000" stroke-width="4"><circle cx="600.6039741988764" cy="1196.1246552175812" r="52"/></g><g transform="translate(600.6039741988764 1196.1246552175812)"><g transform="scale(0.5039067460937499) translate(0 0)"><g transform="translate(0 0)"><g font-family="sans-serif" font-size="50" font-weight="normal" fill="#000000" text-anchor="middle"><text xml:space="preserve" x="0" y="-15.5" stroke="none">KV</text><text xml:space="preserve" x="0" y="44.5" stroke="none" text-anchor="middle">Store</text></g></g></g></g></g><g class="node"><g fill="#fe9200" stroke="#000000" stroke-width="4"><circle cx="956.2507672193049" cy="943.2822715683643" r="52"/></g><g transform="translate(956.2507672193049 943.2822715683643)"><g transform="scale(0.8125001875) translate(0 0)"><g transform="translate(0 0)"><g font-family="sans-serif" font-size="50" font-weight="normal" fill="#000000" text-anchor="middle"><text xml:space="preserve" x="0" y="14.5" stroke="none">dev</text></g></g></g></g></g><g class="node"><g fill="#fe9200" stroke="#000000" stroke-width="4"><circle cx="1909.4931936234007" cy="-112.90266269703615" r="52"/></g><g transform="translate(1909.4931936234007 -112.90266269703615)"><g transform="scale(0.828125171875) translate(0 0)"><g transform="translate(0 0)"><g font-family="sans-serif" font-size="50" font-weight="normal" fill="#000000" text-anchor="middle"><text xml:space="preserve" x="0" y="14.5" stroke="none">dns</text></g></g></g></g></g><g class="node"><g fill="#f44e3b" stroke="#000000" stroke-width="4"><circle cx="-580.2852015732549" cy="1393" r="52"/></g><g transform="translate(-580.2852015732549 1393)"><g transform="scale(0.41015683984374995) translate(0 0)"><g transform="translate(0 0)"><g font-family="sans-serif" font-size="50" font-weight="normal" fill="#000000" text-anchor="middle"><text xml:space="preserve" x="0" y="14.5" stroke="none">physical</text><text xml:space="preserve" x="0" y="74.5" stroke="none" text-anchor="middle">rules</text></g></g></g></g></g><g class="node"><g fill="#dbdf00" stroke="#000000" stroke-width="4"><circle cx="664.4565476559715" cy="698.6353426435892" r="52"/></g><g transform="translate(664.4565476559715 698.6353426435892)"><g transform="scale(0.3984381015624999) translate(0 0)"><g transform="translate(0 0)"><g font-family="sans-serif" font-size="50" font-weight="normal" fill="#000000" text-anchor="middle"><text xml:space="preserve" x="0" y="-15.5" stroke="none">Comms</text><text xml:space="preserve" x="0" y="44.5" stroke="none" text-anchor="middle">switch</text></g></g></g></g></g><g class="node"><g fill="#fda1ff" stroke="#000000" stroke-width="4"><circle cx="437.63739295232915" cy="1136.5985004945212" r="52"/></g><g transform="translate(437.63739295232915 1136.5985004945212)"><g transform="scale(0.4414068085937499) translate(0 0)"><g transform="translate(0 0)"><g font-family="sans-serif" font-size="50" font-weight="normal" fill="#000000" text-anchor="middle"><text xml:space="preserve" x="0" y="-15.5" stroke="none">Object</text><text xml:space="preserve" x="0" y="44.5" stroke="none" text-anchor="middle">Store</text></g></g></g></g></g><g class="node"><g fill="#ffffff" stroke="#000000" stroke-width="4"><circle cx="-889.5704031465098" cy="2210.5704031465098" r="52"/></g><g transform="translate(-889.5704031465098 2210.5704031465098)"><g transform="scale(0.43359431640625) translate(0 0)"><g transform="translate(0 0)"><g font-family="sans-serif" font-size="50" font-weight="normal" fill="#000000" text-anchor="middle"><text xml:space="preserve" x="0" y="14.5" stroke="none">Internet</text></g></g></g></g></g></g></svg>