<svg xmlns="http://www.w3.org/2000/svg" width="1602" height="1444" viewBox="0 0 1602 1444"><defs><style type="text/css"/></defs><g transform="translate(2.1535021626175848 409.49999999999994) scale(1)"><g class="relationship"><g transform="translate(424.4624923706055 979.9110934928525) rotate(0)" stroke-width="5" stroke="#000000"><path d="M 59 0 L 277.45343472283184 0"/><polygon points="-24.8621506177483,0 -27.62461179749811,9.20820393249937 0,0 -27.62461179749811,-9.20820393249937" fill="#000000" transform="translate(302.3155853405802 0) rotate(0)" stroke="none"/></g><g transform="translate(592.6892097320215 979.9110934928525) rotate(0) translate(0 -13)"><g transform="translate(0 0)"><g transform="translate(-72.5999984741211 0)" fill="#ffffff" stroke="#000000" stroke-width="0"><rect x="0" y="0" width="145.1999969482422" height="26" rx="5" ry="5" stroke="none"/><text xml:space="preserve" x="5" y="17.5" stroke="none" text-anchor="left" font-family="sans-serif" font-size="16" font-weight="normal" fill="#000000">CONFIGURED_BY</text></g></g></g></g><g class="relationship"><g transform="translate(424.4625 178.66443739714072) rotate(0)" stroke-width="5" stroke="#000000"><path d="M 59 0 L 277.4534270934374 0"/><polygon points="-24.8621506177483,0 -27.62461179749811,9.20820393249937 0,0 -27.62461179749811,-9.20820393249937" fill="#000000" transform="translate(302.3155777111857 0) rotate(0)" stroke="none"/></g><g transform="translate(592.6892135467187 178.66443739714072) rotate(0) translate(0 -13)"><g transform="translate(0 0)"><g transform="translate(-72.5999984741211 0)" fill="#ffffff" stroke="#000000" stroke-width="0"><rect x="0" y="0" width="145.1999969482422" height="26" rx="5" ry="5" stroke="none"/><text xml:space="preserve" x="5" y="17.5" stroke="none" text-anchor="left" font-family="sans-serif" font-size="16" font-weight="normal" fill="#000000">CONFIGURED_BY</text></g></g></g></g><g class="relationship"><g transform="translate(424.46250762939457 445.74665609571105) rotate(0)" stroke-width="5" stroke="#000000"><path d="M 59 0 L 277.4534194640428 0"/><polygon points="-24.8621506177483,0 -27.62461179749811,9.20820393249937 0,0 -27.62461179749811,-9.20820393249937" fill="#000000" transform="translate(302.3155700817911 0) rotate(0)" stroke="none"/></g><g transform="translate(592.689217361416 445.74665609571105) rotate(0) translate(0 -13)"><g transform="translate(0 0)"><g transform="translate(-72.5999984741211 0)" fill="#ffffff" stroke="#000000" stroke-width="0"><rect x="0" y="0" width="145.1999969482422" height="26" rx="5" ry="5" stroke="none"/><text xml:space="preserve" x="5" y="17.5" stroke="none" text-anchor="left" font-family="sans-serif" font-size="16" font-weight="normal" fill="#000000">CONFIGURED_BY</text></g></g></g></g><g class="relationship"><g transform="translate(785.7780777111857 445.74665609571105) rotate(-0.0000013526362941342597)" stroke-width="5" stroke="#000000"><path d="M 59 0 L 277.4534194640429 0"/><polygon points="-24.8621506177483,0 -27.62461179749811,9.20820393249937 0,0 -27.62461179749811,-9.20820393249937" fill="#000000" transform="translate(302.3155700817912 0) rotate(0)" stroke="none"/></g><g transform="translate(954.0047874432071 445.7466521242221) rotate(-0.0000013526362941342597) translate(0 -13)"><g transform="translate(0 0)"><g transform="translate(-40.33333206176758 0)" fill="#ffffff" stroke="#000000" stroke-width="0"><rect x="0" y="0" width="80.66666412353516" height="26" rx="5" ry="5" stroke="none"/><text xml:space="preserve" x="5" y="17.5" stroke="none" text-anchor="left" font-family="sans-serif" font-size="16" font-weight="normal" fill="#000000">IMPORTS</text></g></g></g></g><g class="relationship"><g transform="translate(51.846497837382415 -355.49999999999994) rotate(0)" stroke-width="5" stroke="#000000"><path d="M 59 0 L 288.75385154486924 0"/><polygon points="-24.8621506177483,0 -27.62461179749811,9.20820393249937 0,0 -27.62461179749811,-9.20820393249937" fill="#000000" transform="translate(313.6160021626176 0) rotate(0)" stroke="none"/></g><g transform="translate(225.72342360981702 -355.49999999999994) rotate(0) translate(0 -13)"><g transform="translate(0 0)"><g transform="translate(-72.5999984741211 0)" fill="#ffffff" stroke="#000000" stroke-width="0"><rect x="0" y="0" width="145.1999969482422" height="26" rx="5" ry="5" stroke="none"/><text xml:space="preserve" x="5" y="17.5" stroke="none" text-anchor="left" font-family="sans-serif" font-size="16" font-weight="normal" fill="#000000">CONFIGURED_BY</text></g></g></g></g><g class="relationship"><g transform="translate(424.4625 -355.49999999999994) rotate(90)" stroke-width="5" stroke="#000000"><path d="M 59 0 L 183.22006808082205 0"/><polygon points="-24.8621506177483,0 -27.62461179749811,9.20820393249937 0,0 -27.62461179749811,-9.20820393249937" fill="#000000" transform="translate(208.08221869857033 0) rotate(0)" stroke="none"/></g><g transform="translate(424.4625 -234.38996595958892) rotate(270) translate(0 -13)"><g transform="translate(0 0)"><g transform="translate(-50.43333435058594 0)" fill="#ffffff" stroke="#000000" stroke-width="0"><rect x="0" y="0" width="100.86666870117188" height="26" rx="5" ry="5" stroke="none"/><text xml:space="preserve" x="5" y="17.5" stroke="none" text-anchor="left" font-family="sans-serif" font-size="16" font-weight="normal" fill="#000000">DESCRIBES</text></g></g></g></g><g class="relationship"><g transform="translate(424.4625 -88.41778130142961) rotate(90)" stroke-width="5" stroke="#000000"><path d="M 59 0 L 183.22006808082205 0"/><polygon points="-24.8621506177483,0 -27.62461179749811,9.20820393249937 0,0 -27.62461179749811,-9.20820393249937" fill="#000000" transform="translate(208.08221869857033 0) rotate(0)" stroke="none"/></g><g transform="translate(424.4625 32.69225273898141) rotate(270) translate(0 -13)"><g transform="translate(0 0)"><g transform="translate(-51.983333587646484 0)" fill="#ffffff" stroke="#000000" stroke-width="0"><rect x="0" y="0" width="103.96666717529297" height="26" rx="5" ry="5" stroke="none"/><text xml:space="preserve" x="5" y="17.5" stroke="none" text-anchor="left" font-family="sans-serif" font-size="16" font-weight="normal" fill="#000000">AUTHORIZE</text></g></g></g></g><g class="relationship"><g transform="translate(424.4625 178.66443739714072) rotate(89.99999836330508)" stroke-width="5" stroke="#000000"><path d="M 59 0 L 183.22006808082216 0"/><polygon points="-24.8621506177483,0 -27.62461179749811,9.20820393249937 0,0 -27.62461179749811,-9.20820393249937" fill="#000000" transform="translate(208.08221869857044 0) rotate(0)" stroke="none"/></g><g transform="translate(424.4625034595947 299.7744714375517) rotate(89.99999836330508) translate(0 -13)"><g transform="translate(0 0)"><g transform="translate(-26.5 0)" fill="#ffffff" stroke="#000000" stroke-width="0"><rect x="0" y="0" width="53" height="26" rx="5" ry="5" stroke="none"/><text xml:space="preserve" x="5" y="17.5" stroke="none" text-anchor="left" font-family="sans-serif" font-size="16" font-weight="normal" fill="#000000">HAVE</text></g></g></g></g><g class="relationship"><g transform="translate(424.46250762939457 445.74665609571105) rotate(90.00000163669493)" stroke-width="5" stroke="#000000"><path d="M 59 0 L 183.22006808082256 0"/><polygon points="-24.8621506177483,0 -27.62461179749811,9.20820393249937 0,0 -27.62461179749811,-9.20820393249937" fill="#000000" transform="translate(208.08221869857084 0) rotate(0)" stroke="none"/></g><g transform="translate(424.46250416979984 566.8566901361223) rotate(270.0000016366949) translate(0 -13)"><g transform="translate(0 0)"><g transform="translate(-52.5 0)" fill="#ffffff" stroke="#000000" stroke-width="0"><rect x="0" y="0" width="105" height="26" rx="5" ry="5" stroke="none"/><text xml:space="preserve" x="5" y="17.5" stroke="none" text-anchor="left" font-family="sans-serif" font-size="16" font-weight="normal" fill="#000000">CONFIGURE</text></g></g></g></g><g class="relationship"><g transform="translate(424.4625 712.8288747942818) rotate(90.0000016366949)" stroke-width="5" stroke="#000000"><path d="M 59 0 L 183.22006808082256 0"/><polygon points="-24.8621506177483,0 -27.62461179749811,9.20820393249937 0,0 -27.62461179749811,-9.20820393249937" fill="#000000" transform="translate(208.08221869857084 0) rotate(0)" stroke="none"/></g><g transform="translate(424.46249654040525 833.9389088346929) rotate(270.0000016366949) translate(0 -13)"><g transform="translate(0 0)"><g transform="translate(-41.733333587646484 0)" fill="#ffffff" stroke="#000000" stroke-width="0"><rect x="0" y="0" width="83.46666717529297" height="26" rx="5" ry="5" stroke="none"/><text xml:space="preserve" x="5" y="17.5" stroke="none" text-anchor="left" font-family="sans-serif" font-size="16" font-weight="normal" fill="#000000">SUPPORT</text></g></g></g></g><g class="relationship"><g transform="translate(1147.0936477929768 445.74664756578863) rotate(0.000001228326715723616)" stroke-width="5" stroke="#000000"><path d="M 59 0 L 314.01941254643646 0"/><polygon points="-24.8621506177483,0 -27.62461179749811,9.20820393249937 0,0 -27.62461179749811,-9.20820393249937" fill="#000000" transform="translate(338.88156316418474 0) rotate(0)" stroke="none"/></g><g transform="translate(1333.603354066195 445.74665156424817) rotate(0.000001228326715723616) translate(0 -13)"><g transform="translate(0 0)"><g transform="translate(-65.45000076293945 0)" fill="#ffffff" stroke="#000000" stroke-width="0"><rect x="0" y="0" width="130.9000015258789" height="26" rx="5" ry="5" stroke="none"/><text xml:space="preserve" x="5" y="17.5" stroke="none" text-anchor="left" font-family="sans-serif" font-size="16" font-weight="normal" fill="#000000">DESCRIBED_BY</text></g></g></g></g><g class="relationship"><g transform="translate(1147.0936554223713 712.8288747942818) rotate(-0.0000021915687819407475)" stroke-width="5" stroke="#000000"><path d="M 59 0 L 314.01940491704204 0"/><polygon points="-24.8621506177483,0 -27.62461179749811,9.20820393249937 0,0 -27.62461179749811,-9.20820393249937" fill="#000000" transform="translate(338.8815555347904 0) rotate(0)" stroke="none"/></g><g transform="translate(1333.6033578808922 712.8288676602687) rotate(-0.0000021915687819407475) translate(0 -13)"><g transform="translate(0 0)"><g transform="translate(-65.45000076293945 0)" fill="#ffffff" stroke="#000000" stroke-width="0"><rect x="0" y="0" width="130.9000015258789" height="26" rx="5" ry="5" stroke="none"/><text xml:space="preserve" x="5" y="17.5" stroke="none" text-anchor="left" font-family="sans-serif" font-size="16" font-weight="normal" fill="#000000">DESCRIBED_BY</text></g></g></g></g><g class="relationship"><g transform="translate(785.7780777111857 178.66443739714072) rotate(-9.013970597254476e-15)" stroke-width="5" stroke="#000000"><path d="M 59 0 L 277.4534270934373 0"/><polygon points="-24.8621506177483,0 -27.62461179749811,9.20820393249937 0,0 -27.62461179749811,-9.20820393249937" fill="#000000" transform="translate(302.3155777111856 0) rotate(0)" stroke="none"/></g><g transform="translate(954.0047912579043 178.6644373971407) rotate(-9.013970597254476e-15) translate(0 -13)"><g transform="translate(0 0)"><g transform="translate(-40.33333206176758 0)" fill="#ffffff" stroke="#000000" stroke-width="0"><rect x="0" y="0" width="80.66666412353516" height="26" rx="5" ry="5" stroke="none"/><text xml:space="preserve" x="5" y="17.5" stroke="none" text-anchor="left" font-family="sans-serif" font-size="16" font-weight="normal" fill="#000000">IMPORTS</text></g></g></g></g><g class="relationship"><g transform="translate(1147.0936554223713 178.66443739714066) rotate(0.000002191568700085031)" stroke-width="5" stroke="#000000"><path d="M 59 0 L 314.01940491704204 0"/><polygon points="-24.8621506177483,0 -27.62461179749811,9.20820393249937 0,0 -27.62461179749811,-9.20820393249937" fill="#000000" transform="translate(338.8815555347904 0) rotate(0)" stroke="none"/></g><g transform="translate(1333.6033578808922 178.6644445311535) rotate(0.000002191568700085031) translate(0 -13)"><g transform="translate(0 0)"><g transform="translate(-65.45000076293945 0)" fill="#ffffff" stroke="#000000" stroke-width="0"><rect x="0" y="0" width="130.9000015258789" height="26" rx="5" ry="5" stroke="none"/><text xml:space="preserve" x="5" y="17.5" stroke="none" text-anchor="left" font-family="sans-serif" font-size="16" font-weight="normal" fill="#000000">DESCRIBED_BY</text></g></g></g></g><g class="relationship"><g transform="translate(785.7780777111857 979.9110934928525) rotate(0)" stroke-width="5" stroke="#000000"><path d="M 59 0 L 277.45343472283184 0"/><polygon points="-24.8621506177483,0 -27.62461179749811,9.20820393249937 0,0 -27.62461179749811,-9.20820393249937" fill="#000000" transform="translate(302.3155853405801 0) rotate(0)" stroke="none"/></g><g transform="translate(954.0047950726016 979.9110934928525) rotate(0) translate(0 -13)"><g transform="translate(0 0)"><g transform="translate(-40.33333206176758 0)" fill="#ffffff" stroke="#000000" stroke-width="0"><rect x="0" y="0" width="80.66666412353516" height="26" rx="5" ry="5" stroke="none"/><text xml:space="preserve" x="5" y="17.5" stroke="none" text-anchor="left" font-family="sans-serif" font-size="16" font-weight="normal" fill="#000000">IMPORTS</text></g></g></g></g><g class="relationship"><g transform="translate(1147.0936630517658 979.9110934928525) rotate(0.000002191568676623873)" stroke-width="5" stroke="#000000"><path d="M 59 0 L 314.0193972876475 0"/><polygon points="-24.8621506177483,0 -27.62461179749811,9.20820393249937 0,0 -27.62461179749811,-9.20820393249937" fill="#000000" transform="translate(338.88154790539585 0) rotate(0)" stroke="none"/></g><g transform="translate(1333.6033616955895 979.9111006268652) rotate(0.000002191568676623873) translate(0 -13)"><g transform="translate(0 0)"><g transform="translate(-65.45000076293945 0)" fill="#ffffff" stroke="#000000" stroke-width="0"><rect x="0" y="0" width="130.9000015258789" height="26" rx="5" ry="5" stroke="none"/><text xml:space="preserve" x="5" y="17.5" stroke="none" text-anchor="left" font-family="sans-serif" font-size="16" font-weight="normal" fill="#000000">DESCRIBED_BY</text></g></g></g></g><g class="relationship"><g transform="translate(424.4625 712.8288747942818) rotate(0)" stroke-width="5" stroke="#000000"><path d="M 59 0 L 277.4534270934374 0"/><polygon points="-24.8621506177483,0 -27.62461179749811,9.20820393249937 0,0 -27.62461179749811,-9.20820393249937" fill="#000000" transform="translate(302.3155777111857 0) rotate(0)" stroke="none"/></g><g transform="translate(592.6892135467187 712.8288747942818) rotate(0) translate(0 -13)"><g transform="translate(0 0)"><g transform="translate(-72.5999984741211 0)" fill="#ffffff" stroke="#000000" stroke-width="0"><rect x="0" y="0" width="145.1999969482422" height="26" rx="5" ry="5" stroke="none"/><text xml:space="preserve" x="5" y="17.5" stroke="none" text-anchor="left" font-family="sans-serif" font-size="16" font-weight="normal" fill="#000000">CONFIGURED_BY</text></g></g></g></g><g class="relationship"><g transform="translate(785.7780777111857 712.8288747942818) rotate(0)" stroke-width="5" stroke="#000000"><path d="M 59 0 L 277.4534270934373 0"/><polygon points="-24.8621506177483,0 -27.62461179749811,9.20820393249937 0,0 -27.62461179749811,-9.20820393249937" fill="#000000" transform="translate(302.3155777111856 0) rotate(0)" stroke="none"/></g><g transform="translate(954.0047912579043 712.8288747942818) rotate(0) translate(0 -13)"><g transform="translate(0 0)"><g transform="translate(-40.33333206176758 0)" fill="#ffffff" stroke="#000000" stroke-width="0"><rect x="0" y="0" width="80.66666412353516" height="26" rx="5" ry="5" stroke="none"/><text xml:space="preserve" x="5" y="17.5" stroke="none" text-anchor="left" font-family="sans-serif" font-size="16" font-weight="normal" fill="#000000">IMPORTS</text></g></g></g></g><g class="relationship"><g transform="translate(424.4625 -88.41778130142961) rotate(0)" stroke-width="5" stroke="#000000"><path d="M 59 0 L 277.4534270934374 0"/><polygon points="-24.8621506177483,0 -27.62461179749811,9.20820393249937 0,0 -27.62461179749811,-9.20820393249937" fill="#000000" transform="translate(302.3155777111857 0) rotate(0)" stroke="none"/></g></g><g class="node"><g fill="#73d8ff" stroke="#000000" stroke-width="4"><circle cx="424.4625" cy="-355.49999999999994" r="52"/></g><g transform="translate(424.4625 -355.49999999999994)"><g transform="scale(0.40625059374999994) translate(0 0)"><g transform="translate(0 0)"><g font-family="sans-serif" font-size="50" font-weight="normal" fill="#000000" text-anchor="middle"><text xml:space="preserve" x="0" y="14.5" stroke="none">flake.nix</text></g></g></g></g></g><g class="node"><g fill="#fe9200" stroke="#000000" stroke-width="4"><circle cx="424.4625" cy="178.66443739714072" r="52"/></g><g transform="translate(424.4625 178.66443739714072)"><g transform="scale(0.6093753906249999) translate(0 0)"><g transform="translate(0 0)"><g font-family="sans-serif" font-size="50" font-weight="normal" fill="#000000" text-anchor="middle"><text xml:space="preserve" x="0" y="14.5" stroke="none">hosts</text></g></g></g></g></g><g class="node"><g fill="#fcdc00" stroke="#000000" stroke-width="4"><circle cx="424.46250762939457" cy="445.74665609571105" r="52"/></g><g transform="translate(424.46250762939457 445.74665609571105)"><g transform="scale(0.6054691445312499) translate(0 0)"><g transform="translate(0 0)"><g font-family="sans-serif" font-size="50" font-weight="normal" fill="#000000" text-anchor="middle"><text xml:space="preserve" x="0" y="14.5" stroke="none">users</text></g></g></g></g></g><g class="node"><g fill="#f44e3b" stroke="#000000" stroke-width="4"><circle cx="424.4625" cy="-88.41778130142961" r="52"/></g><g transform="translate(424.4625 -88.41778130142961)"><g transform="scale(0.43750056249999997) translate(0 0)"><g transform="translate(0 0)"><g font-family="sans-serif" font-size="50" font-weight="normal" fill="#000000" text-anchor="middle"><text xml:space="preserve" x="0" y="14.5" stroke="none">.secrets</text></g></g></g></g></g><g class="node"><g fill="#fda1ff" stroke="#000000" stroke-width="4"><circle cx="424.4624923706055" cy="979.9110934928525" r="52"/></g><g transform="translate(424.4624923706055 979.9110934928525)"><g transform="scale(0.58203166796875) translate(0 0)"><g transform="translate(0 0)"><g font-family="sans-serif" font-size="50" font-weight="normal" fill="#000000" text-anchor="middle"><text xml:space="preserve" x="0" y="14.5" stroke="none">shells</text></g></g></g></g></g><g class="node"><g fill="#fcdc00" stroke="#000000" stroke-width="4"><circle cx="1147.0936477929768" cy="445.74664756578863" r="52"/></g><g transform="translate(1147.0936477929768 445.74664756578863)"><g transform="scale(0.72265652734375) translate(0 0)"><g transform="translate(0 0)"><g font-family="sans-serif" font-size="50" font-weight="normal" fill="#000000" text-anchor="middle"><text xml:space="preserve" x="0" y="14.5" stroke="none">user</text></g></g></g></g></g><g class="node"><g fill="#68ccca" stroke="#000000" stroke-width="4"><circle cx="424.4625" cy="712.8288747942818" r="52"/></g><g transform="translate(424.4625 712.8288747942818)"><g transform="scale(0.40234434765624993) translate(0 0)"><g transform="translate(0 0)"><g font-family="sans-serif" font-size="50" font-weight="normal" fill="#000000" text-anchor="middle"><text xml:space="preserve" x="0" y="14.5" stroke="none">modules</text></g></g></g></g></g><g class="node"><g fill="#aea1ff" stroke="#000000" stroke-width="4"><circle cx="785.7780777111857" cy="979.9110934928525" r="52"/></g><g transform="translate(785.7780777111857 979.9110934928525)"><g transform="scale(0.32812567187499997) translate(0 0)"><g transform="translate(0 0)"><g font-family="sans-serif" font-size="50" font-weight="normal" fill="#000000" text-anchor="middle"><text xml:space="preserve" x="0" y="14.5" stroke="none">default.nix</text></g></g></g></g></g><g class="node"><g fill="#aea1ff" stroke="#000000" stroke-width="4"><circle cx="785.7780777111857" cy="445.74665609571105" r="52"/></g><g transform="translate(785.7780777111857 445.74665609571105)"><g transform="scale(0.32812567187499997) translate(0 0)"><g transform="translate(0 0)"><g font-family="sans-serif" font-size="50" font-weight="normal" fill="#000000" text-anchor="middle"><text xml:space="preserve" x="0" y="14.5" stroke="none">default.nix</text></g></g></g></g></g><g class="node"><g fill="#aea1ff" stroke="#000000" stroke-width="4"><circle cx="785.7780777111857" cy="178.66443739714072" r="52"/></g><g transform="translate(785.7780777111857 178.66443739714072)"><g transform="scale(0.32812567187499997) translate(0 0)"><g transform="translate(0 0)"><g font-family="sans-serif" font-size="50" font-weight="normal" fill="#000000" text-anchor="middle"><text xml:space="preserve" x="0" y="14.5" stroke="none">default.nix</text></g></g></g></g></g><g class="node"><g fill="#aea1ff" stroke="#000000" stroke-width="4"><circle cx="1544.9752109571614" cy="712.828859575276" r="52"/></g><g transform="translate(1544.9752109571614 712.828859575276)"><g transform="scale(0.32812567187499997) translate(0 0)"><g transform="translate(0 0)"><g font-family="sans-serif" font-size="50" font-weight="normal" fill="#000000" text-anchor="middle"><text xml:space="preserve" x="0" y="14.5" stroke="none">default.nix</text></g></g></g></g></g><g class="node"><g fill="#a4dd00" stroke="#000000" stroke-width="4"><circle cx="51.846497837382415" cy="-355.49999999999994" r="52"/></g><g transform="translate(51.846497837382415 -355.49999999999994)"><g transform="scale(0.8125001875) translate(0 0)"><g transform="translate(0 0)"><g font-family="sans-serif" font-size="50" font-weight="normal" fill="#000000" text-anchor="middle"><text xml:space="preserve" x="0" y="14.5" stroke="none">CIM</text></g></g></g></g></g><g class="node"><g fill="#aea1ff" stroke="#000000" stroke-width="4"><circle cx="1544.9752109571614" cy="445.74665609571105" r="52"/></g><g transform="translate(1544.9752109571614 445.74665609571105)"><g transform="scale(0.32812567187499997) translate(0 0)"><g transform="translate(0 0)"><g font-family="sans-serif" font-size="50" font-weight="normal" fill="#000000" text-anchor="middle"><text xml:space="preserve" x="0" y="14.5" stroke="none">default.nix</text></g></g></g></g></g><g class="node"><g fill="#68ccca" stroke="#000000" stroke-width="4"><circle cx="1147.0936554223713" cy="712.8288747942818" r="52"/></g><g transform="translate(1147.0936554223713 712.8288747942818)"><g transform="scale(0.45703179296874996) translate(0 0)"><g transform="translate(0 0)"><g font-family="sans-serif" font-size="50" font-weight="normal" fill="#000000" text-anchor="middle"><text xml:space="preserve" x="0" y="14.5" stroke="none">module</text></g></g></g></g></g><g class="node"><g fill="#fe9200" stroke="#000000" stroke-width="4"><circle cx="1147.0936554223713" cy="178.66443739714066" r="52"/></g><g transform="translate(1147.0936554223713 178.66443739714066)"><g transform="scale(0.7265627734375) translate(0 0)"><g transform="translate(0 0)"><g font-family="sans-serif" font-size="50" font-weight="normal" fill="#000000" text-anchor="middle"><text xml:space="preserve" x="0" y="14.5" stroke="none">host</text></g></g></g></g></g><g class="node"><g fill="#aea1ff" stroke="#000000" stroke-width="4"><circle cx="1544.9752109571614" cy="178.6644526161458" r="52"/></g><g transform="translate(1544.9752109571614 178.6644526161458)"><g transform="scale(0.32812567187499997) translate(0 0)"><g transform="translate(0 0)"><g font-family="sans-serif" font-size="50" font-weight="normal" fill="#000000" text-anchor="middle"><text xml:space="preserve" x="0" y="14.5" stroke="none">default.nix</text></g></g></g></g></g><g class="node"><g fill="#fda1ff" stroke="#000000" stroke-width="4"><circle cx="1147.0936630517658" cy="979.9110934928525" r="52"/></g><g transform="translate(1147.0936630517658 979.9110934928525)"><g transform="scale(0.6875003125) translate(0 0)"><g transform="translate(0 0)"><g font-family="sans-serif" font-size="50" font-weight="normal" fill="#000000" text-anchor="middle"><text xml:space="preserve" x="0" y="14.5" stroke="none">shell</text></g></g></g></g></g><g class="node"><g fill="#aea1ff" stroke="#000000" stroke-width="4"><circle cx="1544.9752109571614" cy="979.9111087118572" r="52"/></g><g transform="translate(1544.9752109571614 979.9111087118572)"><g transform="scale(0.32812567187499997) translate(0 0)"><g transform="translate(0 0)"><g font-family="sans-serif" font-size="50" font-weight="normal" fill="#000000" text-anchor="middle"><text xml:space="preserve" x="0" y="14.5" stroke="none">default.nix</text></g></g></g></g></g><g class="node"><g fill="#aea1ff" stroke="#000000" stroke-width="4"><circle cx="785.7780777111857" cy="712.8288747942818" r="52"/></g><g transform="translate(785.7780777111857 712.8288747942818)"><g transform="scale(0.32812567187499997) translate(0 0)"><g transform="translate(0 0)"><g font-family="sans-serif" font-size="50" font-weight="normal" fill="#000000" text-anchor="middle"><text xml:space="preserve" x="0" y="14.5" stroke="none">default.nix</text></g></g></g></g></g><g class="node"><g fill="#f44e3b" stroke="#000000" stroke-width="4"><circle cx="785.7780777111857" cy="-88.41778130142961" r="52"/></g><g transform="translate(785.7780777111857 -88.41778130142961)"><g transform="scale(0.34375065625) translate(0 0)"><g transform="translate(0 0)"><g font-family="sans-serif" font-size="50" font-weight="normal" fill="#000000" text-anchor="middle"><text xml:space="preserve" x="0" y="14.5" stroke="none">Encrypted</text><text xml:space="preserve" x="0" y="74.5" stroke="none" text-anchor="middle">Secrets</text></g></g></g></g></g></g></svg>